<?xml version="1.0" encoding="utf-8"?>
<svg viewBox="-234 25.7 805 499.8" width="2500" height="1141" xmlns="http://www.w3.org/2000/svg">
  <defs/>
  <g fill="#f94f00" style="" transform="matrix(0.568103, 0, 0, 0.662324, -101.15362, 140.912555)">
    <path d="M 776.662 308.569 L 775.296 308.569 C 770.092 308.569 766.396 309.991 763.933 312.827 C 761.603 315.669 760.375 319.926 760.375 326.01 C 760.375 329.052 760.786 331.487 761.744 333.108 C 762.564 334.935 763.796 335.745 765.435 335.745 C 768.313 335.745 770.64 333.514 772.558 329.052 C 774.336 324.186 775.705 317.495 776.662 308.569 M 772.829 340.817 C 770.913 344.061 768.861 346.292 766.67 347.915 C 764.48 349.539 762.017 350.145 759.279 350.145 C 755.033 350.145 751.475 348.117 748.738 344.265 C 746 340.412 744.77 335.341 744.77 329.258 C 744.77 317.288 746.957 308.569 751.338 303.296 C 755.717 298.022 762.974 295.388 772.966 295.388 L 776.391 295.388 C 777.209 295.388 777.893 295.388 778.579 295.587 C 778.853 292.953 779.126 290.923 779.263 289.301 C 779.4 287.678 779.4 286.461 779.4 285.651 C 779.4 282.811 778.989 280.58 778.031 279.163 C 777.072 277.74 775.705 277.133 773.923 277.133 C 772.006 277.133 770.501 277.943 769.271 279.767 C 768.174 281.594 767.355 284.23 766.944 287.678 L 751.475 287.678 C 752.158 279.363 754.213 273.277 757.772 269.427 C 761.331 265.568 766.534 263.746 773.514 263.746 C 780.768 263.746 786.109 265.568 789.529 269.023 C 792.952 272.669 794.597 278.348 794.597 286.056 C 794.597 288.082 794.455 290.113 794.32 292.545 C 794.045 294.983 793.774 297.413 793.363 300.05 L 788.71 332.094 C 788.296 334.935 788.026 337.775 787.749 340.613 C 787.475 343.454 787.339 346.092 787.065 349.134 L 772.006 349.134 L 772.829 340.817 Z M 720.4 341.424 C 718.896 344.671 717.117 347.307 715.064 348.727 C 713.009 350.35 710.546 350.959 707.534 350.959 C 702.743 350.959 699.184 349.134 696.856 345.688 C 694.532 342.233 693.297 336.76 693.297 329.458 C 693.297 326.621 693.573 322.97 693.982 318.506 C 694.391 314.041 694.941 309.174 695.76 303.902 C 696.585 298.223 697.539 293.357 698.5 289.099 C 699.459 284.841 700.418 281.393 701.511 278.755 C 703.427 273.888 705.62 270.237 708.082 268.007 C 710.546 265.771 713.559 264.558 716.98 264.558 C 719.854 264.558 722.317 265.369 724.373 266.99 C 726.426 268.615 728.338 271.452 729.984 275.306 L 736.691 229.468 L 752.571 229.468 L 737.24 335.745 C 736.966 337.369 736.829 339.399 736.554 341.629 C 736.282 343.862 736.144 346.292 735.871 348.93 L 719.578 348.93 L 720.4 341.424 Z M 721.634 280.175 C 719.854 280.175 718.485 280.986 717.391 282.403 C 716.295 283.827 715.336 286.666 714.513 290.516 C 713.15 297.212 711.915 303.699 711.092 310.396 C 710.272 316.884 709.863 322.157 709.863 326.215 C 709.863 329.258 710.272 331.487 711.232 333.108 C 712.051 334.731 713.419 335.341 715.2 335.341 C 716.708 335.341 717.937 334.531 719.033 333.108 C 720.129 331.691 721.224 329.258 722.183 326.215 C 722.729 324.389 723.138 321.953 723.688 318.912 C 724.237 315.869 724.782 312.221 725.331 307.959 C 725.877 303.699 726.287 300.05 726.561 297.007 C 726.836 293.964 726.97 291.533 726.97 289.707 C 726.97 286.461 726.426 284.23 725.602 282.609 C 724.646 280.986 723.279 280.175 721.634 280.175 M 669.48 278.348 C 667.701 278.348 666.331 279.163 665.236 280.58 C 664.141 281.998 663.181 284.433 662.362 287.678 C 662.088 288.69 661.813 290.113 661.405 292.345 C 660.993 294.576 660.721 296.809 660.309 299.646 C 660.037 301.266 659.759 303.497 659.348 306.539 C 657.705 317.693 656.885 324.591 656.885 327.027 C 656.885 330.271 657.296 332.91 658.255 334.531 C 659.214 336.151 660.582 337.165 662.497 337.165 C 664.279 337.165 665.649 336.357 666.88 334.935 C 668.111 333.514 669.069 331.083 669.892 327.837 C 670.302 326.01 670.849 323.374 671.396 319.727 C 671.944 316.074 672.63 312.016 673.313 307.553 C 673.86 303.296 674.409 299.646 674.681 296.398 C 674.955 293.156 675.093 290.516 675.093 288.489 C 675.093 285.244 674.681 282.811 673.723 281.19 C 672.765 279.163 671.396 278.348 669.48 278.348 M 641.417 323.578 C 641.417 320.941 641.555 317.899 641.966 314.448 C 642.24 311.002 642.788 306.949 643.471 302.685 C 644.293 297.413 645.113 292.749 646.073 288.69 C 647.031 284.637 648.125 281.393 649.085 279.163 C 651.411 273.888 654.147 270.034 657.434 267.6 C 660.721 265.165 664.826 263.947 669.892 263.947 C 676.734 263.947 681.936 266.384 685.497 271.047 C 689.054 275.709 690.834 282.811 690.834 291.734 C 690.834 294.576 690.7 297.619 690.424 300.858 C 690.15 304.309 689.741 307.959 689.054 312.016 C 688.235 317.288 687.412 321.755 686.453 325.809 C 685.497 329.863 684.403 333.313 683.304 335.745 C 681.115 341.019 678.241 344.872 675.093 347.307 C 671.807 349.737 667.701 350.959 662.638 350.959 C 655.793 350.959 650.589 348.525 647.031 343.862 C 643.197 339.399 641.417 332.504 641.417 323.578 M 604.048 349.335 L 613.354 284.23 C 613.767 281.19 614.177 277.943 614.586 274.9 C 614.999 271.861 615.271 268.817 615.41 265.771 L 630.877 265.771 L 629.51 277.943 C 631.427 273.685 633.479 270.437 635.945 268.41 C 638.407 266.384 641.145 265.369 644.429 265.369 L 645.933 265.369 C 646.207 265.369 646.62 265.369 646.757 265.568 L 643.883 286.258 L 643.607 286.258 C 641.688 285.849 640.461 285.651 639.638 285.651 C 635.945 285.651 632.929 287.272 631.014 290.516 C 628.96 293.763 627.32 299.239 626.225 306.949 L 620.2 349.335 L 604.048 349.335 Z M 586.937 308.569 L 585.568 308.569 C 580.367 308.569 576.671 309.991 574.207 312.827 C 571.882 315.669 570.647 319.926 570.647 326.01 C 570.647 329.052 571.057 331.487 572.015 333.108 C 572.837 334.935 574.071 335.745 575.713 335.745 C 578.587 335.745 580.915 333.514 582.83 329.052 C 584.473 324.186 585.977 317.495 586.937 308.569 M 582.969 340.817 C 581.05 344.061 578.997 346.292 576.808 347.915 C 574.618 349.539 572.152 350.145 569.415 350.145 C 565.171 350.145 561.613 348.117 558.876 344.265 C 556.136 340.412 554.909 335.341 554.909 329.258 C 554.909 317.288 557.097 308.569 561.477 303.296 C 565.856 298.022 573.112 295.388 583.104 295.388 L 586.525 295.388 C 587.347 295.388 588.03 295.388 588.716 295.587 C 588.99 292.953 589.265 290.923 589.4 289.301 C 589.538 287.678 589.538 286.461 589.538 285.651 C 589.538 282.811 589.127 280.58 588.171 279.163 C 587.212 277.74 585.842 277.133 584.06 277.133 C 582.144 277.133 580.64 277.943 579.408 279.767 C 578.314 281.594 577.492 284.23 577.082 287.678 L 561.613 287.678 C 562.298 279.363 564.351 273.277 567.91 269.427 C 571.467 265.568 576.671 263.746 583.654 263.746 C 590.908 263.746 596.247 265.568 599.669 269.023 C 603.089 272.669 604.733 278.348 604.733 286.056 C 604.733 288.082 604.594 290.113 604.46 292.545 C 604.185 294.983 603.912 297.413 603.501 300.05 L 598.847 332.094 C 598.435 334.935 598.163 337.775 597.89 340.613 C 597.615 343.454 597.479 346.092 597.205 349.134 L 582.282 349.134 L 582.969 340.817 Z M 493.032 349.335 L 510.28 229.673 L 533.002 229.673 C 542.039 229.673 548.473 231.699 552.442 235.756 C 556.411 239.812 558.329 246.303 558.329 255.429 C 558.329 264.757 556.685 272.263 553.539 277.943 C 550.391 283.62 545.871 287.071 539.847 288.082 C 543.953 289.301 546.966 291.939 548.882 295.792 C 550.801 299.646 551.893 304.918 551.893 311.407 C 551.893 317.899 551.076 323.981 549.43 329.458 C 547.787 334.935 545.597 338.993 542.724 342.033 C 540.121 344.671 536.975 346.499 533.141 347.714 C 529.445 348.727 523.285 349.335 514.799 349.335 L 493.032 349.335 Z M 512.609 330.678 L 520.001 330.678 C 525.338 330.678 529.173 329.052 531.633 325.604 C 534.1 322.363 535.331 317.085 535.331 309.786 C 535.331 304.918 534.371 301.472 532.592 299.443 C 530.813 297.413 527.665 296.398 523.285 296.398 L 517.811 296.398 L 512.609 330.678 Z M 520.134 278.147 L 526.022 278.147 C 531.633 278.147 535.741 276.725 538.204 273.685 C 540.671 270.643 541.901 265.979 541.901 259.286 C 541.901 255.025 540.941 252.185 539.163 250.359 C 537.384 248.534 534.236 247.52 529.993 247.52 L 524.79 247.52 L 520.134 278.147 Z M 446.628 349.335 L 456.348 280.58 L 447.586 280.58 L 449.776 265.979 L 458.673 265.979 L 460.317 253.606 C 461.549 244.682 463.602 238.191 466.614 234.133 C 469.626 230.079 473.731 228.051 478.932 228.051 C 480.575 228.051 482.219 228.051 483.863 228.252 C 485.504 228.458 487.148 228.659 488.79 229.062 L 486.598 245.088 C 485.774 244.882 484.957 244.682 484.407 244.477 C 483.863 244.277 483.314 244.277 482.905 244.277 C 480.986 244.277 479.48 245.088 478.522 246.508 C 477.428 247.925 476.742 250.359 476.194 253.606 L 474.554 265.979 L 483.723 265.979 L 481.671 280.58 L 472.225 280.58 L 462.37 349.335 L 446.628 349.335 Z M 425.137 278.348 C 423.494 278.348 421.99 279.163 420.894 280.58 C 419.799 281.998 418.841 284.433 418.157 287.678 C 417.88 288.69 417.606 290.113 417.197 292.345 C 416.788 294.576 416.512 296.809 416.103 299.646 C 415.828 301.266 415.552 303.497 415.144 306.539 C 413.5 317.693 412.68 324.591 412.68 327.027 C 412.68 330.271 413.09 332.91 414.048 334.531 C 415.009 336.151 416.376 337.165 418.157 337.165 C 419.799 337.165 421.305 336.357 422.401 334.935 C 423.494 333.514 424.589 331.083 425.273 327.837 C 425.687 326.01 426.233 323.374 426.779 319.727 C 427.327 316.074 428.011 312.016 428.56 307.553 C 429.107 303.296 429.519 299.646 429.929 296.398 C 430.339 293.156 430.339 290.516 430.339 288.489 C 430.339 285.244 429.929 282.811 428.97 281.19 C 428.423 279.163 427.052 278.348 425.137 278.348 M 397.624 323.578 C 397.624 320.941 397.759 317.899 398.168 314.448 C 398.444 311.002 398.992 306.949 399.538 302.685 C 400.362 297.413 401.182 292.749 402.143 288.69 C 403.097 284.637 404.058 281.393 405.15 279.163 C 407.342 273.888 410.081 270.034 413.363 267.6 C 416.512 265.165 420.618 263.947 425.548 263.947 C 432.256 263.947 437.32 266.384 440.878 271.047 C 444.437 275.709 446.082 282.811 446.082 291.734 C 446.082 294.576 445.942 297.619 445.669 300.858 C 445.4 304.309 444.985 307.959 444.3 312.016 C 443.482 317.288 442.658 321.755 441.697 325.809 C 440.743 329.863 439.783 333.313 438.687 335.745 C 436.5 341.019 433.762 344.872 430.476 347.307 C 427.327 349.737 423.221 350.959 418.289 350.959 C 411.585 350.959 406.385 348.525 402.961 343.862 C 399.404 339.399 397.624 332.504 397.624 323.578 M 326.714 349.335 L 344.237 229.673 L 360.528 229.673 L 350.67 296.603 L 368.604 265.771 L 385.988 265.771 L 364.906 302.685 L 376.267 349.134 L 359.569 349.134 L 349.711 301.876 L 342.869 349.134 L 326.714 349.134 L 326.714 349.335 Z M 274.29 349.335 L 284.279 281.19 C 284.83 277.74 285.24 274.701 285.513 272.466 C 285.787 270.034 286.061 268.007 286.198 265.979 L 301.665 265.979 L 300.706 275.51 C 302.487 271.452 304.54 268.615 306.867 266.788 C 309.193 264.962 312.069 264.153 315.353 264.153 C 319.597 264.153 322.746 265.568 324.937 268.615 C 327.123 271.452 328.222 275.916 328.222 281.594 C 328.222 283.62 328.083 285.651 327.947 287.479 C 327.809 289.301 327.674 291.127 327.4 292.749 L 319.188 349.539 L 302.896 349.539 L 311.247 292.545 C 311.519 290.923 311.657 289.504 311.793 288.69 C 311.933 287.881 311.933 287.071 311.933 286.666 C 311.933 284.433 311.519 282.811 310.834 281.8 C 310.152 280.783 309.056 280.175 307.689 280.175 C 305.634 280.175 303.717 281.8 302.074 284.841 C 300.434 287.881 299.2 292.142 298.518 297.619 L 290.851 349.539 L 274.29 349.539 L 274.29 349.335 Z M 256.902 308.569 L 255.397 308.569 C 250.195 308.569 246.364 309.991 243.899 312.827 C 241.435 315.669 240.341 319.926 240.341 326.01 C 240.341 329.052 240.752 331.487 241.711 333.108 C 242.531 334.935 243.899 335.745 245.402 335.745 C 248.277 335.745 250.745 333.514 252.66 329.052 C 254.578 324.186 255.947 317.495 256.902 308.569 M 253.069 340.817 C 251.154 344.061 249.102 346.292 246.774 347.915 C 244.584 349.539 241.982 350.145 239.381 350.145 C 234.999 350.145 231.443 348.117 228.704 344.265 C 225.966 340.412 224.597 335.341 224.597 329.258 C 224.597 317.288 226.786 308.569 231.17 303.296 C 235.548 298.022 242.94 295.388 253.069 295.388 L 256.492 295.388 C 257.315 295.388 258 295.388 258.82 295.587 C 259.229 292.953 259.366 290.923 259.505 289.301 C 259.64 287.678 259.64 286.461 259.64 285.651 C 259.64 282.811 259.229 280.58 258.273 279.163 C 257.315 277.74 255.947 277.133 254.03 277.133 C 252.114 277.133 250.606 277.943 249.376 279.767 C 248.142 281.594 247.459 284.23 247.048 287.678 L 231.303 287.678 C 231.989 279.363 234.18 273.277 237.739 269.427 C 241.297 265.568 246.637 263.746 253.754 263.746 C 261.147 263.746 266.484 265.568 269.908 269.023 C 273.331 272.669 274.973 278.348 274.973 286.056 C 274.973 288.082 274.835 290.113 274.697 292.545 C 274.424 294.983 274.15 297.413 273.74 300.05 L 269.086 332.094 C 268.675 334.935 268.4 337.775 268.127 340.613 C 267.855 343.454 267.579 346.092 267.445 349.134 L 252.25 349.134 L 253.069 340.817 Z M 161.904 349.335 L 179.426 229.673 L 202.421 229.673 C 211.594 229.673 218.166 231.699 222.132 235.756 C 226.102 239.812 228.154 246.303 228.154 255.429 C 228.154 264.757 226.514 272.263 223.367 277.943 C 220.217 283.62 215.563 287.071 209.54 288.082 C 213.646 289.301 216.796 291.939 218.711 295.792 C 220.765 299.646 221.723 304.918 221.723 311.407 C 221.723 317.899 220.902 323.981 219.26 329.458 C 217.616 334.935 215.287 338.993 212.416 342.033 C 209.811 344.671 206.664 346.499 202.832 347.714 C 198.999 348.727 192.84 349.335 184.217 349.335 L 161.904 349.335 Z M 181.75 330.678 L 189.144 330.678 C 194.481 330.678 198.453 329.052 200.917 325.604 C 203.379 322.363 204.613 317.085 204.613 309.786 C 204.613 304.918 203.654 301.472 201.876 299.443 C 199.958 297.413 196.947 296.398 192.429 296.398 L 186.819 296.398 L 181.75 330.678 Z M 189.419 278.147 L 195.305 278.147 C 200.917 278.147 205.026 276.725 207.622 273.685 C 210.087 270.643 211.32 265.979 211.32 259.286 C 211.32 255.025 210.361 252.185 208.581 250.359 C 206.664 248.534 203.654 247.52 199.273 247.52 L 194.071 247.52 L 189.419 278.147 Z" style=""/>
    <path clip-rule="evenodd" d="M 646.491 188.392 L 660.3 188.392 L 657.829 205.067 L 644.019 205.067 L 646.491 188.392 Z M 607.827 149.543 C 605.502 154.054 602.159 157.195 599.105 157.195 L 598.233 157.195 C 593.729 157.195 591.402 150.719 593 142.873 L 595.762 129.528 L 607.681 149.935 L 607.827 149.543 Z M 606.808 114.42 L 607.537 114.42 C 612.043 114.42 614.369 120.894 612.915 128.742 L 610.735 139.536 L 598.67 120.894 C 600.995 116.973 603.903 114.42 606.808 114.42 M 584.861 82.244 L 693.441 82.244 L 681.232 60.462 L 691.551 49.082 L 705.941 82.244 L 709.721 82.244 L 698.82 42.606 L 712.483 34.172 L 720.332 82.438 L 821.643 82.438 L 820.045 91.857 L 811.034 91.857 L 793.589 180.543 L 778.91 180.543 L 796.352 91.857 L 783.561 91.857 L 777.746 114.42 C 771.497 114.42 762.63 112.458 756.669 114.029 C 751.583 115.402 750.565 118.736 748.966 124.427 C 745.623 136.592 743.881 148.757 741.553 161.511 C 742.135 169.75 745.479 171.32 751.728 171.125 C 751.147 162.885 752.601 151.504 759.867 146.794 C 764.664 143.654 773.095 143.46 774.839 151.111 C 777.311 162.099 768.88 172.891 762.921 173.676 C 764.519 180.346 768.154 180.935 773.533 183.878 L 758.125 195.258 C 754.635 189.568 752.02 183.683 751.873 177.601 C 746.351 181.133 736.903 181.524 731.087 177.601 C 729.78 176.815 728.472 175.442 727.308 173.086 C 724.837 168.378 723.966 162.295 724.402 155.035 C 724.982 147.777 725.71 140.516 727.453 133.453 C 729.343 125.014 731.525 118.736 736.467 112.851 C 744.17 103.432 752.311 104.217 764.519 105.002 L 767.426 91.857 L 724.255 91.857 L 706.815 180.543 L 692.132 180.543 L 709.576 91.857 L 697.657 91.857 L 690.97 122.27 L 676.58 122.857 L 675.563 115.597 C 672.801 114.029 668.15 113.242 665.097 114.029 C 661.028 115.008 660.155 118.344 658.993 123.249 C 657.829 128.156 657.538 133.453 660.3 134.826 C 664.807 137.181 672.655 136.002 677.307 135.611 C 683.412 135.415 687.046 138.553 686.754 146.402 C 686.173 154.447 684.285 161.708 681.666 168.378 C 680.069 172.891 678.179 176.226 675.563 177.601 C 669.312 181.133 657.975 179.954 651.289 179.954 C 647.655 179.954 644.165 179.757 640.823 179.367 C 639.37 179.172 638.06 178.579 636.753 177.404 C 635.59 176.423 634.573 174.852 633.7 172.891 C 631.956 168.574 632.247 166.023 632.974 161.511 L 634.282 153.662 L 651.87 154.054 C 649.981 159.94 649.398 164.259 650.562 166.612 C 653.034 171.515 661.9 169.163 664.807 166.612 L 668.295 151.309 C 669.021 147.777 667.422 146.206 665.097 145.421 C 661.9 144.439 658.266 144.833 655.068 144.833 C 651.579 144.833 646.781 145.618 643.729 142.873 C 638.642 138.357 639.951 126.585 641.839 118.933 C 643.439 112.458 645.474 108.731 650.126 105.982 C 660.008 99.901 675.563 101.472 678.759 109.319 L 681.813 91.071 L 635.59 91.071 L 618.729 180.346 L 604.047 180.346 L 607.973 159.548 C 603.903 165.239 598.088 168.771 592.273 168.771 L 590.674 168.771 C 581.226 168.771 575.124 158.764 577.303 146.599 L 581.082 125.014 C 583.262 112.851 592.71 102.846 602.159 102.846 L 603.756 102.846 C 609.863 102.846 614.658 106.966 616.549 113.242 L 620.763 91.071 L 583.408 91.071 L 584.861 82.244 Z M 423.952 50.258 L 438.634 50.063 C 437.909 52.419 437.18 57.913 438.344 60.071 C 440.523 63.996 448.227 63.798 450.988 59.482 C 452.153 57.715 453.315 52.81 453.752 50.456 L 469.886 50.258 C 468.431 59.873 465.816 67.92 459.128 70.077 C 451.28 72.627 436.163 71.648 428.169 69.683 C 420.32 67.723 422.645 59.089 423.952 50.258 M 462.473 172.694 L 476.281 172.694 L 473.81 189.568 L 460.002 189.568 L 462.473 172.694 Z M 502.883 91.66 L 490.235 91.66 L 482.096 135.218 C 478.753 151.309 485.729 151.896 492.707 143.263 L 502.883 91.66 Z M 411.597 82.244 L 549.103 82.244 L 547.505 91.66 L 518.726 91.66 L 514.655 112.851 C 527.736 102.45 537.038 105.199 540.092 113.242 C 542.27 118.736 540.673 123.837 539.655 129.333 L 531.37 170.927 L 515.671 170.927 L 523.23 130.901 C 526.573 115.008 519.742 114.226 512.764 122.66 L 502.009 179.954 L 485.293 180.74 L 490.671 153.27 C 477.589 163.863 468.286 160.922 465.09 153.074 C 462.908 147.581 464.507 142.479 465.525 136.986 L 474.392 91.857 L 461.891 91.857 L 444.448 180.543 L 429.767 180.543 L 447.211 91.857 L 434.274 91.857 L 416.831 180.543 L 402.15 180.543 L 411.163 134.631 L 398.081 134.631 L 400.406 122.27 L 413.488 122.27 L 419.447 91.66 L 409.564 91.66 L 411.597 82.244 Z M 386.45 128.546 C 395.028 129.528 399.679 139.928 396.625 152.485 L 395.755 155.822 C 392.701 168.966 382.382 179.954 372.787 179.954 L 342.41 179.954 L 344.735 167.986 L 365.957 167.986 C 371.772 167.986 377.731 161.118 379.185 152.485 L 379.476 150.327 C 380.928 141.891 377.293 134.826 371.481 134.826 L 354.328 134.826 L 355.492 128.352 L 386.45 128.546 Z M 386.45 128.546 L 385.579 128.546 L 386.306 128.546 L 386.45 128.546 Z M 386.742 128.546 C 395.32 127.174 402.875 117.559 403.749 105.982 L 404.039 102.846 C 405.057 90.286 398.081 80.082 388.632 80.082 L 361.597 80.082 L 359.416 91.857 L 378.021 91.857 C 383.835 91.857 387.615 98.332 386.45 106.179 L 386.16 108.142 C 384.998 115.989 379.329 122.464 373.515 122.464 L 356.799 122.464 L 355.782 128.352 L 386.742 128.546 Z M 265.951 115.795 C 269.005 116.775 270.894 120.307 270.168 123.641 L 263.918 152.68 C 263.19 156.017 260.137 157.782 257.086 156.803 C 254.034 155.822 252.144 152.288 252.871 148.953 L 259.12 119.915 C 259.846 116.579 262.899 114.812 265.951 115.795 M 242.261 57.323 L 256.068 57.323 L 253.597 74.199 L 239.789 74.199 L 242.261 57.323 Z M 207.084 149.543 C 204.758 154.054 201.414 157.195 198.363 157.195 L 197.635 157.195 C 193.13 157.195 190.803 150.719 192.403 142.873 L 195.165 129.528 L 207.084 149.935 L 207.084 149.543 Z M 206.066 114.42 L 206.792 114.42 C 211.298 114.42 213.624 120.894 212.171 128.742 L 209.99 139.536 L 197.926 120.894 C 200.252 116.973 203.16 114.42 206.066 114.42 M 184.117 82.244 L 209.118 82.244 L 196.911 60.462 L 207.229 49.082 L 221.62 82.244 L 225.398 82.244 L 214.497 42.606 L 228.161 34.172 L 236.008 82.438 L 324.094 82.438 L 322.496 91.857 L 291.68 91.857 L 288.192 111.084 C 302.001 98.922 317.264 102.059 315.81 124.427 C 315.228 132.864 313.047 143.46 310.432 151.111 C 308.25 157.587 305.344 162.295 301.709 165.434 C 295.896 170.339 291.244 168.966 285.43 167.397 C 283.54 167.006 283.395 167.397 284.122 164.847 L 284.994 161.511 C 285.285 160.136 285.285 160.332 286.301 160.332 C 287.757 160.332 289.208 160.136 290.519 159.354 C 292.697 157.979 294.297 152.68 295.459 146.794 C 296.622 141.105 300.546 122.66 298.221 117.167 C 297.203 114.812 294.152 114.42 291.534 116.579 C 289.208 118.539 287.464 121.091 286.158 123.641 L 275.836 180.935 L 261.011 180.935 L 264.789 160.136 C 260.866 165.829 256.068 169.36 250.691 169.36 L 249.091 169.36 C 240.08 169.36 234.265 159.354 236.298 147.188 L 239.935 125.604 C 241.97 113.439 251.126 103.432 260.137 103.432 L 261.739 103.432 C 267.697 103.432 271.186 107.356 273.075 113.634 L 277.436 91.66 L 234.993 91.66 L 218.131 180.935 L 202.869 180.935 L 206.792 160.136 C 202.723 165.829 196.911 169.36 191.095 169.36 L 189.497 169.36 C 180.047 169.36 173.944 159.354 176.124 147.188 L 179.902 125.604 C 182.083 113.439 191.531 103.432 200.979 103.432 L 202.579 103.432 C 208.683 103.432 213.479 107.553 215.37 113.831 L 219.584 91.66 L 182.373 91.66 L 184.117 82.244 Z M 19.141 74.588 C 17.542 86.558 17.542 86.558 16.378 94.211 C 13.471 105.002 9.692 113.634 4.895 123.053 C 4.605 123.249 4.46 123.447 4.168 123.641 C -9.204 144.246 -25.193 156.998 -44.38 166.023 C -48.16 167.2 -48.16 167.2 -48.595 167.593 L -48.595 168.771 C -47.286 170.537 -44.815 170.145 -43.218 170.145 C -41.763 170.733 -41.763 170.733 -39.438 170.927 C -32.461 173.872 -25.775 177.404 -19.379 182.505 C -18.944 183.29 -15.891 186.232 -10.949 192.118 L -6.589 199.182 C -3.536 205.067 -1.356 211.937 0.534 218.805 L 2.278 229.4 C 2.568 233.325 2.568 233.325 2.568 243.527 C 1.987 248.431 1.263 253.338 0.681 258.242 C -0.337 261.184 -0.628 263.345 -2.372 269.232 C -6.151 279.434 -10.368 288.851 -15.891 297.484 C -22.577 306.904 -29.846 315.143 -37.55 322.993 C -38.856 323.776 -40.892 324.758 -41.763 326.327 C -53.684 335.353 -65.456 341.435 -78.393 347.518 C -86.388 349.677 -94.237 351.835 -102.378 353.211 C -117.201 354.385 -117.201 354.385 -121.419 354.976 C -134.501 355.563 -184.939 358.9 -185.81 358.703 C -186.538 357.72 -186.392 355.17 -185.81 354.188 C -172.293 348.89 -158.484 342.809 -144.821 338.297 C -143.657 337.707 -120.692 328.683 -118.366 327.505 C -108.046 324.562 -97.87 319.265 -87.695 315.536 C -85.369 314.359 -73.161 309.847 -61.823 305.333 C -51.794 302.194 -41.183 297.877 -31.443 293.364 C -31.009 292.579 -31.009 291.794 -31.009 290.812 C -31.298 290.617 -31.588 290.225 -31.733 290.028 C -32.607 290.028 -45.689 294.542 -106.737 314.556 C -107.028 314.751 -107.319 314.945 -107.464 315.143 C -118.657 318.087 -129.848 322.403 -141.042 325.935 C -141.913 326.327 -142.785 326.719 -143.513 327.111 C -185.81 340.651 -185.81 340.651 -186.829 341.238 L -187.992 341.238 C -188.862 339.669 -189.443 339.473 -189.153 337.314 C -185.956 334.568 -185.956 334.568 -178.106 328.486 C -176.071 327.308 -156.739 312.396 -154.849 311.218 C -139.442 298.858 -123.454 287.28 -108.046 275.116 C -95.109 265.503 -82.027 255.494 -69.091 245.882 C -68.654 245.489 -68.218 245.097 -67.782 244.508 C -57.898 237.64 -48.305 229.988 -38.565 222.729 C -34.058 220.176 -29.264 216.253 -25.193 212.524 C -24.467 211.153 -25.048 209.386 -26.211 209.19 C -35.659 215.666 -44.961 222.336 -54.265 228.81 C -55.718 229.4 -55.718 229.4 -57.171 230.772 C -83.917 249.217 -83.917 249.217 -86.098 250.394 C -89.151 252.944 -97.144 258.242 -97.87 259.027 C -109.499 266.876 -121.128 275.116 -132.609 283.552 C -133.046 283.751 -133.338 283.751 -133.628 283.948 C -139.879 289.635 -147.437 293.364 -153.833 298.663 C -165.024 306.117 -176.362 313.967 -187.409 321.814 C -188.717 322.207 -197.147 330.25 -196.276 322.403 C -192.351 317.499 -188.427 312.396 -184.502 307.491 C -183.339 305.726 -180.288 301.997 -179.851 301.801 C -175.635 295.524 -170.839 288.262 -165.605 283.552 C -165.315 282.965 -164.879 282.378 -164.59 281.592 C -154.415 268.838 -144.093 255.887 -134.355 242.348 C -105.138 204.677 -75.776 167.006 -46.415 129.922 C -45.544 128.352 -44.671 126.78 -43.363 125.801 C -25.483 102.649 -24.322 100.882 -3.1 73.608 C -1.646 72.232 -1.646 72.232 -1.209 71.058 C -1.209 66.348 -3.245 68.506 -5.136 70.468 C -10.368 77.532 -16.036 83.81 -21.415 90.68 C -23.448 94.604 -27.084 97.349 -29.409 101.079 C -34.495 107.356 -40.456 115.795 -46.27 121.286 C -50.486 126.978 -55.281 132.864 -59.934 137.768 C -76.647 159.548 -95.109 179.172 -111.68 201.145 C -119.819 209.778 -126.941 220.961 -135.228 229.4 C -137.408 232.736 -137.408 232.736 -152.233 251.179 C -152.816 251.767 -153.252 252.161 -153.833 252.552 C -170.403 273.155 -187.263 293.364 -204.125 313.574 C -206.015 313.574 -206.451 312.985 -206.307 310.435 C -186.101 270.8 -165.896 230.969 -145.983 191.139 C -137.844 174.657 -129.848 157.782 -121.273 141.694 C -115.169 129.528 -114.731 128.352 -112.551 124.427 C -96.999 93.23 -80.718 61.837 -65.456 30.247 C -63.567 27.696 -64.148 26.127 -66.619 26.52 C -79.556 51.045 -92.928 75.18 -105.72 100.098 C -107.9 103.824 -111.97 112.065 -155.287 193.884 C -156.303 196.044 -171.856 224.691 -172.874 226.457 C -186.829 252.749 -200.781 279.434 -215.026 305.333 C -215.754 306.117 -216.481 306.904 -217.498 306.117 L -217.498 303.762 C -207.323 268.054 -196.567 232.147 -185.52 197.025 C -169.385 142.283 -153.252 87.147 -136.827 32.405 C -136.827 31.227 -136.827 31.227 -137.408 30.247 C -137.989 30.247 -138.57 30.444 -139.006 31.029 C -151.506 68.899 -164.443 106.769 -177.09 144.638 C -177.67 145.618 -190.898 185.449 -194.676 195.651 C -196.276 200.948 -197.584 204.285 -199.329 209.778 C -210.086 240.388 -220.405 271.584 -230.726 302.586 C -232.033 303.371 -233.197 303.566 -234.504 302.783 C -234.36 300.624 -234.36 300.624 -229.271 275.313 C -228.836 273.94 -227.381 266.287 -226.946 264.717 C -226.509 261.97 -226.075 260.596 -221.131 234.306 C -218.515 221.158 -215.899 208.014 -213.138 195.062 C -212.701 192.316 -187.992 71.648 -187.701 69.88 C -186.829 65.957 -186.101 62.228 -185.23 58.304 C -182.031 41.43 -178.687 25.732 -176.216 12.194 C -175.926 11.215 -175.635 11.017 -175.054 10.429 C -130.866 10.429 -86.532 10.626 -42.199 10.233 C -28.682 11.215 -14.872 14.353 -2.372 22.2 C -1.065 23.575 -1.065 23.575 2.134 25.93 C 4.895 28.676 7.803 31.816 10.418 35.348 C 11.873 38.096 13.18 40.841 14.634 43.588 C 15.506 46.334 16.232 49.279 17.106 52.026 C 17.687 56.146 18.412 60.266 18.993 64.191 C 18.993 67.33 18.993 70.861 19.141 74.588 M 89.928 90.09 C 89.056 98.527 88.039 106.377 86.295 114.42 C 82.66 124.623 82.66 124.623 80.334 130.312 C 76.12 138.947 70.741 146.206 65.071 153.074 C 59.549 158.764 59.549 158.764 53.588 164.453 C 46.467 170.145 38.619 174.657 31.058 179.367 C 28.151 180.543 24.664 181.524 22.047 183.683 C 22.047 184.664 22.047 184.664 22.193 185.056 C 31.931 186.429 40.506 190.941 48.646 198.202 C 52.571 202.714 56.351 207.227 59.695 212.719 C 63.619 220.376 66.669 227.831 68.997 236.462 C 69.578 239.993 70.16 243.33 70.741 246.864 C 71.177 252.357 71.177 257.851 71.177 263.539 C 69.869 279.63 65.509 293.953 59.112 307.686 C 55.043 315.338 55.043 315.338 50.972 322.403 C 43.995 332.214 35.419 343.398 26.116 349.088 C 19.286 355.955 10.129 360.274 2.278 364.59 C -2.664 366.552 -7.751 368.709 -12.692 370.867 C -23.886 373.613 -23.886 373.613 -25.048 374.203 C -33.623 375.38 -33.623 375.38 -35.95 375.968 C -85.661 378.714 -135.953 377.538 -185.666 377.538 C -186.247 376.164 -186.538 374.203 -185.23 373.417 C -161.391 372.046 -137.408 370.475 -113.569 369.493 C -108.919 369.493 -103.83 369.691 -99.325 368.709 C -83.336 367.926 -67.782 366.943 -51.938 363.607 C -50.922 363.018 -46.705 361.841 -40.456 359.684 C -9.495 346.143 18.704 319.656 31.786 278.06 C 32.657 274.331 32.657 274.331 33.53 272.173 L 35.711 258.048 C 35.856 246.471 35.856 246.471 35.711 241.956 C 34.548 230.772 31.495 219.589 26.698 210.366 C 24.517 207.227 22.482 203.891 20.303 200.754 C 10.129 189.961 0.099 182.701 -12.982 181.328 C -12.982 179.954 -12.692 179.757 -11.82 179.172 C -8.622 177.991 -8.622 177.991 -4.117 175.833 C 16.524 163.668 34.983 147.383 46.613 120.7 C 47.774 117.167 48.938 113.439 50.101 109.711 C 52.135 100.686 53.298 91.66 53.879 82.244 C 53.588 78.122 53.444 74.002 53.298 69.88 C 52.717 67.33 52.135 64.583 51.555 61.837 C 49.084 53.79 46.467 48.887 41.961 42.803 C 34.837 35.151 26.845 29.461 17.831 26.714 C 17.831 26.52 17.831 26.127 17.976 25.93 C 22.629 24.753 28.297 25.93 32.949 26.321 C 35.128 26.91 35.128 26.91 42.978 28.087 C 45.594 28.873 48.211 29.658 50.972 30.444 C 59.403 33.582 67.834 37.506 74.956 44.374 C 76.991 46.924 79.173 49.476 81.207 52.026 C 82.95 55.752 84.695 59.284 86.439 62.816 C 87.311 66.348 88.183 69.683 89.056 73.217 C 89.202 78.317 89.783 84.205 89.928 90.09" fillRule="evenodd" style=""/>
  </g>
</svg>