<?xml version="1.0" encoding="UTF-8"?>
<svg version="1.1" className='fill-current' xmlns="http://www.w3.org/2000/svg" width="202" height="54">
<path d="M0 0 C5.03939796 3.64260831 8.04348929 8.25873295 11.15625 13.55859375 C11.64931641 12.58019531 11.64931641 12.58019531 12.15234375 11.58203125 C16.23442294 4.08162559 20.9439866 -0.70398512 29.15625 -3.44140625 C39.22057727 -4.22148753 46.07078571 -3.69900426 53.84375 2.80859375 C56.67976093 6.18114729 58.94019363 9.75829282 61.15625 13.55859375 C61.55714844 12.90632813 61.95804687 12.2540625 62.37109375 11.58203125 C67.00479156 4.45811489 71.95107132 -0.70634669 80.15625 -3.44140625 C95.76145581 -4.65095842 95.76145581 -4.65095842 102.15625 0.55859375 C105.91524433 4.27731314 109.22342645 8.15935842 112.15625 12.55859375 C112.64931641 11.68847656 112.64931641 11.68847656 113.15234375 10.80078125 C117.36856602 3.87657883 122.36275879 -0.84357585 130.15625 -3.44140625 C138.89047313 -4.29890361 145.9459698 -3.70364583 153.15625 1.55859375 C158.36407475 6.35985969 161.79860854 10.8449446 162.4921875 18.046875 C162.58233886 26.87269356 162.38633285 33.14699615 156.0625 39.7421875 C148.60065089 46.71901642 142.99826722 48.15141348 132.82421875 47.86328125 C125.71292625 47.27256686 122.02093915 44.74323331 117.28125 39.55859375 C115.14772707 37.01821296 113.54254981 34.57345935 112.15625 31.55859375 C111.74375 32.13867188 111.33125 32.71875 110.90625 33.31640625 C106.3728622 39.44862278 101.57740561 45.08487521 94.15625 47.55859375 C77.49306452 48.76435213 77.49306452 48.76435213 71.15625 43.55859375 C67.09929075 39.61684226 63.98839672 35.44893718 61.15625 30.55859375 C60.82753906 31.21085937 60.49882813 31.863125 60.16015625 32.53515625 C56.07807706 40.03556191 51.3685134 44.82117262 43.15625 47.55859375 C34.2216604 48.37188539 26.45393644 48.20715888 19.15625 42.55859375 C15.67307934 38.91593725 12.75934595 35.3678816 11.15625 30.55859375 C10.62837891 31.42871094 10.62837891 31.42871094 10.08984375 32.31640625 C5.7272198 39.21914806 1.18161606 45.03208962 -6.84375 47.55859375 C-13.88617602 48.23681171 -21.82415987 48.85191484 -28.06640625 45.02734375 C-34.21940768 39.94266564 -39.27095425 34.49669607 -40.21484375 26.359375 C-40.38666411 17.3337525 -39.34404107 10.5933612 -33.19921875 3.71875 C-23.78561855 -4.97236169 -11.21995823 -6.42961892 0 0 Z " fill="#E5BA5F" transform="translate(39.84375,5.44140625)"/>
<path d="M0 0 C0 3.63 0 7.26 0 11 C0.99 10.34 1.98 9.68 3 9 C8.5790188 8.30765423 13.47952476 8.25309988 18.5625 10.75 C23.27979643 15.10442747 24.59581199 17.99746047 25.4375 24.25 C24.72842896 30.32775179 21.21611262 34.08336206 16.6875 38 C12.66980674 39.49495563 9.21956815 39.86357218 5 39 C-0.48670465 36.23287513 -3.91524039 32.82972292 -6 27 C-6.35511947 22.70067699 -6.28236029 18.43506257 -6.1875 14.125 C-6.17396484 12.9596875 -6.16042969 11.794375 -6.14648438 10.59375 C-6.11125821 7.72868882 -6.06199715 4.86458623 -6 2 C-2.25 0 -2.25 0 0 0 Z " fill="#FAF5ED" transform="translate(16,4)"/>
<path d="M0 0 C5.67507225 2.00296668 9.30675089 5.61350179 12 11 C12.86110685 16.2538418 12.43792386 20.05389269 9.3125 24.4375 C6.76014288 27.41623696 4.96317639 29.27942247 1 30 C-8.04069767 30.63953488 -8.04069767 30.63953488 -12 28 C-12.33 31.3 -12.66 34.6 -13 38 C-15.91517292 36.92598892 -17.77810176 36.22189824 -20 34 C-20.30334626 30.60973092 -19.99386349 27.2079001 -19.8125 23.8125 C-19.78091797 22.87857422 -19.74933594 21.94464844 -19.71679688 20.98242188 C-19.41047167 14.67389846 -18.80165909 9.17949098 -14.46484375 4.2578125 C-9.43853914 0.52986279 -6.29241817 -0.63512258 0 0 Z " fill="#FCFAF2" transform="translate(79,13)"/>
<path d="M0 0 C5.67507225 2.00296668 9.30675089 5.61350179 12 11 C12.61143762 16.91056366 11.91805264 20.4158042 8.47265625 25.30078125 C5.58815131 28.62905618 2.85448014 29.82324486 -1.5 30.23828125 C-8.35846999 30.42768667 -8.35846999 30.42768667 -12 28 C-12.33 31.3 -12.66 34.6 -13 38 C-17 37 -17 37 -19 36 C-19.11728126 32.33360752 -19.18760891 28.6677048 -19.25 25 C-19.30027344 23.45505859 -19.30027344 23.45505859 -19.3515625 21.87890625 C-19.43437776 15.37790803 -18.8554204 10.37897388 -15 5 C-10.1598637 0.50558772 -6.57640416 -0.66378659 0 0 Z " fill="#FBF7F0" transform="translate(180,13)"/>
<path d="M0 0 C1.28132812 0.00902344 2.56265625 0.01804688 3.8828125 0.02734375 C4.87023437 0.03894531 5.85765625 0.05054687 6.875 0.0625 C6.875 0.3925 6.875 0.7225 6.875 1.0625 C3.575 1.0625 0.275 1.0625 -3.125 1.0625 C-3.125 5.6825 -3.125 10.3025 -3.125 15.0625 C-0.485 15.0625 2.155 15.0625 4.875 15.0625 C4.875 17.0425 4.875 19.0225 4.875 21.0625 C2.235 21.0625 -0.405 21.0625 -3.125 21.0625 C-3.00786074 25.95040166 -2.85871871 29.13569741 0.25 33.0625 C2.77243854 35.20798256 2.77243854 35.20798256 5.875 36.0625 C5.875 37.7125 5.875 39.3625 5.875 41.0625 C2.79622867 41.5130519 0.66489302 41.56292912 -2.01171875 39.8671875 C-5.20278759 37.20461853 -7.58188391 34.97818787 -9.125 31.0625 C-9.35205078 27.85449219 -9.35205078 27.85449219 -9.3203125 24.109375 C-9.3174826 23.44915344 -9.31465271 22.78893188 -9.31173706 22.10870361 C-9.30058415 20.00978103 -9.27548946 17.91129258 -9.25 15.8125 C-9.23996384 14.38542285 -9.2308391 12.95833898 -9.22265625 11.53125 C-9.20066111 8.04152672 -9.16616536 4.55205577 -9.125 1.0625 C-6.12186252 -0.43906874 -3.33432478 -0.03031204 0 0 Z " fill="#FDF9F0" transform="translate(127.125,1.9375)"/>
<path d="M0 0 C3.70718433 0.81785983 5.13329673 2.33819937 7.16015625 5.4765625 C7.79480821 8.28716402 7.79055099 10.66534271 7.16015625 13.4765625 C5.36651714 16.2865971 4.1413469 17.98596718 1.16015625 19.4765625 C-3.02128386 19.87103798 -5.14930423 19.92691436 -8.71484375 17.6015625 C-11.62695033 14.68945592 -11.8005268 13.8762848 -12.21484375 9.6640625 C-12.14775486 6.31571686 -11.81923122 5.44464632 -9.90234375 2.4765625 C-6.33149918 0.14458237 -4.19478356 -0.26611315 0 0 Z " fill="#DBA644" transform="translate(178.83984375,18.5234375)"/>
<path d="M0 0 C3.70718433 0.81785983 5.13329673 2.33819937 7.16015625 5.4765625 C7.79480821 8.28716402 7.79055099 10.66534271 7.16015625 13.4765625 C5.36651714 16.2865971 4.1413469 17.98596718 1.16015625 19.4765625 C-3.02128386 19.87103798 -5.14930423 19.92691436 -8.71484375 17.6015625 C-11.62695033 14.68945592 -11.8005268 13.8762848 -12.21484375 9.6640625 C-12.14775486 6.31571686 -11.81923122 5.44464632 -9.90234375 2.4765625 C-6.33149918 0.14458237 -4.19478356 -0.26611315 0 0 Z " fill="#EECB71" transform="translate(77.83984375,18.5234375)"/>
<path d="M0 0 C3.9295493 0.92685276 5.41241975 2.29808529 8.00390625 5.47265625 C8.80273521 8.65073116 8.75254633 11.28805653 8.00390625 14.47265625 C6.06640625 17.53515625 6.06640625 17.53515625 3.00390625 19.47265625 C-1.74667698 20.51211479 -4.93750882 20.14237325 -9.05859375 17.53515625 C-11.66285898 13.41873702 -12.04313378 10.21866555 -10.99609375 5.47265625 C-8.10250338 1.041846 -5.38309693 -0.3983696 0 0 Z " fill="#CE993C" transform="translate(26.99609375,17.52734375)"/>
<path d="M0 0 C0.00410889 0.68513672 0.00821777 1.37027344 0.01245117 2.07617188 C0.04560147 5.21828989 0.11626885 8.35852372 0.1875 11.5 C0.19330078 12.57765625 0.19910156 13.6553125 0.20507812 14.765625 C0.39573569 21.71403393 1.24437496 26.73812024 6 32 C9.73928462 35.07479139 12.54241032 35.3447557 17.3125 35.1875 C18.38113281 35.16042969 19.44976563 35.13335937 20.55078125 35.10546875 C21.76314453 35.05326172 21.76314453 35.05326172 23 35 C20.43599223 37.56400777 19.31217985 37.32633634 15.75 37.375 C10.68089494 37.27560578 7.8575859 36.48123606 4 33 C0.27427651 28.87149559 -1.07087268 25.83899857 -1.31640625 20.33203125 C-1.35830078 19.43935547 -1.40019531 18.54667969 -1.44335938 17.62695312 C-1.48267578 16.69818359 -1.52199219 15.76941406 -1.5625 14.8125 C-1.60568359 13.87212891 -1.64886719 12.93175781 -1.69335938 11.96289062 C-1.79938665 9.64207146 -1.90145029 7.32114675 -2 5 C-2.99 6.485 -2.99 6.485 -4 8 C-4.66 8 -5.32 8 -6 8 C-7.28134207 14.65551466 -8.33644956 21.25390382 -9 28 C-9.33 28 -9.66 28 -10 28 C-10.69431346 17.29214355 -9.86221327 9.67258215 -2.75 1.375 C-1 0 -1 0 0 0 Z " fill="#C18627" transform="translate(10,7)"/>
<path d="M0 0 C0.99 0.495 0.99 0.495 2 1 C1.67 3.64 1.34 6.28 1 9 C1.57105469 8.84144531 2.14210938 8.68289063 2.73046875 8.51953125 C7.9260005 7.33019266 13.02427615 7.12827691 17.8125 9.6875 C21.88796405 12.64420921 24.40028155 15.20084466 26 20 C26.06740865 21.56118428 26.08514456 23.1250252 26.0625 24.6875 C26.05347656 25.49574219 26.04445313 26.30398437 26.03515625 27.13671875 C26.02355469 27.75160156 26.01195313 28.36648437 26 29 C25.67 29 25.34 29 25 29 C24.90203125 28.26394531 24.8040625 27.52789063 24.703125 26.76953125 C23.59126289 19.08147808 23.59126289 19.08147808 19 13 C15.61850779 10.86114969 12.89740376 10.75852362 8.9375 10.8125 C7.37322266 10.82216797 7.37322266 10.82216797 5.77734375 10.83203125 C2.91385392 10.88517035 2.91385392 10.88517035 0 12 C0 8.04 0 4.08 0 0 Z " fill="#D3A145" transform="translate(16,3)"/>
<path d="M0 0 C1.98 0.99 1.98 0.99 4 2 C6.0742625 2.28480806 8.16071439 2.48874224 10.25 2.625 C11.32765625 2.69976562 12.4053125 2.77453125 13.515625 2.8515625 C14.33546875 2.90054688 15.1553125 2.94953125 16 3 C14 5 14 5 10.125 5.1875 C7.28539226 5.120382 4.71483095 4.90494365 2 4 C2 6.31 2 8.62 2 11 C1.34 11 0.68 11 0 11 C0 7.37 0 3.74 0 0 Z " fill="#DDA743" transform="translate(167,40)"/>
<path d="M0 0 C0.99 0.495 0.99 0.495 2 1 C2 2.65 2 4.3 2 6 C1.34 6 0.68 6 0 6 C0 4.02 0 2.04 0 0 Z M-8 6 C-5.36 6 -2.72 6 0 6 C0 6.66 0 7.32 0 8 C-1.423125 8.12375 -1.423125 8.12375 -2.875 8.25 C-6.10461791 8.65074923 -6.10461791 8.65074923 -7.375 11.0625 C-7.58125 11.701875 -7.7875 12.34125 -8 13 C-8 10.69 -8 8.38 -8 6 Z " fill="#F1CC6D" transform="translate(132,17)"/>
<path d="M0 0 C0.66 0.33 1.32 0.66 2 1 C1.04882866 2.1725131 0.08882991 3.33787015 -0.875 4.5 C-1.40867187 5.1496875 -1.94234375 5.799375 -2.4921875 6.46875 C-2.98976563 6.9740625 -3.48734375 7.479375 -4 8 C-4.66 8 -5.32 8 -6 8 C-6.33 9.32 -6.66 10.64 -7 12 C-7.66 12 -8.32 12 -9 12 C-7.60090738 7.54834166 -5.39864635 5.14374788 -2 2 C-1.34 1.34 -0.68 0.68 0 0 Z " fill="#E6C272" transform="translate(62,5)"/>
<path d="M0 0 C0.66 0.33 1.32 0.66 2 1 C0.8553125 2.3303125 0.8553125 2.3303125 -0.3125 3.6875 C-1.99533294 5.69358898 -3.32981982 7.54969971 -4.6875 9.8125 C-6 12 -6 12 -8 13 C-6.63589551 7.40717158 -3.84616474 4.08806189 0 0 Z " fill="#EEDA84" transform="translate(110,7)"/>
<path d="M0 0 C0.33 0.66 0.66 1.32 1 2 C-0.98 4.64 -2.96 7.28 -5 10 C-5.66 9.67 -6.32 9.34 -7 9 C-4.69 6.03 -2.38 3.06 0 0 Z " fill="#E6D581" transform="translate(98,38)"/>
<path d="M0 0 C0.99 0.495 0.99 0.495 2 1 C1.67 3.64 1.34 6.28 1 9 C2.98 9.495 2.98 9.495 5 10 C3.35 10.66 1.7 11.32 0 12 C0 8.04 0 4.08 0 0 Z " fill="#C3851F" transform="translate(16,3)"/>
</svg>
