<?xml version="1.0" encoding="UTF-8"?>
<svg version="1.1" xmlns="http://www.w3.org/2000/svg" width="320" height="160">
<path d="M0 0 C8.90951131 0.39597828 16.4478669 4.91602998 22.4375 11.375 C29.82841217 20.39826087 33.11692991 30.33428757 32 42 C29.940401 53.11145009 24.22850657 62.46531362 15 69 C10.02578353 72.11958509 5.86862929 73.28139233 0 74 C-0.67117267 70.56336386 -1.33616071 67.12555959 -2 63.6875 C-2.19078125 62.71103516 -2.3815625 61.73457031 -2.578125 60.72851562 C-2.75859375 59.79072266 -2.9390625 58.85292969 -3.125 57.88671875 C-3.29257812 57.02264404 -3.46015625 56.15856934 -3.6328125 55.26831055 C-4 53 -4 53 -4 50 C1.75 47 1.75 47 4 47 C6.07601107 42.43277564 7.79850046 37.89057166 6.4140625 32.87890625 C4.73151055 28.96014209 3.22932478 26.7146684 -0.75 25 C-1.8225 24.67 -2.895 24.34 -4 24 C-2.90863407 15.94246854 -1.72168056 7.9490358 0 0 Z " fill="#F65D33" transform="translate(43,43)"/>
<path d="M0 0 C2.02214499 7.99955473 3.52087184 15.75569133 4 24 C3.071875 24.433125 2.14375 24.86625 1.1875 25.3125 C-2.88042321 27.46610641 -4.54464728 28.63394185 -6 33 C-6.38438818 37.68953585 -6.45895659 40.06443464 -4.375 44.3125 C-1.79722591 47.22945489 0.42143443 48.53604136 4 50 C3.52087184 58.24430867 2.02214499 66.00044527 0 74 C-10.41218831 72.3472717 -18.16414673 67.39541595 -24.5625 58.93359375 C-31.09791799 49.64890137 -32.0958101 40.12905857 -31 29 C-28.99636814 19.26978779 -23.68084667 11.32183982 -15.5625 5.625 C-10.75531822 2.66673429 -5.7489087 0 0 0 Z " fill="#F65D33" transform="translate(31,43)"/>
<path d="M0 0 C3.320625 -0.0825 6.64125 -0.165 10.0625 -0.25 C11.09511963 -0.28641602 12.12773926 -0.32283203 13.19165039 -0.36035156 C19.38317734 -0.4344086 22.95002279 0.36907971 28 4 C31.70623647 7.70623647 32.82969474 11.02620263 34 16 C34.48210937 15.57847656 34.96421875 15.15695313 35.4609375 14.72265625 C36.09257812 14.17480469 36.72421875 13.62695312 37.375 13.0625 C38.00148437 12.51722656 38.62796875 11.97195312 39.2734375 11.41015625 C42.84306093 8.49469458 45.98480366 8.66457537 50.45703125 8.72265625 C54.23091373 9.13424712 56.24007187 10.44201783 59 13 C62.50758666 18.14446043 62 20.19838884 62 27 C53.585 27.495 53.585 27.495 45 28 C48.89297841 29.27647243 48.89297841 29.27647243 52.4375 28.3125 C56 28 56 28 58.9375 29.9375 C59.618125 30.618125 60.29875 31.29875 61 32 C58.14971202 35.16698665 56.40318895 36.7680521 52.140625 37.47265625 C47.42295402 37.6076145 43.8644227 37.37046687 39.5 35.5 C36.35298686 32.35298686 34.68445295 29.08232126 33 25 C32.443125 26.0725 31.88625 27.145 31.3125 28.25 C28.59041382 32.94488732 25.82381731 35.31176705 20.6875 37.25 C13.87380064 38.3401919 6.90036357 38 0 38 C0 25.46 0 12.92 0 0 Z M9 9 C9 15.27 9 21.54 9 28 C15.78999601 28.49774402 15.78999601 28.49774402 22.0625 26.4375 C24.64151473 23.19293308 25 21.12989976 25 17 C23.68446467 13.6798394 22.5194066 11.5194066 20 9 C17.33050591 8.75684344 17.33050591 8.75684344 14.375 8.875 C12.60125 8.91625 10.8275 8.9575 9 9 Z M45 17 C44.01 18.485 44.01 18.485 43 20 C46.3 20 49.6 20 53 20 C52.34 19.01 51.68 18.02 51 17 C48 16.5 48 16.5 45 17 Z " fill="#23272B" transform="translate(174,62)"/>
<path d="M0 0 C3.12627917 1.17352822 5.70584176 2.55117941 8 5 C8.703125 7.171875 8.703125 7.171875 9 9 C6.69 10.32 4.38 11.64 2 13 C1.154375 12.319375 0.30875 11.63875 -0.5625 10.9375 C-3.87791305 8.68704314 -3.87791305 8.68704314 -7.6875 9.0625 C-10.86505845 9.961809 -12.11361688 10.38002344 -14 13 C-15.78835724 16.57671447 -15.43384457 20.54070464 -14.3125 24.3125 C-12.44862801 26.70890685 -10.93374059 27.26656485 -8 28 C-3.56994981 27.72312186 -0.656699 26.47364932 3 24 C6.465 25.98 6.465 25.98 10 28 C9.95359375 27.34773438 9.9071875 26.69546875 9.859375 26.0234375 C9.56480296 18.89058585 10.85979903 15.48911219 15.6875 10.125 C19.35180619 8.34236456 23.00110333 8.80115983 27 9 C27.99 9 28.98 9 30 9 C32.97 9 35.94 9 39 9 C39 18.57 39 28.14 39 38 C36.03 38 33.06 38 30 38 C30 37.34 30 36.68 30 36 C28.824375 36.391875 27.64875 36.78375 26.4375 37.1875 C21.80298822 38.34407728 19.17007694 37.40581362 15 35 C12.5625 32.9375 12.5625 32.9375 11 31 C11 30.34 11 29.68 11 29 C10.34 29 9.68 29 9 29 C8.7215625 29.86625 8.7215625 29.86625 8.4375 30.75 C5.67062479 35.0807612 1.34368762 36.65797043 -3.4375 37.875 C-11.34057794 38.15230098 -15.56578224 36.06419702 -21.3359375 30.94921875 C-25.30526246 26.2997043 -25.38376563 21.51606462 -25.2421875 15.6484375 C-24.7401076 10.15795089 -22.43309054 7.21693831 -18.4375 3.6875 C-12.75049725 -0.97217322 -7.2059646 -0.75587041 0 0 Z M20.3125 18.25 C18.80470036 20.26039952 18.2277312 21.49495679 18 24 C18.34893166 26.28164024 18.34893166 26.28164024 20 28 C24.5738263 29.30587913 24.5738263 29.30587913 28.9375 27.9375 C30.49286352 25.10124887 30.46333792 23.17717433 30 20 C28.34626504 18.00966359 28.34626504 18.00966359 26 17 C22.1856986 16.60318163 22.1856986 16.60318163 20.3125 18.25 Z " fill="#23272B" transform="translate(116,62)"/>
<path d="M0 0 C2.64 0 5.28 0 8 0 C8.33 3.3 8.66 6.6 9 10 C9.66 9.67 10.32 9.34 11 9 C18.10679612 8.30097087 18.10679612 8.30097087 21.875 11.25 C23.6001056 13.4824896 24.94127503 15.40131144 26 18 C26.53625 17.071875 27.0725 16.14375 27.625 15.1875 C30.29745671 11.60078178 31.79085151 10.42952213 36 9 C40.7867497 8.30390175 44.03967008 8.50205115 48.375 10.75 C53.02200761 14.73314938 54.63444744 17.50204385 55.12890625 23.6171875 C54.8531735 28.71406563 52.5399826 32.50668354 48.9375 36 C42.99468497 38.02308597 37.16544788 38.04405523 31.5 35.3125 C29.03001209 33.02776118 27.49925725 30.9985145 26 28 C25.67 31.3 25.34 34.6 25 38 C18.84765625 38.09765625 18.84765625 38.09765625 17 38 C15.45049732 36.45049732 15.78344807 34.90009406 15.68359375 32.74609375 C15.64169922 31.89208984 15.59980469 31.03808594 15.55664062 30.15820312 C15.49766602 28.81145508 15.49766602 28.81145508 15.4375 27.4375 C15.39431641 26.53580078 15.35113281 25.63410156 15.30664062 24.70507812 C15.20021858 22.47021515 15.09820012 20.23523692 15 18 C13.33388095 17.957279 11.66617115 17.95936168 10 18 C8.45049732 19.54950268 8.78344807 21.09990594 8.68359375 23.25390625 C8.64169922 24.10791016 8.59980469 24.96191406 8.55664062 25.84179688 C8.51732422 26.73962891 8.47800781 27.63746094 8.4375 28.5625 C8.39431641 29.46419922 8.35113281 30.36589844 8.30664062 31.29492188 C8.20021858 33.52978485 8.09820012 35.76476308 8 38 C5.36 38 2.72 38 0 38 C0 25.46 0 12.92 0 0 Z M36.8125 18.125 C34.7115344 19.93320773 34.7115344 19.93320773 34.5625 23 C34.80016145 25.93252851 34.80016145 25.93252851 36.125 27.9375 C38.95194391 29.53943488 40.94926777 28.79584319 44 28 C45.38142556 26.83622098 45.38142556 26.83622098 45.25 23.625 C45.31281544 20.11227898 45.31281544 20.11227898 43.6875 18.0625 C41.07581803 16.41810765 39.48358356 16.75129988 36.8125 18.125 Z " fill="#23272B" transform="translate(264,62)"/>
<path d="M0 0 C2.97 0 5.94 0 9 0 C9.33 5.28 9.66 10.56 10 16 C10.61875 14.845 11.2375 13.69 11.875 12.5 C13.66745324 9.91782824 14.42009643 9.10535653 17.55859375 8.53515625 C20.07095451 8.56010168 22.50686842 8.69501497 25 9 C24.2302804 10.3964478 23.45916631 11.79212699 22.6875 13.1875 C22.25824219 13.96480469 21.82898438 14.74210937 21.38671875 15.54296875 C19.96813038 18.05646758 18.49517348 20.53142913 17 23 C17.5775 23.83144531 18.155 24.66289063 18.75 25.51953125 C19.4925 26.60621094 20.235 27.69289063 21 28.8125 C21.7425 29.89144531 22.485 30.97039062 23.25 32.08203125 C25 35 25 35 25 38 C21.86777159 38.50115655 19.11209905 38.68820402 16 38 C13.44649143 35.64767696 11.71118512 33.00631739 10 30 C9.67 32.64 9.34 35.28 9 38 C6.03 38 3.06 38 0 38 C0 25.46 0 12.92 0 0 Z " fill="#23272B" transform="translate(237,62)"/>
<path d="M0 0 C2.97 0 5.94 0 9 0 C9 0.66 9 1.32 9 2 C9.99 1.34 10.98 0.68 12 0 C13.65 0 15.3 0 17 0 C17 3.3 17 6.6 17 10 C14.69 10.66 12.38 11.32 10 12 C9.67 17.61 9.34 23.22 9 29 C6.03 29 3.06 29 0 29 C0 19.43 0 9.86 0 0 Z " fill="#23272B" transform="translate(156,71)"/>
</svg>
