<?xml version="1.0" encoding="utf-8"?>
<svg version="1.1" width="368" height="137" xmlns="http://www.w3.org/2000/svg">
  <defs/>
  <path d="M 265.134 55.501 C 265.134 58.924 265.134 62.348 265.134 65.874 C 276.864 65.874 288.598 65.874 300.683 65.874 C 300.683 76.785 300.683 87.7 300.683 98.943 C 286.273 104.128 286.273 104.128 284.351 104.128 C 284.351 94.073 284.351 84.017 284.351 73.655 C 278.009 73.655 271.668 73.655 265.134 73.655 C 265.134 81.999 265.134 90.343 265.134 98.943 C 251.682 103.48 251.682 103.48 249.762 103.48 C 249.762 93.638 249.762 83.794 249.762 73.655 C 238.591 74.235 238.591 74.235 229.703 77.991 C 227.257 81.382 226.559 84.971 226.742 88.712 C 227.174 97.672 227.174 97.672 224.538 100.006 C 220.071 102.468 215.077 103.48 209.406 103.48 C 209.406 91.071 209.406 78.661 209.406 65.874 C 214.162 65.874 218.918 65.874 223.819 65.874 C 224.138 68.012 224.453 70.154 224.78 72.358 C 225.296 71.77 225.813 71.181 226.34 70.574 C 228.334 68.3 230.964 67.113 234.388 65.874 C 237.095 65.583 239.701 65.625 242.435 65.712 C 243.494 65.729 243.494 65.729 244.577 65.749 C 246.306 65.779 248.033 65.825 249.762 65.874 C 249.762 63.307 249.762 60.74 249.762 58.094 C 251.6 57.656 253.444 57.226 255.288 56.797 C 256.31 56.556 257.336 56.316 258.394 56.067 C 261.29 55.501 261.29 55.501 265.134 55.501 Z" fill="#06AA53" style=""/>
  <path d="M 196.13 69.477 C 201.304 72.254 204.271 75.284 206.523 79.49 C 207.506 85.344 207.321 91.194 202.681 96.348 C 200.337 98.214 200.337 98.214 197.878 99.588 C 196.867 100.25 196.867 100.25 195.832 100.926 C 186.96 104.964 177.502 105.456 167.129 104.776 C 158.42 103.612 151.377 100.417 146.352 95.454 C 142.221 90.14 141.784 84.451 143.883 78.649 C 146.718 73.451 151.329 69.806 158.509 67.079 C 170.686 63.501 185.204 64.499 196.13 69.477 Z" fill="#04A952" style=""/>
  <path d="M 71.708 36.696 C 75.003 38.721 77.08 40.85 79.297 43.453 C 79.64 43.851 79.984 44.251 80.337 44.663 C 81.432 45.935 82.514 47.213 83.598 48.49 C 85.024 50.162 86.454 51.832 87.885 53.502 C 88.226 53.905 88.569 54.307 88.921 54.721 C 90.902 57.031 93.026 59.209 95.348 61.368 C 97.15 63.166 97.64 63.717 97.739 65.946 C 96.472 68.207 94.994 70.345 93.324 72.478 C 92.837 73.147 92.837 73.147 92.336 73.83 C 90.461 76.38 88.451 78.812 86.2 81.222 C 82.227 85.6 82.227 85.6 80.353 90.512 C 81.941 94.407 85.783 97.524 89.708 100.495 C 90.925 101.535 90.925 101.535 91.885 103.48 C 82.054 103.48 72.228 103.48 62.099 103.48 C 59.662 94.432 60.011 86.215 61.354 77.164 C 61.563 75.778 61.759 74.389 61.951 73.001 C 62.912 66.269 62.912 66.269 64.02 63.281 C 66.875 63.281 69.728 63.281 72.669 63.281 C 72.6 62.834 72.53 62.385 72.459 61.926 C 71.698 56.477 71.594 51.083 71.646 45.61 C 71.652 44.742 71.656 43.87 71.662 43 C 71.672 40.899 71.686 38.798 71.708 36.696 Z" fill="#03A951" style=""/>
  <path d="M 45.585 37.779 C 45.89 37.789 46.191 37.8 46.505 37.811 C 46.624 46.578 46.292 55.271 45.585 63.998 C 48.313 64.091 51.047 64.184 53.86 64.281 C 55.398 72.598 56.796 80.912 57.423 89.258 C 57.478 89.862 57.534 90.467 57.592 91.09 C 57.899 96.011 56.622 98.897 54.779 103.955 C 45.674 103.643 36.572 103.331 27.193 103.01 C 29.249 99.5 29.249 99.5 31.055 97.785 C 31.611 97.235 31.611 97.235 32.18 96.676 C 32.958 95.919 33.742 95.169 34.535 94.42 C 36.773 92.269 36.773 92.269 37.083 89.662 C 36.363 87.916 35.441 86.403 34.279 84.765 C 33.855 84.16 33.429 83.557 32.988 82.935 C 32.31 81.987 32.31 81.987 31.619 81.022 C 31.159 80.374 30.707 79.731 30.236 79.064 C 27.492 75.2 24.662 71.39 21.518 67.663 C 20.562 66.009 20.908 65.432 21.674 63.817 C 22.502 62.732 22.502 62.732 23.526 61.63 C 23.911 61.207 24.3 60.783 24.7 60.348 C 25.124 59.893 25.546 59.439 25.986 58.968 C 26.897 57.979 27.806 56.987 28.719 55.996 C 29.21 55.461 29.703 54.929 30.205 54.381 C 33.682 50.589 37.094 46.766 40.518 42.95 C 41.044 42.365 41.572 41.778 42.115 41.174 C 42.584 40.653 43.055 40.128 43.539 39.588 C 44.663 38.387 44.663 38.387 45.585 37.779 Z" fill="#03A951" style="transform-box: fill-box; transform-origin: 50% 50%;" transform="matrix(0.99956, -0.029667, 0.029666, 0.99956, 0, 0)"/>
  <path d="M 106.702 51.61 C 120.019 51.61 133.334 51.61 147.056 51.61 C 147.056 54.179 147.056 56.746 147.056 59.39 C 139.128 59.39 131.202 59.39 123.035 59.39 C 123.035 62.385 123.035 65.382 123.035 68.466 C 129.058 68.466 135.083 68.466 141.29 68.466 C 141.29 71.035 141.29 73.602 141.29 76.249 C 135.268 76.249 129.242 76.249 123.035 76.249 C 123.035 83.738 123.035 91.225 123.035 98.943 C 111.504 102.831 111.504 102.831 106.702 103.48 C 106.702 86.363 106.702 69.245 106.702 51.61 Z" fill="#02A950" style=""/>
  <path d="M 337.819 66.391 C 337.583 68.608 337.35 70.825 337.11 73.11 C 336.346 73.006 335.583 72.908 334.797 72.803 C 332.191 72.537 329.596 72.382 326.97 72.307 C 325.907 72.273 325.907 72.273 324.825 72.236 C 322.801 72.382 322.801 72.382 321.156 73.54 C 319.817 74.888 319.817 74.888 320.211 76.62 C 320.386 77.073 320.563 77.526 320.745 77.994 C 321.467 78.192 322.187 78.391 322.931 78.596 C 323.892 78.865 324.852 79.135 325.814 79.404 C 326.525 79.6 326.525 79.6 327.246 79.799 C 332.028 81.148 335.857 82.611 339.242 85.931 C 340.433 88.995 340.689 92.207 339.335 95.268 C 336.777 99.103 333.643 100.628 328.809 101.859 C 325.616 102.516 322.551 102.597 319.278 102.571 C 318.464 102.579 318.464 102.579 317.631 102.584 C 314.139 102.572 311.252 102.147 307.94 101.195 C 307.94 98.778 307.94 96.359 307.94 93.869 C 311.935 94.428 311.935 94.428 313.862 94.797 C 315.961 95.121 317.948 95.215 320.077 95.242 C 321.17 95.267 321.17 95.267 322.283 95.289 C 324.578 95.062 325.541 94.668 327.148 93.258 C 327.385 91.35 327.385 91.35 327.148 89.595 C 324.104 88.408 321.107 87.483 317.899 86.657 C 313.385 85.385 310.163 83.744 307.628 80.245 C 306.901 77.26 306.401 74.591 307.984 71.755 C 314.712 63.343 327.504 64.213 337.819 66.391 Z" fill="#07AA53" style=""/>
  <path d="M 180.582 73.007 C 184.45 74.081 186.638 75.666 189.168 77.871 C 191.342 82.705 191.267 87.584 188.148 92.214 C 186.545 94.065 185.359 95.065 182.864 96.428 C 177.574 97.354 172.025 98.02 166.976 96.282 C 162.16 93.701 159.851 90.807 159.106 86.731 C 158.773 82.11 159.756 79.12 164.248 75.599 C 164.902 75.067 165.554 74.529 166.228 73.978 C 170.88 72.376 175.482 72.483 180.582 73.007 Z" fill="#FAFCFB" style=""/>
  <path d="M 64.194 23.378 C 67.453 24.888 67.453 24.888 69.514 27.153 C 70.372 30.421 70.049 33.071 68.183 36.118 C 65.084 38.788 63.412 39.845 58.475 40.364 C 53.387 39.867 51.828 38.761 48.236 36.212 C 46.222 33.355 46.38 30.248 47.171 27.153 C 51.226 22.473 57.154 21.631 64.194 23.378 Z" fill="#EC2028" style=""/>
  <path d="M 284.351 49.665 C 289.741 49.665 295.13 49.665 300.683 49.665 C 300.683 52.874 300.683 56.085 300.683 59.39 C 295.295 59.39 289.905 59.39 284.351 59.39 C 284.351 56.181 284.351 52.972 284.351 49.665 Z" fill="#15AD5A" style=""/>
  <path d="M 354.625 139.416 C 354.958 139.416 355.287 139.416 355.627 139.416 C 355.627 144.921 355.627 150.426 355.627 156.097 C 344.546 156.207 333.611 156.106 322.565 155.055 C 322.565 154.713 322.565 154.367 322.565 154.014 C 324.486 153.86 324.486 153.86 326.448 153.703 C 328.159 153.546 329.87 153.389 331.582 153.23 C 332.422 153.167 333.264 153.103 334.127 153.037 C 340.784 152.392 346.946 150.99 351.459 145.525 C 351.821 144.799 352.186 144.074 352.56 143.325 C 353.237 142.015 353.921 140.709 354.625 139.416 Z" fill="#ECF5F0" style="visibility: hidden;"/>
</svg>