<?xml version="1.0" encoding="UTF-8"?>
<svg version="1.1" xmlns="http://www.w3.org/2000/svg" width="368" height="137">
<path d="M0 0 C121.44 0 242.88 0 368 0 C368 45.21 368 90.42 368 137 C246.56 137 125.12 137 0 137 C0 91.79 0 46.58 0 0 Z " fill="#FDFDFD" transform="translate(0,0)"/>
<path d="M0 0 C0 5.28 0 10.56 0 16 C12.21 16 24.42 16 37 16 C37 32.83 37 49.66 37 67 C22 75 22 75 20 75 C20 59.49 20 43.98 20 28 C13.4 28 6.8 28 0 28 C0 40.87 0 53.74 0 67 C-14 74 -14 74 -16 74 C-16 58.82 -16 43.64 -16 28 C-27.62397403 28.89537914 -27.62397403 28.89537914 -36.875 34.6875 C-39.42046839 39.9198517 -40.14948963 45.45227651 -39.95703125 51.2265625 C-39.51004986 65.0426944 -39.51004986 65.0426944 -42.25 68.64208984 C-46.90056022 72.43956292 -52.09868114 74 -58 74 C-58 54.86 -58 35.72 -58 16 C-53.05 16 -48.1 16 -43 16 C-42.67 19.3 -42.34 22.6 -42 26 C-41.46375 25.0925 -40.9275 24.185 -40.375 23.25 C-38.30255798 19.74279042 -35.56247433 17.91318066 -32 16 C-29.18152452 15.54954289 -26.46960352 15.61625734 -23.625 15.75 C-22.52091797 15.77707031 -22.52091797 15.77707031 -21.39453125 15.8046875 C-19.59578264 15.85140824 -17.79771289 15.92313817 -16 16 C-16 12.04 -16 8.08 -16 4 C-14.08594633 3.32586789 -12.16863974 2.6609668 -10.25 2 C-9.18265625 1.62875 -8.1153125 1.2575 -7.015625 0.875 C-4 0 -4 0 0 0 Z " fill="#06AA53" transform="translate(281,61)"/>
<path d="M0 0 C5.38493581 4.28478763 8.47279984 8.95998786 10.81640625 15.4453125 C11.83806187 24.47453916 11.64441231 33.49791292 6.81640625 41.4453125 C4.37890625 44.3203125 4.37890625 44.3203125 1.81640625 46.4453125 C0.76453125 47.46625 0.76453125 47.46625 -0.30859375 48.5078125 C-9.5461796 54.7331421 -19.38582513 55.49131229 -30.18359375 54.4453125 C-39.24672288 52.64840957 -46.57995812 47.72082715 -51.80859375 40.06640625 C-56.10712625 31.87232867 -56.56331742 23.09816095 -54.37890625 14.1484375 C-51.42755233 6.1288965 -46.62885128 0.5089256 -39.15625 -3.6953125 C-26.48315745 -9.21626371 -11.3722983 -7.67342956 0 0 Z " fill="#04A952" transform="translate(209.18359375,82.5546875)"/>
<path d="M0 0 C0 15.18 0 30.36 0 46 C4.95 43.69 9.9 41.38 15 39 C15.33 26.13 15.66 13.26 16 0 C22.6 0 29.2 0 36 0 C36 15.51 36 31.02 36 47 C36.66 47.33 37.32 47.66 38 48 C27.86462398 48.04627451 17.72927296 48.08184427 7.59381294 48.10362434 C2.88786217 48.11407597 -1.81801651 48.12826022 -6.52392578 48.15087891 C-11.06264076 48.17255826 -15.60128624 48.18455823 -20.14004898 48.18975449 C-21.87446309 48.19345909 -23.60887326 48.20069294 -25.3432579 48.21146011 C-27.76652086 48.22590995 -30.18949409 48.2279807 -32.61279297 48.22705078 C-33.69604355 48.23783661 -33.69604355 48.23783661 -34.80117798 48.24884033 C-39.77189568 48.22810432 -39.77189568 48.22810432 -42 46 C-41.030625 45.5875 -40.06125 45.175 -39.0625 44.75 C-36.11306196 43.48686702 -33.17719375 42.195733 -30.24609375 40.890625 C-29.44743896 40.53516602 -28.64878418 40.17970703 -27.82592773 39.81347656 C-26.92209351 39.41080566 -26.92209351 39.41080566 -26 39 C-25.98018066 38.410979 -25.96036133 37.82195801 -25.93994141 37.21508789 C-25.84356723 34.49717649 -25.73435288 31.77991897 -25.625 29.0625 C-25.57859375 27.67321289 -25.57859375 27.67321289 -25.53125 26.25585938 C-25.15405647 17.29751309 -24.81970564 9.3650586 -18 3 C-11.53940244 -0.87635854 -8.35523273 0 0 0 Z " fill="#FAFCFB" transform="translate(265,89)"/>
<path d="M0 0 C3.4297291 3.12222628 5.59316012 6.40548928 7.8984375 10.41796875 C8.25588043 11.0346492 8.61332336 11.65132965 8.9815979 12.28669739 C10.11868254 14.25026679 11.24736682 16.21849014 12.375 18.1875 C13.85810493 20.76657586 15.34620982 23.34271431 16.8359375 25.91796875 C17.19210144 26.53912567 17.54826538 27.16028259 17.91522217 27.80026245 C19.97547231 31.36163021 22.18651159 34.72258718 24.6015625 38.05078125 C26.47887468 40.82442114 26.99018755 41.6741448 27.09375 45.11328125 C25.7733478 48.59819991 24.23404648 51.89567343 22.5 55.1875 C21.9898938 56.21919312 21.9898938 56.21919312 21.46948242 57.27172852 C19.51670469 61.20590417 17.42661551 64.95697891 15.08203125 68.671875 C10.94698487 75.42653964 10.94698487 75.42653964 9 83 C10.64923356 89.00886332 14.64967301 93.81703801 18.73388672 98.40039062 C20 100 20 100 21 103 C10.77 103 0.54 103 -10 103 C-12.53721311 89.04532791 -12.17328937 76.37310955 -10.77319336 62.41625977 C-10.55887003 60.27625494 -10.35583424 58.13538414 -10.15429688 55.99414062 C-9.15276914 45.61107656 -9.15276914 45.61107656 -8 41 C-5.03 41 -2.06 41 1 41 C0.9285376 40.31067383 0.8570752 39.62134766 0.78344727 38.91113281 C-0.01068572 30.50788804 -0.11760975 22.18603093 -0.0625 13.75 C-0.05746786 12.40755378 -0.05290802 11.0651057 -0.04882812 9.72265625 C-0.03717009 6.4817219 -0.02080774 3.24088631 0 0 Z " fill="#03A951" transform="translate(66,33)"/>
<path d="M0 0 C0.33 0 0.66 0 1 0 C1.13247351 13.70364816 0.76929025 27.31762342 0 41 C2.97 41 5.94 41 9 41 C10.67238135 53.92595027 12.19206863 66.85447034 12.875 79.875 C12.9361499 80.81666016 12.9972998 81.75832031 13.06030273 82.72851562 C13.39223695 90.41255515 12.00194546 94.99221814 10 103 C0.1 103 -9.8 103 -20 103 C-17.76139651 97.40349127 -17.76139651 97.40349127 -15.80078125 94.625 C-15.19459961 93.73554688 -15.19459961 93.73554688 -14.57617188 92.828125 C-13.72991725 91.60386793 -12.87564405 90.38511703 -12.01367188 89.171875 C-9.58131717 85.68914552 -9.58131717 85.68914552 -9.24414062 81.59619141 C-10.02782769 78.90441872 -11.02830079 76.58695813 -12.29296875 74.0859375 C-12.75606445 73.16474121 -13.21916016 72.24354492 -13.69628906 71.29443359 C-14.43443848 69.84931396 -14.43443848 69.84931396 -15.1875 68.375 C-15.6834668 67.38967285 -16.17943359 66.4043457 -16.69042969 65.38916016 C-19.67484602 59.48961904 -22.75006429 53.68258599 -26.171875 48.0234375 C-27.20859062 45.49033047 -26.83133133 44.5688887 -26 42 C-25.09887695 40.25854492 -25.09887695 40.25854492 -23.98828125 38.48046875 C-23.56659668 37.79847412 -23.14491211 37.11647949 -22.71044922 36.41381836 C-22.24912598 35.6791333 -21.78780273 34.94444824 -21.3125 34.1875 C-20.32111382 32.5888521 -19.33025599 30.98987647 -18.33984375 29.390625 C-17.80601074 28.53146484 -17.27217773 27.67230469 -16.72216797 26.78710938 C-12.94177342 20.6690226 -9.23264616 14.50700325 -5.5090332 8.35424805 C-4.93628662 7.41105713 -4.36354004 6.46786621 -3.7734375 5.49609375 C-3.26216309 4.65232178 -2.75088867 3.8085498 -2.22412109 2.93920898 C-1 1 -1 1 0 0 Z " fill="#03A951" transform="translate(27,33)"/>
<path d="M0 0 C13.86 0 27.72 0 42 0 C42 3.96 42 7.92 42 12 C33.75 12 25.5 12 17 12 C17 16.62 17 21.24 17 26 C23.27 26 29.54 26 36 26 C36 29.96 36 33.92 36 38 C29.73 38 23.46 38 17 38 C17 49.55 17 61.1 17 73 C5 79 5 79 0 80 C0 53.6 0 27.2 0 0 Z " fill="#02A950" transform="translate(120,55)"/>
<path d="M0 0 C-0.33 3.63 -0.66 7.26 -1 11 C-2.0725 10.835 -3.145 10.67 -4.25 10.5 C-7.91439784 10.06158097 -11.56122155 9.80955517 -15.25 9.6875 C-16.74273437 9.63142578 -16.74273437 9.63142578 -18.265625 9.57421875 C-21.11096681 9.81026575 -21.11096681 9.81026575 -23.421875 11.70703125 C-25.30292353 13.91709064 -25.30292353 13.91709064 -24.75 16.75 C-24.5025 17.4925 -24.255 18.235 -24 19 C-22.98679687 19.32613281 -21.97359375 19.65226562 -20.9296875 19.98828125 C-19.57804496 20.42944236 -18.22648693 20.87086242 -16.875 21.3125 C-15.87726563 21.63250977 -15.87726563 21.63250977 -14.859375 21.95898438 C-8.13909375 24.16613557 -2.75932336 26.5607733 2 32 C3.6728747 37.01862411 4.03347349 42.27960118 2.12890625 47.29296875 C-1.46390712 53.57155736 -5.86953054 56.07220628 -12.6640625 58.0859375 C-17.15405459 59.1637841 -21.46212126 59.29682319 -26.0625 59.25 C-27.2081543 59.26160156 -27.2081543 59.26160156 -28.37695312 59.2734375 C-33.28516185 59.25664294 -37.34414736 58.55813395 -42 57 C-42 53.04 -42 49.08 -42 45 C-36.3852618 45.91402715 -36.3852618 45.91402715 -33.671875 46.51953125 C-30.72453878 47.04953469 -27.93134035 47.20458144 -24.9375 47.25 C-23.40416016 47.28867188 -23.40416016 47.28867188 -21.83984375 47.328125 C-18.6138738 46.95538569 -17.25696197 46.31057152 -15 44 C-14.66602213 40.87413125 -14.66602213 40.87413125 -15 38 C-19.28003279 36.05453055 -23.49414445 34.54038879 -28 33.1875 C-34.34439477 31.10450322 -38.87459126 28.41913579 -42.4375 22.6875 C-43.46082992 17.79825705 -44.16266395 13.42791589 -41.9375 8.78125 C-32.48208073 -4.99077372 -14.49967099 -3.56914978 0 0 Z " fill="#07AA53" transform="translate(365,76)"/>
<path d="M0 0 C4.02684141 1.65728149 6.30378348 4.1016561 8.9375 7.5 C11.20139189 14.95752623 11.12078179 22.48428006 7.875 29.625 C6.20697135 32.47918235 4.97356729 34.02139791 2.375 36.125 C-3.12750722 37.55157595 -8.90456064 38.57850615 -14.16015625 35.8984375 C-19.17358737 31.91749644 -21.57572577 27.45616645 -22.34765625 21.16796875 C-22.69731222 14.04036629 -21.67269942 9.42972893 -17 4 C-16.319375 3.175 -15.63875 2.35 -14.9375 1.5 C-10.09674103 -0.97187692 -5.30782497 -0.80847665 0 0 Z " fill="#FAFCFB" transform="translate(193,88)"/>
<path d="M0 0 C3.0625 2 3.0625 2 5 5 C5.8080144 9.33032957 5.50488862 12.83875617 3.75 16.875 C0.83638175 20.41296502 -0.73391931 21.81243249 -5.375 22.5 C-10.15613064 21.84053371 -11.62434107 20.37565893 -15 17 C-16.89256739 13.21486521 -16.74530017 9.10228242 -16 5 C-12.18914679 -1.20010287 -6.61746889 -2.31302184 0 0 Z " fill="#EC2028" transform="translate(53,1)"/>
<path d="M0 0 C5.61 0 11.22 0 17 0 C17 4.95 17 9.9 17 15 C11.39 15 5.78 15 0 15 C0 10.05 0 5.1 0 0 Z " fill="#15AD5A" transform="translate(301,52)"/>
<path d="M0 0 C0.33 0 0.66 0 1 0 C1 5.28 1 10.56 1 16 C-10.05994427 16.10611887 -20.9760632 16.00708069 -32 15 C-32 14.67 -32 14.34 -32 14 C-30.081875 13.85304687 -30.081875 13.85304687 -28.125 13.703125 C-26.41659156 13.55293525 -24.70826207 13.40184552 -23 13.25 C-22.16082031 13.188125 -21.32164062 13.12625 -20.45703125 13.0625 C-13.81560594 12.44469299 -7.66550223 11.10126374 -3.16015625 5.859375 C-2.79792969 5.16328125 -2.43570312 4.4671875 -2.0625 3.75 C-1.38629109 2.49385599 -0.70226141 1.24176695 0 0 Z " fill="#ECF5F0" transform="translate(367,121)"/>
<path d="M0 0 C0.33 0 0.66 0 1 0 C1 3.3 1 6.6 1 10 C0.34 8.68 -0.32 7.36 -1 6 C-1.99 6.66 -2.98 7.32 -4 8 C-2.87548273 5.0280615 -1.77706209 2.66559313 0 0 Z " fill="#1AAF59" transform="translate(27,33)"/>
</svg>
