<?xml version="1.0" encoding="utf-8"?>
<svg version="1.1" width="368" height="137" xmlns="http://www.w3.org/2000/svg">
  <defs/>
  <path d="M 268.459 61.914 C 268.459 66.443 268.459 70.974 268.459 75.641 C 280.691 75.641 292.927 75.641 305.53 75.641 C 305.53 90.08 305.53 104.521 305.53 119.399 C 290.503 126.26 290.503 126.26 288.498 126.26 C 288.498 112.954 288.498 99.647 288.498 85.936 C 281.886 85.936 275.273 85.936 268.459 85.936 C 268.459 96.979 268.459 108.019 268.459 119.399 C 254.432 125.403 254.432 125.403 252.429 125.403 C 252.429 112.378 252.429 99.354 252.429 85.936 C 240.781 86.704 240.781 86.704 231.512 91.674 C 228.962 96.161 228.233 100.91 228.425 105.862 C 228.874 117.717 228.874 117.717 226.126 120.805 C 221.468 124.063 216.259 125.403 210.347 125.403 C 210.347 108.982 210.347 92.561 210.347 75.641 C 215.306 75.641 220.265 75.641 225.377 75.641 C 225.709 78.471 226.038 81.303 226.379 84.221 C 226.917 83.443 227.455 82.662 228.005 81.86 C 230.084 78.852 232.827 77.281 236.398 75.641 C 239.221 75.254 241.939 75.311 244.788 75.426 C 245.893 75.449 245.893 75.449 247.022 75.475 C 248.826 75.514 250.626 75.576 252.429 75.641 C 252.429 72.243 252.429 68.847 252.429 65.346 C 254.346 64.767 256.268 64.197 258.191 63.629 C 259.258 63.31 260.329 62.993 261.431 62.664 C 264.45 61.914 264.45 61.914 268.459 61.914 Z" fill="#06AA53" style=""/>
  <path d="M 196.503 80.408 C 201.899 84.083 204.993 88.093 207.34 93.658 C 208.366 101.406 208.173 109.145 203.335 115.965 C 200.89 118.433 200.89 118.433 198.325 120.254 C 197.271 121.13 197.271 121.13 196.193 122.024 C 186.94 127.366 177.079 128.017 166.261 127.117 C 157.18 125.577 149.835 121.35 144.595 114.782 C 140.287 107.751 139.831 100.223 142.02 92.545 C 144.977 85.666 149.785 80.843 157.271 77.235 C 169.97 72.499 185.11 73.822 196.503 80.408 Z" fill="#04A952" style=""/>
  <path d="M 69.429 36.906 C 72.865 39.585 75.031 42.402 77.342 45.846 C 77.7 46.374 78.059 46.902 78.427 47.447 C 79.569 49.132 80.697 50.822 81.828 52.51 C 83.314 54.724 84.806 56.933 86.298 59.143 C 86.653 59.676 87.012 60.209 87.378 60.758 C 89.444 63.814 91.659 66.697 94.08 69.552 C 95.959 71.932 96.471 72.66 96.574 75.611 C 95.253 78.602 93.711 81.431 91.97 84.254 C 91.462 85.139 91.462 85.139 90.939 86.043 C 88.985 89.417 86.888 92.636 84.541 95.823 C 80.398 101.618 80.398 101.618 78.444 108.117 C 80.099 113.272 84.106 117.396 88.199 121.328 C 89.467 122.702 89.467 122.702 90.47 125.276 C 80.218 125.276 69.97 125.276 59.408 125.276 C 56.868 113.304 57.232 102.431 58.633 90.455 C 58.85 88.62 59.053 86.782 59.253 84.946 C 60.257 76.038 60.257 76.038 61.412 72.083 C 64.389 72.083 67.364 72.083 70.431 72.083 C 70.359 71.492 70.287 70.899 70.212 70.29 C 69.418 63.08 69.31 55.942 69.364 48.703 C 69.371 47.551 69.375 46.399 69.381 45.247 C 69.391 42.467 69.407 39.687 69.429 36.906 Z" fill="#03A951" style=""/>
  <path d="M 29.29 38.381 C 29.625 38.381 29.96 38.381 30.306 38.381 C 30.44 49.648 30.071 60.839 29.29 72.088 C 32.309 72.088 35.332 72.088 38.444 72.088 C 40.146 82.715 41.692 93.343 42.385 104.045 C 42.448 104.818 42.511 105.594 42.573 106.392 C 42.914 112.706 41.499 116.472 39.461 123.056 C 29.389 123.056 19.319 123.056 8.944 123.056 C 11.22 118.455 11.22 118.455 13.215 116.171 C 13.831 115.438 13.831 115.438 14.46 114.693 C 15.321 113.688 16.19 112.685 17.066 111.689 C 19.542 108.824 19.542 108.824 19.884 105.461 C 19.088 103.248 18.069 101.342 16.783 99.287 C 16.313 98.528 15.842 97.771 15.354 96.992 C 14.605 95.803 14.605 95.803 13.839 94.593 C 13.333 93.781 12.829 92.972 12.31 92.137 C 9.274 87.288 6.144 82.514 2.666 77.861 C 1.609 75.778 1.991 75.021 2.838 72.909 C 3.755 71.478 3.755 71.478 4.886 70.016 C 5.314 69.455 5.743 68.894 6.186 68.317 C 6.655 67.713 7.122 67.11 7.607 66.486 C 8.616 65.173 9.623 63.858 10.632 62.544 C 11.175 61.836 11.718 61.131 12.276 60.403 C 16.122 55.375 19.896 50.309 23.685 45.252 C 24.266 44.475 24.849 43.7 25.451 42.901 C 25.97 42.208 26.49 41.513 27.027 40.798 C 28.27 39.204 28.27 39.204 29.29 38.381 Z" fill="#03A951" style=""/>
  <path d="M 107.149 56.766 C 121.035 56.766 134.92 56.766 149.229 56.766 C 149.229 60.165 149.229 63.561 149.229 67.061 C 140.962 67.061 132.696 67.061 124.18 67.061 C 124.18 71.025 124.18 74.989 124.18 79.072 C 130.461 79.072 136.745 79.072 143.216 79.072 C 143.216 82.47 143.216 85.867 143.216 89.369 C 136.936 89.369 130.653 89.369 124.18 89.369 C 124.18 99.278 124.18 109.187 124.18 119.399 C 112.156 124.544 112.156 124.544 107.149 125.403 C 107.149 102.751 107.149 80.102 107.149 56.766 Z" fill="#02A950" style=""/>
  <path d="M 352.621 74.783 C 352.29 77.898 351.962 81.012 351.621 84.221 C 350.546 84.077 349.472 83.938 348.365 83.792 C 344.693 83.416 341.039 83.199 337.341 83.096 C 335.844 83.047 335.844 83.047 334.321 82.995 C 331.47 83.199 331.47 83.199 329.155 84.827 C 327.268 86.722 327.268 86.722 327.823 89.154 C 328.071 89.791 328.319 90.428 328.575 91.084 C 329.591 91.364 330.606 91.643 331.654 91.932 C 333.007 92.31 334.361 92.689 335.714 93.068 C 336.715 93.343 336.715 93.343 337.731 93.622 C 344.466 95.517 349.856 97.571 354.625 102.238 C 356.304 106.544 356.664 111.056 354.755 115.357 C 351.154 120.745 346.74 122.889 339.933 124.618 C 335.435 125.543 331.119 125.656 326.509 125.618 C 325.362 125.628 325.362 125.628 324.189 125.637 C 319.271 125.622 315.205 125.024 310.541 123.687 C 310.541 120.289 310.541 116.89 310.541 113.391 C 316.167 114.176 316.167 114.176 318.882 114.695 C 321.838 115.15 324.635 115.283 327.635 115.322 C 329.173 115.355 329.173 115.355 330.74 115.388 C 333.973 115.069 335.331 114.515 337.592 112.533 C 337.927 109.852 337.927 109.852 337.592 107.387 C 333.304 105.717 329.083 104.417 324.568 103.257 C 318.21 101.47 313.673 99.165 310.103 94.249 C 309.077 90.054 308.373 86.304 310.603 82.317 C 320.077 70.5 338.095 71.721 352.621 74.783 Z" fill="#07AA53" style=""/>
  <path d="M 180.289 85.08 C 184.323 86.5 186.604 88.598 189.243 91.515 C 191.511 97.911 191.432 104.368 188.179 110.495 C 186.507 112.944 185.27 114.267 182.669 116.072 C 177.153 117.296 171.366 118.177 166.102 115.878 C 161.079 112.462 158.671 108.634 157.896 103.239 C 157.547 97.125 158.573 93.168 163.256 88.51 C 163.938 87.803 164.619 87.094 165.321 86.366 C 170.172 84.244 174.971 84.385 180.289 85.08 Z" fill="#FAFCFB" style=""/>
  <path d="M 58.272 17.259 C 62.857 19.688 62.857 19.688 65.754 23.331 C 66.962 28.587 66.508 32.848 63.883 37.748 C 59.524 42.042 57.172 43.742 50.229 44.577 C 43.073 43.777 40.879 41.998 35.827 37.9 C 32.995 33.304 33.217 28.309 34.33 23.331 C 40.033 15.803 48.37 14.451 58.272 17.259 Z" fill="#EC2028" style=""/>
  <path d="M 288.498 54.192 C 294.119 54.192 299.738 54.192 305.53 54.192 C 305.53 58.438 305.53 62.686 305.53 67.061 C 299.91 67.061 294.29 67.061 288.498 67.061 C 288.498 62.815 288.498 58.568 288.498 54.192 Z" fill="#15AD5A" style=""/>
  <path d="M 354.625 113.391 C 354.958 113.391 355.287 113.391 355.627 113.391 C 355.627 117.921 355.627 122.451 355.627 127.117 C 344.546 127.208 333.611 127.124 322.565 126.26 C 322.565 125.978 322.565 125.693 322.565 125.403 C 324.486 125.276 324.486 125.276 326.448 125.147 C 328.159 125.018 329.87 124.889 331.582 124.758 C 332.422 124.706 333.264 124.654 334.127 124.599 C 340.784 124.068 346.946 122.915 351.459 118.418 C 351.821 117.821 352.186 117.224 352.56 116.608 C 353.237 115.53 353.921 114.456 354.625 113.391 Z" fill="#ECF5F0" style="visibility: hidden;"/>
</svg>