<?xml version="1.0" encoding="utf-8"?>
<svg width="2500" height="2500" viewBox="0 0 192.756 192.756" xmlns="http://www.w3.org/2000/svg">
  <defs/>
  <g fillRule="evenodd" clip-rule="evenodd" transform="matrix(1, 0, 0, 1, -31.327457, 4.054142)">
    <path d="M 41.305 104.247 L 47.024 104.247 L 47.024 111.828 L 57.24 111.828 L 57.24 104.247 L 62.888 104.247 L 62.888 125.522 L 57.24 125.522 L 57.24 116.564 L 46.951 116.564 L 46.951 125.436 L 41.305 125.436 L 41.305 104.247 Z M 63.529 104.247 L 69.102 104.247 L 74.962 112.43 L 80.751 104.247 L 86.252 104.247 L 77.749 117.254 L 77.749 125.522 L 72.104 125.522 L 72.104 116.651 L 63.529 104.247 Z M 86.967 104.247 L 92.613 104.247 L 92.613 120.698 L 101.687 120.698 C 103.116 120.698 104.045 118.979 104.045 117.168 L 104.045 104.247 L 109.689 104.247 L 109.689 121.217 C 109.689 123.886 107.188 125.436 105.759 125.436 L 86.967 125.436 L 86.967 104.247 Z M 110.903 104.247 L 129.698 104.247 C 131.913 104.247 133.7 105.882 133.7 109.202 L 133.7 125.48 L 128.055 125.522 L 128.055 112.602 C 128.055 110.796 127.554 109.719 125.625 109.719 L 117.122 109.719 L 117.122 125.569 L 110.903 125.569 L 110.903 104.247 Z M 135.415 104.247 L 151.848 104.247 C 155.137 104.247 157.674 107.433 157.674 109.888 L 157.674 119.665 C 157.638 121.388 155.637 125.52 153.136 125.52 L 135.417 125.52 L 135.417 104.247 L 135.415 104.247 Z M 141.167 120.786 L 149.841 120.786 C 151.089 120.786 152.055 119.667 152.055 118.285 L 152.055 112.085 C 152.055 110.576 151.027 109.676 149.708 109.676 L 141.167 109.676 L 141.167 120.786 Z M 164.642 104.157 L 182.255 104.157 L 182.255 125.522 L 175.966 125.522 L 175.966 120.012 L 165.14 120.012 L 165.14 125.522 L 158.781 125.522 L 158.781 111.652 C 158.637 107.003 162.069 104.157 164.642 104.157 Z M 165.068 111.744 L 165.068 115.184 L 175.931 115.184 L 175.931 109.756 L 166.782 109.756 C 165.712 109.757 165.068 110.534 165.068 111.744 Z M 183.398 104.205 L 189.043 104.205 L 189.043 126.169 L 183.398 126.169 L 183.398 104.205 Z M 115.518 42.649 C 92.093 42.649 73.103 53.952 73.103 67.892 C 73.103 81.833 92.093 93.137 115.518 93.137 C 138.94 93.137 157.933 81.833 157.933 67.892 C 157.932 53.954 138.94 42.649 115.518 42.649 Z M 111.494 48.268 C 116.335 46.204 130.718 48.268 136.305 51.503 C 138.093 53.569 128.332 60.211 116.711 63.091 C 100.095 67.129 107.992 51.68 111.494 48.268 Z M 82.959 78.178 C 79.307 75.039 72.154 66.054 84.002 56.713 C 90.26 52.313 93.762 51.321 98.082 50.245 C 100.17 49.704 101.659 50.334 99.796 52.222 C 95.848 57.162 87.652 73.506 86.908 77.102 C 86.31 79.529 85.12 80.154 82.959 78.178 Z M 117.081 88.6 C 110.078 89.496 94.507 86.713 94.208 84.291 C 94.507 78.449 118.944 68.748 123.339 74.137 C 125.204 78.358 121.627 88.329 117.081 88.6 Z M 152.696 71.619 C 150.906 76.561 144.872 82.132 132.207 85.906 C 130.268 86.44 129.598 85.005 130.864 83.658 C 132.952 82.131 143.01 61.833 144.276 57.789 C 145.022 55.721 146.437 56.532 147.332 57.34 C 151.356 60.482 154.41 65.603 152.696 71.619 Z" fill="#295ba7" style=""/>
  </g>
</svg>