<?xml version="1.0" encoding="utf-8"?>
<svg height="872" viewBox="-.33215117 -.32866509 28.14715117 10.21720549" width="2500" xmlns="http://www.w3.org/2000/svg">
  <defs/>
  <path d="M 14.627 6.023 C 14.249 5.709 13.76 5.506 13.329 5.328 C 12.735 5.081 12.221 4.869 12.221 4.474 C 12.221 4.302 12.301 4.144 12.448 4.029 C 12.602 3.909 12.817 3.842 13.053 3.842 C 13.797 3.842 14.39 4.37 14.395 4.374 L 14.54 4.507 L 15.199 3.268 L 15.124 3.188 C 15.095 3.158 14.401 2.439 13.062 2.439 C 12.42 2.439 11.829 2.645 11.399 3.019 C 10.967 3.386 10.718 3.925 10.72 4.493 C 10.72 5.049 10.936 5.499 11.378 5.869 C 11.75 6.179 12.214 6.379 12.663 6.573 C 13.274 6.837 13.803 7.065 13.803 7.471 C 13.803 7.781 13.594 8.112 13.007 8.112 C 12.166 8.112 11.491 7.471 11.485 7.464 L 11.358 7.341 L 10.539 8.479 L 10.621 8.571 C 10.63 8.58 10.842 8.814 11.24 9.048 C 11.771 9.357 12.375 9.518 12.989 9.516 C 13.675 9.516 14.26 9.305 14.681 8.906 C 15.077 8.53 15.294 8.011 15.294 7.445 C 15.294 6.861 15.076 6.397 14.627 6.023 M 21.551 9.413 L 23.086 9.413 L 23.086 2.542 L 21.552 2.542 L 21.551 9.413 Z M 18.551 8.127 L 17.382 8.127 L 17.382 3.828 L 18.413 3.828 C 18.874 3.828 19.139 4.087 19.139 4.538 C 19.139 4.995 18.901 5.225 18.43 5.225 L 18.076 5.225 L 18.076 6.491 L 18.551 6.491 C 18.81 6.491 19.027 6.572 19.176 6.726 C 19.326 6.87 19.406 7.071 19.396 7.279 C 19.396 7.803 19.073 8.127 18.551 8.127 M 20.589 6.326 C 20.439 6.089 20.229 5.897 19.981 5.769 C 20.38 5.448 20.607 4.955 20.607 4.391 C 20.607 3.822 20.39 3.347 19.981 3.016 C 19.595 2.706 19.059 2.542 18.43 2.542 L 15.933 2.542 L 15.933 9.413 L 18.458 9.413 C 19.128 9.413 19.708 9.244 20.135 8.923 C 20.618 8.558 20.874 8.015 20.874 7.352 C 20.874 6.975 20.776 6.62 20.589 6.326" fill="#292075" style=""/>
  <path d="M 6.108 2.334 C 4.029 2.336 2.346 3.925 2.349 5.885 C 2.347 7.703 3.804 9.228 5.724 9.416 L 5.724 6.836 C 5.304 6.685 5.027 6.307 5.027 5.884 C 5.027 5.322 5.512 4.863 6.108 4.863 C 6.706 4.863 7.191 5.322 7.191 5.884 C 7.191 6.319 6.901 6.69 6.493 6.836 L 6.493 9.415 C 8.412 9.226 9.869 7.701 9.867 5.883 C 9.869 3.925 8.186 2.337 6.108 2.335" fill="#00b5ef" style=""/>
</svg>