<?xml version="1.0" encoding="utf-8"?>
<svg viewBox="0 0 500 500" xmlns="http://www.w3.org/2000/svg">
  <defs/>
  <path d="M 36.29 69.514 L 76.133 69.514 L 76.133 57.423 C 76.133 38.894 90.672 23.766 108.443 23.766 L 280.66 23.766 C 298.431 23.766 312.97 38.894 312.97 57.423 L 312.97 69.514 L 352.814 69.514 C 374.14 69.514 391.591 87.71 391.591 109.945 L 391.591 425.287 C 391.591 447.522 374.14 465.718 352.814 465.718 L 36.29 465.718 C 14.936 465.718 -2.488 447.522 -2.488 425.287 L -2.488 109.945 C -2.488 87.71 14.936 69.514 36.29 69.514 Z M 194.561 273.819 C 228.503 273.819 256.033 302.522 256.033 337.909 C 256.033 373.327 228.503 402.001 194.561 402.001 C 160.62 402.001 133.09 373.327 133.09 337.909 C 133.09 302.522 160.62 273.819 194.561 273.819 Z M 232.698 298.147 C 211.636 276.217 177.486 276.217 156.424 298.147 C 135.362 320.108 135.362 355.712 156.424 377.671 C 177.486 399.632 211.636 399.632 232.698 377.671 C 253.761 355.712 253.761 320.098 232.698 298.147 Z M 198.332 244.9 C 208.223 245.322 217.678 247.435 226.504 250.945 L 232.49 250.945 L 232.49 226.282 L 198.332 226.282 L 198.332 244.9 Z M 241.674 258.799 C 253.243 266.318 263.057 276.492 270.269 288.534 L 273.314 288.534 L 273.314 258.799 L 241.674 258.799 Z M 274.522 296.417 C 279.33 306.473 282.432 317.571 283.479 329.298 C 295.772 327.824 305.418 316.844 305.418 303.663 L 305.418 57.423 C 305.418 43.239 294.274 31.62 280.669 31.62 L 108.454 31.62 C 94.849 31.62 83.676 43.239 83.676 57.423 L 83.676 303.663 C 83.676 316.844 93.322 327.824 105.644 329.298 C 106.662 317.571 109.783 306.473 114.6 296.417 L 112.036 296.417 C 109.953 296.417 108.265 294.658 108.265 292.486 L 108.265 152.242 C 108.265 150.071 109.953 148.312 112.036 148.312 L 277.096 148.312 C 279.179 148.312 280.867 150.071 280.867 152.242 L 280.867 292.486 C 280.867 294.658 279.179 296.417 277.096 296.417 L 274.522 296.417 Z M 283.856 337.153 C 284.101 368.057 269.855 395.886 247.132 413.198 L 285.486 413.198 L 285.486 360.922 C 285.486 358.748 287.174 356.989 289.258 356.989 L 341.235 356.989 L 341.235 122.044 L 312.979 122.044 L 312.979 303.663 C 312.979 321.081 300.157 335.482 283.856 337.153 Z M 234.81 421.052 C 222.704 427.431 209.043 431.028 194.561 431.028 C 180.08 431.028 166.418 427.431 154.313 421.052 L 44.124 421.052 C 42.041 421.052 40.354 419.29 40.354 417.119 L 40.354 118.113 C 40.354 115.942 42.041 114.18 44.124 114.18 L 76.144 114.18 L 76.144 77.408 L 36.29 77.408 C 19.113 77.408 5.055 92.064 5.055 109.945 L 5.055 425.287 C 5.055 443.178 19.113 457.864 36.299 457.864 L 352.841 457.864 C 370.029 457.864 384.087 443.178 384.087 425.287 L 384.087 109.945 C 384.087 92.054 370.029 77.398 352.841 77.398 L 312.979 77.398 L 312.979 114.18 L 344.997 114.18 C 347.081 114.18 348.769 115.942 348.769 118.113 L 348.769 363.88 C 348.769 365.08 348.231 366.16 347.402 366.889 L 294.67 419.94 C 293.944 420.667 293.01 421.052 292.076 421.052 L 234.81 421.052 Z M 141.99 413.198 C 119.249 395.896 105.031 368.057 105.267 337.153 C 88.965 335.482 76.133 321.071 76.133 303.663 L 76.133 122.044 L 47.887 122.044 L 47.887 413.198 L 141.99 413.198 Z M 118.825 288.534 C 126.065 276.492 135.88 266.328 147.448 258.799 L 115.808 258.799 L 115.808 288.534 L 118.825 288.534 Z M 162.627 250.945 C 171.444 247.435 180.91 245.313 190.8 244.9 L 190.8 226.282 L 156.641 226.282 L 156.641 250.945 L 162.627 250.945 Z M 252.366 277.633 C 220.451 244.339 168.662 244.339 136.748 277.633 C 104.814 310.927 104.814 364.902 136.748 398.176 C 168.662 431.47 220.451 431.47 252.366 398.176 C 284.308 364.902 284.308 310.937 252.366 277.633 Z M 115.798 185.91 L 149.07 185.91 L 149.07 156.175 L 115.798 156.175 L 115.798 185.91 Z M 156.641 185.91 L 190.791 185.91 L 190.791 156.175 L 156.631 156.175 L 156.631 185.91 L 156.641 185.91 Z M 198.332 185.91 L 232.49 185.91 L 232.49 156.175 L 198.332 156.175 L 198.332 185.91 Z M 240.024 185.91 L 273.324 185.91 L 273.324 156.175 L 240.024 156.175 L 240.024 185.91 Z M 273.324 193.793 L 240.024 193.793 L 240.024 218.427 L 273.324 218.427 L 273.324 193.793 Z M 232.481 193.793 L 198.332 193.793 L 198.332 218.427 L 232.49 218.427 L 232.49 193.793 L 232.481 193.793 Z M 190.791 193.793 L 156.631 193.793 L 156.631 218.427 L 190.791 218.427 L 190.791 193.793 Z M 149.07 193.793 L 115.798 193.793 L 115.798 218.427 L 149.07 218.427 L 149.07 193.793 Z M 273.324 226.282 L 240.024 226.282 L 240.024 250.945 L 273.324 250.945 L 273.324 226.282 Z M 149.07 226.282 L 115.798 226.282 L 115.798 250.945 L 149.07 250.945 L 149.07 226.282 Z M 112.036 55.496 L 277.096 55.496 C 279.179 55.496 280.867 57.257 280.867 59.429 L 280.867 116.55 C 280.867 118.724 279.179 120.483 277.096 120.483 L 112.036 120.483 C 109.953 120.483 108.265 118.724 108.265 116.55 L 108.265 59.429 C 108.265 57.257 109.953 55.496 112.036 55.496 Z M 273.324 63.36 L 115.798 63.36 L 115.798 112.629 L 273.314 112.629 L 273.314 63.36 L 273.324 63.36 Z M 338.614 364.853 L 293.02 364.853 L 293.02 410.72 L 338.614 364.853 Z" style=""/>
  <path d="M 214.794 310.211 C 214.794 307.973 212.697 306.054 210.252 306.054 L 177.055 306.054 C 174.608 306.054 172.512 307.973 172.512 310.211 C 172.512 312.45 174.608 314.369 177.055 314.369 C 182.996 314.369 188.411 316.767 191.033 320.125 L 177.055 320.125 C 174.608 320.125 172.512 322.044 172.512 324.283 C 172.512 326.521 174.608 328.44 177.055 328.44 L 192.081 328.44 C 189.809 332.438 183.868 335.476 177.055 335.476 C 175.307 335.476 173.734 336.435 172.861 337.874 C 172.163 339.313 172.337 341.072 173.56 342.352 L 198.196 368.416 C 199.07 369.375 200.293 369.855 201.69 369.855 C 202.738 369.855 203.787 369.535 204.66 368.895 C 206.582 367.456 206.757 364.738 205.185 362.979 L 185.966 342.512 C 194.003 340.273 200.118 334.836 201.69 328.28 L 210.252 328.28 C 212.697 328.28 214.794 326.361 214.794 324.123 C 214.794 321.884 212.697 319.965 210.252 319.965 L 201.166 319.965 C 200.467 317.887 199.244 315.968 197.846 314.209 L 210.252 314.209 C 212.697 314.369 214.794 312.45 214.794 310.211 Z" style=""/>
</svg>