<svg xmlns="http://www.w3.org/2000/svg" version="1.1" viewBox="-5.0 -10.0 110.0 135.0">
 <path d="m50 61.508c4.5586 0 8.2656-3.707 8.2656-8.2656-0.45312-10.965-16.074-10.961-16.527 0 0 4.5586 3.707 8.2656 8.2656 8.2656zm0-14.184c3.2656 0 5.9219 2.6562 5.9219 5.9219-0.32422 7.8555-11.516 7.8516-11.84 0 0-3.2656 2.6562-5.9219 5.9219-5.9219z"/>
 <path d="m14.012 30.977 5.3867 5.3867c1.6953 1.8203 4.9688 1.7148 6.5469-0.19922l-0.007812-0.007812c0.13672-0.13281 0.27734-0.29297 0.4375-0.47266l9.875-11.094c0.79688-0.89453 1.1992-2.0469 1.1289-3.2422-0.070312-1.1953-0.60156-2.293-1.4961-3.0898-1.7656-1.6406-4.7656-1.4688-6.332 0.36719 0 0-7.1602 8.043-7.1602 8.043l-2.0352-2.0352c-4.6523-4.1016-10.273 2.1836-6.3438 6.3438zm1.6719-4.6719c0.66797-0.66797 1.8633-1.0664 3.0352 0.003906l2.8945 2.8945c0.45312 0.47266 1.2773 0.44922 1.7031-0.050781 0 0 7.9844-8.9688 7.9844-8.9688 0.74609-0.875 2.1797-0.96094 3.0234-0.17578 0.875 0.74609 0.96094 2.1797 0.17578 3.0234-0.019531 0.019531-10.141 11.391-10.336 11.609-0.35937 0.42188-0.91406 0.67188-1.5195 0.6875-0.62109 0.019531-1.1914-0.20703-1.5781-0.61719l-5.3789-5.3789c-1.0703-1.1719-0.67188-2.3672-0.003906-3.0352z"/>
 <path d="m59.969 19.836h37.5c0.38281 0 0.74219-0.1875 0.96484-0.50391 0.21875-0.31641 0.26953-0.71875 0.13281-1.0781-0.66016-1.7656-1.8164-3.332-3.3008-4.4922 1.6797-4.8906-2.7188-9.8281-7.8086-8.6758-6.9805-8.1094-20.535-4.0273-21.934 6.5156-3.7422 0.17969-6.7305 3.2812-6.7305 7.0625 0 0.64844 0.52344 1.1719 1.1719 1.1719zm5.4492-5.875c0.007812 0.20312 0.023437 0.40234 0.042969 0.60547 0.058593 0.60547 0.56641 1.0625 1.1641 1.0625 0.6875 0.003906 1.2383-0.59766 1.168-1.2812-0.89844-9.4961 10.605-14.945 17.383-8.2617-0.23438 0.16016-0.45703 0.33203-0.67188 0.51953-1.125 1.0703 0.35547 2.7422 1.5547 1.7539 1.9414-1.7578 5.1172-1.2969 6.4961 0.85156 0.84766 1.2227 0.96875 3.0039 0.26562 4.3516-0.16797 0.33203-0.375 0.64453-0.625 0.92969-1.0586 1.3516 0.94141 2.7852 1.9219 1.3555 0.55859 0.48047 1.0469 1.0352 1.4531 1.6484h-34.277c0.48828-1.9023 2.1289-3.3438 4.1289-3.5352z"/>
 <path d="m83.426 24.117c-0.45703-0.45703-1.1992-0.45703-1.6562 0l-1.6328 1.6367c-1.0625 1.1289 0.52734 2.7188 1.6562 1.6562l1.6328-1.6367c0.45703-0.45703 0.45703-1.1992 0-1.6562z"/>
 <path d="m81.77 34.043-1.6328 1.6328c-0.45703 0.45703-0.45703 1.1992 0 1.6562s1.1992 0.45703 1.6562 0l1.6328-1.6328c1.0586-1.1328-0.52344-2.7148-1.6562-1.6562z"/>
 <path d="m72.777 26.77-1.6328 1.6367c-0.45703 0.45703-0.45703 1.1992 0 1.6562s1.1992 0.45703 1.6562 0l1.6328-1.6367c1.0586-1.1328-0.52344-2.7148-1.6562-1.6562z"/>
 <path d="m65.32 22.992-1.6328 1.6367c-0.45703 0.45703-0.45703 1.1992 0 1.6562 0.45703 0.45703 1.1992 0.45703 1.6562 0l1.6328-1.6367c1.0586-1.1328-0.52344-2.7148-1.6562-1.6562z"/>
 <path d="m92.98 24.445c1.0586-1.1328-0.52344-2.7148-1.6562-1.6562l-1.6367 1.6328c-0.45703 0.45703-0.45703 1.1992 0 1.6562s1.1992 0.45703 1.6562 0z"/>
 <path d="m91.691 38.992c0.30078 0 0.60156-0.11328 0.82812-0.34375l1.6367-1.6367c0.45703-0.45703 0.45703-1.1992 0-1.6562s-1.1992-0.45703-1.6562 0l-1.6367 1.6367c-0.74219 0.71875-0.19141 2.0195 0.82812 2z"/>
 <path d="m85.625 86.66c1.0508-0.75 1.8789-1.3438 3.6875-1.3438s2.6367 0.59375 3.6875 1.3438c1.168 0.83594 2.4883 1.7812 5.0508 1.7812 1.5508-0.054687 1.5547-2.2891 0-2.3438-1.8086 0-2.6367-0.59375-3.6875-1.3438-2.5156-2.0977-6.5859-2.4883-9.4609-0.44531v-7.8789c1.4375-0.94922 2.2148-1.8516 4.4102-1.8477 1.8086 0 2.6367 0.59375 3.6875 1.3438 1.168 0.83594 2.4883 1.7812 5.0508 1.7812 1.5469-0.050781 1.5547-2.2891 0-2.3438-1.8086 0-2.6367-0.59375-3.6875-1.3438-2.5156-2.0977-6.5859-2.4883-9.4609-0.44531v-15.691c2.6172 2.2578 6.6172 1.332 7.7227-2.0195 0.64844-1.9766-0.019531-4.0469-1.6953-5.2812 0-0.003906-38.145-27.688-38.148-27.691-1.0859-0.78906-2.418-1.0586-3.6758-0.8125 0.089843-2.2188 0.14844-4.2656 0.18359-5.9375 0.046876-2.1055-0.67969-4.1133-1.9492-5.6953-0.92188-1.1562-2.1367-2.0703-3.5508-2.6445l-16.145-6.5156c-1.6797-0.67969-3.5312-0.67969-5.2148 0l-16.145 6.5156c-3.3516 1.3516-5.5781 4.7031-5.5 8.3438 0.082032 3.7031 0.26172 9.2227 0.67578 14.469 0.67578 7.4141 3.2109 13.059 6.5039 15.367 1.3867 0.98047 2.668 1.8438 3.8594 2.6133l-2.7383 1.9883c-2.1094 1.5312-2.5781 4.4883-1.0469 6.5977 1.4531 2.0859 4.5625 2.5859 6.5977 1.0469l0.46875-0.33984v15.629c-1.4414 0.95312-2.2188 1.8555-4.418 1.8516-1.8086 0-2.6367-0.59375-3.6875-1.3438-1.168-0.83594-2.4883-1.7812-5.0508-1.7812-1.5469 0.050781-1.5547 2.2891 0 2.3438 1.8086 0 2.6367 0.59375 3.6875 1.3438 2.5195 2.0977 6.5898 2.4883 9.4648 0.44141v7.8789c-1.4414 0.95312-2.2188 1.8555-4.418 1.8516-1.8086 0-2.6367-0.59375-3.6875-1.3438-1.168-0.83594-2.4883-1.7812-5.0508-1.7812-1.5469 0.050782-1.5547 2.2891 0 2.3438 1.8086 0 2.6367 0.59375 3.6875 1.3438 2.5195 2.0977 6.5898 2.4883 9.4648 0.44141v7.8789c-1.4414 0.95312-2.2188 1.8555-4.418 1.8516-3.9062-0.015626-3.9453-3.1367-8.7344-3.125-0.64844 0-1.1719 0.52344-1.1719 1.1719 0 0.64844 0.52344 1.1719 1.1719 1.1719 1.8086 0 2.6367 0.59375 3.6875 1.3438 1.168 0.83594 2.4883 1.7812 5.0508 1.7812 2.5586 0 3.8828-0.94531 5.0508-1.7812 1.0859-0.74219 1.5469-1.1602 3.1602-1.3242 1.8281-0.17578 3.1406 0.48438 4.2109 1.3242 0.89453 0.6875 2.293 1.5156 3.7656 1.6914 5.918 0.71094 5.9062-3.0625 10.02-3.0352 1.8086 0 2.6367 0.59375 3.6875 1.3438 1.125 0.88281 2.9805 1.9414 5.4688 1.7695 2.0312-0.039063 3.6016-0.98438 4.6328-1.7734 1.0508-0.75 1.8789-1.3438 3.6875-1.3438 1.8086 0 2.6367 0.59375 3.6875 1.3438 2.6133 2.1719 6.7695 2.4727 9.6523 0.31641 1.3008-0.90234 2.082-1.6602 4.1328-1.6602 1.8086 0 2.6367 0.59375 3.6875 1.3438 1.3555 1.082 3.4609 2.0859 6.1523 1.7148 1.6211-0.16016 3.0234-1.0117 3.9492-1.7148 1.0508-0.75 1.8789-1.3438 3.6875-1.3438 3.9141 0.019531 3.9414 3.1367 8.7383 3.125 1.5039-0.035156 1.5977-2.2734 0-2.3438-1.8086 0-2.6367-0.59375-3.6875-1.3438-2.5391-2.1094-6.5977-2.4766-9.4609-0.44531v-7.8789c0.25391-0.16797 0.49219-0.33594 0.72266-0.50391zm-3.0703-0.89453c-0.53125 0.20703-1.1523 0.33203-1.9844 0.33203-1.8086 0-2.6367-0.59375-3.6875-1.3438-0.53125-0.38281-1.1016-0.78516-1.8008-1.1133v-8.0234c1.5 1.0352 2.6094 2.0586 5.4844 2.0898 0.76172 0 1.4102-0.085937 1.9844-0.22656v8.2812zm-37.395-10.418c-3.4258-0.25781-3.6992-3.1211-8.2656-3.1094-4.9609-0.058593-5.0625 3.6602-9.6328 3.0664v-5.1797h17.898zm-17 2.3594c4.7656 0.019531 4.8516-3.1172 8.7344-3.125 3.7383 0 3.9609 2.9375 8.2656 3.1133v8.3867c-3.4258-0.25781-3.6992-3.1211-8.2656-3.1094-4.9609-0.058594-5.0625 3.6602-9.6328 3.0664v-8.375c0.28125 0.027344 0.58203 0.042969 0.89844 0.042969zm19.344-0.19922c1.4102-0.32031 2.3359-0.98047 3.1758-1.582 1.0508-0.75 1.8789-1.3438 3.6875-1.3438 1.8125 0 2.6406 0.59766 3.6953 1.3516v7.7031c0 0.085937 0.007812 0.16797 0.027344 0.24609-0.91406-0.51172-2.0547-0.91016-3.7227-0.91016-2.5586 0-3.8828 0.94531-5.0508 1.7812-0.60156 0.42969-1.1328 0.80859-1.8125 1.0547zm25.238-5.2266c-2.6289-0.30469-4.6641 0.71094-5.957 1.7383-1.0508 0.75-1.8789 1.3438-3.6875 1.3438-1.2227 0-1.9961-0.27344-2.6953-0.67969v-4.5586h12.34zm-9.6406 5.4258c4.9609 0.058594 5.0664-3.668 9.6406-3.0664v7.8242h-12.34v-5.1992c0.72656 0.26562 1.5977 0.44141 2.6953 0.44141zm3.6094 7.1016c-1.0117 0.72266-1.8477 1.2891-3.6094 1.2891-1.7617 0-2.5938-0.56641-3.6094-1.2891zm-17.719-60.246c0.77344-0.36719 1.6953-0.28906 2.4102 0.22656l38.137 27.684c1.0273 0.75391 1.1133 1.8711 0.85547 2.6602-0.26172 0.79688-0.98828 1.6484-2.2539 1.6484-0.50391 0-0.98438-0.15625-1.3945-0.45312l-2.3281-1.6914-33.727-24.48c-0.41016-0.29688-0.96484-0.29688-1.375 0l-0.71094 0.51562c0.16016-2.0312 0.28516-4.0742 0.38672-6.1133zm-3.1484 9.1133c-0.71094 3.7617-1.9414 6.4922-3.1758 8.4102-0.50391 0.77344-1.1484 1.4414-1.918 1.9844-4.8867 3.4531-10.988 7.1133-14.547 7.8633v-2.457c1.0547-0.29297 2.8555-0.99219 5.7656-2.6289 3.0391-1.7109 5.9414-3.6953 7.4023-4.7266 0.51953-0.36719 0.95703-0.81641 1.293-1.3359 1.0156-1.5625 2.7891-5.0078 3.2227-10.539 0.40625-5.1367 0.58594-10.559 0.66406-14.199 0.011719-0.45703-0.0625-0.90234-0.19922-1.3242l1.8125-1.8125c0.51953 0.96094 0.80078 2.0547 0.77344 3.1875-0.050781 2.2578-0.13672 5.1953-0.29297 8.3281-0.19141 3.082-0.25391 6.207-0.80469 9.2539zm-36.914-19.312 16.102-6.4961 16.102 6.4961c0.65625 0.26562 1.0898 0.91797 1.0742 1.625-0.078125 3.6133-0.25391 8.9844-0.65625 14.066-0.43359 5.0234-2.0469 8.9102-3.5312 10.145-1.4258 1.0078-4.2539 2.9414-7.1992 4.6016-3.9375 2.2148-5.543 2.5-5.7891 2.5352-0.24609-0.03125-1.8516-0.31641-5.7891-2.5352-2.9453-1.6602-5.7734-3.5938-7.1992-4.6016-1.4883-1.2383-3.0977-5.1211-3.5312-10.145-0.40234-5.082-0.57812-10.453-0.65625-14.066-0.015625-0.70703 0.41406-1.3633 1.0742-1.625zm33.977-4.3906c0.66016 0.26562 1.2578 0.64062 1.7812 1.0938l-1.6953 1.6953c-0.29688-0.23438-0.625-0.42969-0.98047-0.57422l-15.809-6.3789v-2.5312c0.1875 0.050781 0.375 0.10547 0.55859 0.17969zm-35.746 0 16.145-6.5117c0.18359-0.074219 0.37109-0.13281 0.55859-0.17969v2.5312l-15.809 6.3789c-0.35938 0.14453-0.6875 0.33984-0.98047 0.57422l-1.6953-1.6953c0.52344-0.45312 1.1211-0.82812 1.7812-1.0938zm0.23828 32.109c-1.1406-1.7539-3.125-5.5977-3.6016-11.652-0.41016-5.1914-0.58984-10.66-0.67188-14.336-0.023438-1.1328 0.25781-2.2266 0.77344-3.1875l1.8125 1.8125c-0.13672 0.42188-0.20703 0.86719-0.19922 1.3242 0.078125 3.6445 0.25781 9.0625 0.66406 14.199 0.4375 5.5312 2.207 8.9766 3.2227 10.539 0.33594 0.51953 0.77344 0.96484 1.293 1.3359 1.4609 1.0312 4.3633 3.0195 7.4023 4.7266 2.9102 1.6367 4.7109 2.3359 5.7656 2.6289v2.457c-3.1992-0.78516-6.1016-2.5039-9.1367-4.2969-1.8438-1.125-3.7031-2.3594-5.4102-3.5664-0.76953-0.54297-1.4141-1.2109-1.918-1.9844zm5.8594 14.246c-1.0195 0.77344-2.5938 0.52344-3.3242-0.52734-0.76953-1.0625-0.53516-2.5547 0.52734-3.3242l3.5039-2.543c1.7734 1.0703 3.3086 1.8945 4.6289 2.5234l-5.3359 3.875zm4.1914-0.14453 0.28125-0.20312 3.3711-2.4453c1.6758 0.60938 2.7852 0.89062 4.125 0.87891 1.707 0.10156 7.75-1.7891 17.254-8.707 2.9297-2.293 4.7812-6.9258 5.7188-11.84l1.8086-1.3125 32.555 23.629v18.848c-0.53125 0.20703-1.1523 0.33203-1.9844 0.33203-1.8086 0-2.6367-0.59375-3.6875-1.3438-0.53125-0.38281-1.0977-0.78516-1.8008-1.1133v-3.9531c0-0.64844-0.52344-1.1719-1.1719-1.1719h-14.684c-0.64844 0-1.1719 0.52344-1.1719 1.1719v4.1797c-0.91016-0.50391-2.0469-0.89453-3.6953-0.89453-2.5586 0-3.8828 0.94531-5.0508 1.7812-0.60156 0.42969-1.1328 0.80859-1.8125 1.0547v-6.1172c0-0.64844-0.52344-1.1719-1.1719-1.1719h-20.242c-0.64844 0-1.1719 0.52344-1.1719 1.1719v5.3789c-1.5039-1.0391-2.6133-2.0625-5.4922-2.0938-0.75781 0-1.4062 0.085937-1.9766 0.22266zm0 18.73c0.53125-0.20703 1.1523-0.32812 1.9766-0.32812 1.8086 0 2.6367 0.59375 3.6875 1.3438 0.53516 0.38281 1.1055 0.78906 1.8086 1.1133v8.0273c-1.5039-1.0391-2.6133-2.0625-5.4922-2.0938-0.75781 0-1.4062 0.085938-1.9766 0.22266v-8.2852zm1.9766 18.793c-0.66797 0-1.332 0.066407-1.9766 0.22266v-8.2852c0.53125-0.20703 1.1523-0.32812 1.9766-0.32812 1.8086 0 2.6367 0.59375 3.6875 1.3438 0.53516 0.38281 1.1055 0.78906 1.8086 1.1133v8.0273c-1.5078-1.0391-2.6094-2.0625-5.4922-2.0938zm17.469 0c-4.957-0.058593-5.0625 3.6602-9.6328 3.0664v-8.375c5.5664 0.47656 5.5898-3.0977 9.6328-3.082 3.7383 0 3.9609 2.9375 8.2656 3.1133v8.3867c-3.3516-0.22266-3.7422-3.1367-8.2656-3.1094zm45.66 2.793c-0.47656 0.18359-1.1094 0.33203-1.9844 0.33203-1.8086 0-2.6367-0.59375-3.6875-1.3438-1.168-0.83594-2.4883-1.7812-5.0508-1.7812-2.5586 0-3.8828 0.94531-5.0508 1.7812-1.0508 0.75-1.8789 1.3438-3.6875 1.3438s-2.6367-0.59375-3.6875-1.3438c-1.168-0.83594-2.4883-1.7812-5.0508-1.7812-2.5586 0-3.8828 0.94531-5.0508 1.7812-0.60156 0.42969-1.1328 0.80859-1.8125 1.0547v-8.2969c3.0547-0.65625 3.5625-2.9375 6.8633-2.9258 3.8711 0.003907 3.9844 3.1484 8.7344 3.125 4.7617 0.019532 4.8555-3.1172 8.7344-3.125 1.8086 0 2.6367 0.59375 3.6875 1.3438 1.6797 1.3516 4.1367 2.2422 7.0312 1.5547v8.2812z"/>
<text x="0.0" y="117.5" font-size="5.0" font-weight="bold" font-family="Arbeit Regular, Helvetica, Arial-Unicode, Arial, Sans-serif" fill="#000000">Created by Setitik pixel</text><text x="0.0" y="122.5" font-size="5.0" font-weight="bold" font-family="Arbeit Regular, Helvetica, Arial-Unicode, Arial, Sans-serif" fill="#000000">from Noun Project</text></svg>