<svg xmlns="http://www.w3.org/2000/svg" xmlns:xlink="http://www.w3.org/1999/xlink" version="1.1" x="0px" y="0px" viewBox="0 0 504 630.0862500000001" style="enable-background:new 0 0 504 504.069;" xml:space="preserve"><path d="M6.617,101.599l107.227,92.732c0.7,0.605,1.169,1.436,1.326,2.349c0.074,0.433,7.602,43.472,22.801,64.237  c11.942,16.314,62.361,56.111,83.484,72.465c4.837,3.744,11.858,2.884,15.648-1.922c3.824-4.849,2.99-11.905-1.858-15.729  l-53.303-42.041c-1.735-1.368-2.032-3.883-0.664-5.618c1.368-1.734,3.883-2.031,5.618-0.663l53.299,42.038  c0.002,0.001,0.003,0.002,0.005,0.003c0.003,0.003,0.006,0.005,0.009,0.008l22.035,17.38c4.804,3.788,11.796,2.963,15.585-1.842  c3.789-4.804,2.963-11.796-1.841-15.585c0,0-0.001-0.001-0.001-0.001l-75.346-59.427c-1.735-1.368-2.032-3.883-0.664-5.618  c1.367-1.734,3.882-2.031,5.618-0.664l92.067,72.615c2.328,1.836,5.232,2.657,8.174,2.308c2.943-0.348,5.575-1.82,7.411-4.148  c1.835-2.327,2.655-5.23,2.308-8.174s-1.821-5.575-4.148-7.411l-92.067-72.615c-1.735-1.368-2.032-3.883-0.664-5.618  c1.368-1.736,3.883-2.031,5.618-0.664l67.659,53.364c0,0,0.001,0.001,0.002,0.001c4.804,3.788,11.797,2.963,15.585-1.842  c1.835-2.327,2.655-5.229,2.308-8.173s-1.821-5.576-4.148-7.411l-80.127-63.199c-1.734-1.368-2.032-3.883-0.664-5.618  c1.368-1.735,3.883-2.031,5.618-0.664l13.511,10.657l37.716,13.153c6.873,2.396,14.565-0.939,17.514-7.592  c2.957-6.671,0.25-14.616-6.162-18.087c-16.499-8.934-42.847-22.855-61.377-30.974c-0.684-0.097-1.342-0.376-1.914-0.83  c-5.009-2.147-9.368-3.818-12.68-4.769c-21.383-6.138-53.131,0.627-53.448,0.697c-1.531,0.332-3.112-0.259-4.05-1.512L54.253,6.466  c-1.324-1.768-0.964-4.275,0.804-5.599c1.768-1.324,4.275-0.964,5.599,0.804l103.873,138.711c8.311-1.556,34.965-5.761,54.812-0.063  c3.226,0.926,7.357,2.482,12.064,4.463c6.002-6.273,10.754-10.675,14.458-13.382c20.326-14.856,58.254-22.46,66.202-23.928  L403.948,1.381c1.445-1.668,3.971-1.853,5.642-0.405c1.67,1.446,1.851,3.972,0.405,5.642l-92.809,107.16  c-0.606,0.7-1.437,1.168-2.35,1.324c-0.432,0.074-43.478,7.572-64.252,22.756c-2.873,2.099-6.693,5.586-11.365,10.355  c18.524,8.428,42.34,21.018,57.695,29.332c10.056,5.445,14.302,17.904,9.666,28.364c-3.61,8.146-11.756,13.121-20.283,13.121  c-2.394,0-4.816-0.392-7.179-1.216l-15.826-5.519l40.572,32l14.841-18.788c1.369-1.733,3.885-2.028,5.618-0.66  c1.733,1.37,2.029,3.885,0.66,5.619l-14.837,18.783l0.507,0.4c4.005,3.159,6.541,7.689,7.139,12.754  c0.598,5.065-0.812,10.062-3.971,14.066c-2.561,3.247-5.974,5.436-9.673,6.504l12.213,9.633c2.095,1.652,3.776,3.686,5,5.97  c2.279-1.281,4.165-3.165,5.448-5.531c11.751-21.666,32.137-60.343,36.627-75.944c6.143-21.342-0.591-53.131-0.659-53.45  c-0.326-1.51,0.246-3.073,1.47-4.015L497.561,57.039c1.75-1.347,4.262-1.021,5.609,0.73c1.347,1.75,1.021,4.262-0.73,5.609  L371.091,164.465c1.544,8.27,5.751,34.977,0.031,54.851c-0.693,2.408-1.741,5.324-3.049,8.6  c7.817,8.312,13.052,14.627,15.974,19.268c13.415,21.305,18.377,59.668,19.292,67.698l99.482,99.001  c1.565,1.558,1.572,4.091,0.014,5.656c-0.782,0.786-1.809,1.179-2.835,1.179c-1.021,0-2.041-0.388-2.822-1.165l-100.485-99.998  c-0.656-0.653-1.065-1.514-1.158-2.436c-0.044-0.437-4.546-43.897-18.257-65.673c-2.315-3.677-6.558-8.87-12.625-15.461  c-8.387,18.897-22,44.625-30.813,60.875c-2.291,4.223-5.939,7.557-10.27,9.537c0.303,4.707-1.099,9.299-4.043,13.031  c-3.159,4.005-7.688,6.54-12.754,7.139c-0.761,0.09-1.522,0.134-2.277,0.134c-4.269,0.001-8.386-1.421-11.789-4.105l-4.54-3.581  c-0.175,3.851-1.493,7.683-4.056,10.934c-3.764,4.772-9.363,7.264-15.015,7.264c-1.917,0-3.837-0.3-5.697-0.881  c-1.639,2.01-3.229,3.938-4.77,5.785c14.825,8.616,25.516,14.145,31.79,16.431c20.867,7.604,53.045,3.086,53.367,3.039  c1.54-0.222,3.078,0.473,3.927,1.78l87.342,134.523c1.203,1.854,0.676,4.331-1.177,5.533c-0.673,0.438-1.428,0.646-2.174,0.646  c-1.31,0.001-2.593-0.642-3.359-1.821L342.371,369.83c-8.391,0.971-35.285,3.305-54.691-3.767  c-6.883-2.508-18.418-8.477-34.303-17.747c-1.242,1.441-2.442,2.815-3.597,4.116c-6.854,7.724-12.161,13.006-16.222,16.147  c-19.915,15.406-57.626,24.04-65.528,25.723L79.07,502.608c-0.791,0.963-1.938,1.461-3.093,1.461c-0.894,0-1.792-0.298-2.537-0.909  c-1.707-1.402-1.954-3.923-0.552-5.63l89.855-109.396c0.586-0.714,1.403-1.203,2.31-1.384c0.43-0.086,43.255-8.752,63.609-24.498  c3.612-2.794,8.704-7.884,15.133-15.13c3.719-4.191,7.925-9.154,12.523-14.77l-8.855-6.984c-0.166,3.889-1.49,7.763-4.079,11.046  c-3.774,4.785-9.417,7.289-15.109,7.289c-4.108,0-8.241-1.304-11.718-3.995c-26.57-20.571-72.951-57.547-85.042-74.066  c-2.127-2.906-4.102-6.18-5.936-9.668c-6.329,13.978-10.326,24.107-11.886,30.139c-5.568,21.538,2.038,53.095,2.116,53.411  c0.358,1.462-0.135,3.002-1.275,3.983L6.61,436.419c-0.755,0.65-1.684,0.969-2.608,0.969c-1.125,0-2.242-0.472-3.033-1.391  c-1.441-1.674-1.252-4.199,0.421-5.641l106.101-91.344c-1.755-8.138-6.735-34.821-1.542-54.903  c1.898-7.342,7.01-20.004,15.181-37.623c-8.118-19.292-12.509-41.207-13.589-47.031L1.383,107.649  c-1.671-1.445-1.854-3.971-0.409-5.642C2.42,100.337,4.945,100.152,6.617,101.599z"/><text x="0" y="519.069" fill="#000000" font-size="5px" font-weight="bold" font-family="'Helvetica Neue', Helvetica, Arial-Unicode, Arial, Sans-serif">Created by Amethyst Studio</text><text x="0" y="524.069" fill="#000000" font-size="5px" font-weight="bold" font-family="'Helvetica Neue', Helvetica, Arial-Unicode, Arial, Sans-serif">from the Noun Project</text></svg>