<svg xmlns="http://www.w3.org/2000/svg" version="1.1" viewBox="-5.0 -10.0 110.0 135.0">
 <path d="m8.875 58.234c6.6875-5.4922 16.57-4.5391 22.086 2.1328 2.7656 3.3438 3.9102 7.4922 3.5312 11.5-0.82031 8.6289-8.5039 14.98-17.129 14.16-8.625-0.82031-14.98-8.5117-14.16-17.129 0.37891-3.9922 2.2734-7.8359 5.5898-10.598 0.027343-0.023437 0.054687-0.046875 0.082031-0.066406zm27.855 33.527-2.2344-3.7461c10.898 5.3633 23.852 4.6953 34.152-1.75 0.44531-0.27734 0.58203-0.86719 0.30469-1.3125s-0.86719-0.58203-1.3125-0.30078c-9.7734 6.1133-22.102 6.7148-32.426 1.5938l4.5898-0.23438c0.52734-0.023438 0.93359-0.47266 0.91016-0.99609-0.023438-0.52734-0.47266-0.93359-0.99609-0.91016l-7.8984 0.40234c-0.71484 0.035157-1.1445 0.82031-0.77344 1.4414l4.0508 6.793c0.26953 0.45312 0.85547 0.59766 1.3086 0.32812 0.44531-0.27344 0.59375-0.85937 0.32422-1.3086zm48.188-49.371c0.14453-0.50781 0.66797-0.80469 1.1758-0.66016s0.80469 0.66797 0.66016 1.1758l-2.1523 7.6094c-0.19141 0.68359-1.0586 0.94922-1.6016 0.41016l-5.6914-5.4375c-0.38281-0.36328-0.39844-0.96875-0.035156-1.3477 0.36328-0.38281 0.96875-0.39844 1.3477-0.035156l3.4141 3.2617c-2.1367-7.5703-6.918-14.145-13.402-18.535-0.43359-0.29297-0.55078-0.88672-0.25391-1.3242 0.29297-0.43359 0.88672-0.55078 1.3242-0.25391 6.7578 4.5781 11.75 11.355 14.059 19.215zm-61.793-12.312c-1.2461 0.17188-1.5078-1.7188-0.26172-1.8906l7.832-1.0898c0.70313-0.097656 1.293 0.58594 1.0156 1.3047l-2.6953 7.3984c-0.42969 1.1797-2.2227 0.52734-1.793-0.64844l1.6133-4.4297c-6.0117 4.9609-10.184 11.945-11.586 19.707-0.22266 1.2383-2.0977 0.89844-1.875-0.33594 1.4609-8.0977 5.7461-15.367 11.961-20.598zm3.3828 21.801 9.7969-15.055c0.28516-0.44141 0.16016-1.0312-0.28125-1.3203-0.44141-0.28906-1.0312-0.16016-1.3203 0.28125l-9.7969 15.055c-0.28516 0.44141-0.16016 1.0312 0.28125 1.3203 0.44141 0.28516 1.0312 0.16016 1.3203-0.28125zm37.188-15.055 9.8633 15.156c0.28906 0.44141 0.87891 0.56641 1.3203 0.28125 0.44141-0.28906 0.56641-0.87891 0.28125-1.3203l-9.8633-15.156c-0.28906-0.44141-0.87891-0.56641-1.3203-0.28125-0.44141 0.28906-0.56641 0.87891-0.28125 1.3203zm-26.742 43.117c-1.2578 0-1.2578-1.9141 0-1.9141h26.031c1.2578 0 1.2578 1.9141 0 1.9141zm2.0664-46.18-1.168-1.2773c-2.7383-3.3359-3.875-7.4688-3.4961-11.457 0.82031-8.6406 8.4883-14.98 17.129-14.16 8.6406 0.82031 14.98 8.4883 14.16 17.129-0.81641 8.6211-8.4844 14.98-17.129 14.16-3.4844-0.32812-6.8555-1.8125-9.4961-4.3945zm0.35156-2.4375c2.0508-4.168 5.9141-7.3281 10.629-7.3281s8.582 3.1602 10.629 7.332c4.2109-5.0664 4.2617-12.441 0.011719-17.613-2.4297-2.9414-5.8203-4.6172-9.3359-4.9492-7.5781-0.71875-14.332 4.8633-15.051 12.441-0.33203 3.5039 0.66797 7.1328 3.0781 10.07 0.011719 0.015625 0.027344 0.03125 0.039063 0.046875zm19.836 1.4805c-1.6523-3.8281-4.9922-6.8906-9.207-6.8906s-7.5547 3.0625-9.207 6.8945c5.1914 4.6523 13.148 4.6992 18.414-0.003906zm-9.207-20.797c-3.1328 0-5.7031 2.5312-5.7031 5.668s2.5703 5.668 5.7031 5.668 5.7031-2.5312 5.7031-5.668-2.5703-5.668-5.7031-5.668zm2.6836 3.0117c-2.3672-2.3477-6.4727-0.70312-6.4727 2.6523s4.1055 5.0039 6.4727 2.6523c1.4766-1.4609 1.4766-3.8438 0-5.3047zm-2.6836 34.852c3.7305 0 6.7578 3.0234 6.7578 6.7578 0 3.7305-3.0234 6.7578-6.7578 6.7578-3.7305 0-6.7578-3.0234-6.7578-6.7578s3.0273-6.7578 6.7578-6.7578zm3.4258 3.332c-3.043-3.043-8.2695-0.87891-8.2695 3.4258 0 4.3008 5.2266 6.4688 8.2695 3.4258 1.8906-1.8945 1.8906-4.9609 0-6.8516zm0.29688-7.9414 1.6797 0.69531 2.7773-1.5352c0.38281-0.21094 0.84375-0.13281 1.1367 0.16016l2.7266 2.7266c0.32422 0.32422 0.36719 0.81641 0.13281 1.1875l-1.5039 2.7227 0.69531 1.6797 3.043 0.87891c0.41797 0.12109 0.6875 0.50391 0.6875 0.91406h0.003906v3.8555c0 0.46484-0.33203 0.85156-0.76953 0.9375l-2.9648 0.85547-0.69531 1.6797 1.5352 2.7773c0.21094 0.38281 0.12891 0.84375-0.16016 1.1367l-2.7266 2.7266c-0.32422 0.32422-0.81641 0.36719-1.1875 0.13281l-2.7266-1.5039-1.6797 0.69531-0.87891 3.043c-0.12109 0.41797-0.50391 0.6875-0.91406 0.6875v0.003906h-3.8555c-0.46484 0-0.85156-0.33203-0.9375-0.77344l-0.85547-2.9648-1.6797-0.69531-2.7773 1.5312c-0.38281 0.21094-0.84375 0.13281-1.1328-0.16016l-2.7266-2.7266c-0.32422-0.32031-0.36719-0.81641-0.13281-1.1875l1.5039-2.7266-0.69531-1.6797-3.043-0.87891c-0.41797-0.12109-0.6875-0.50391-0.6875-0.91406h-0.003906l-0.007812-3.8438c0-0.46484 0.33203-0.85156 0.76953-0.9375l2.9648-0.85547 0.69531-1.6797-1.5352-2.7773c-0.21094-0.38281-0.13281-0.84375 0.16016-1.1328l2.7266-2.7266c0.32422-0.32422 0.82031-0.36719 1.1875-0.13281l2.7266 1.5039 1.6797-0.69531 0.87891-3.043c0.12109-0.41797 0.50391-0.6875 0.91406-0.6875v-0.003906h3.8555c0.46484 0 0.85156 0.33203 0.9375 0.76953zm0.12109 2.0781c-0.37891-0.15625-0.76172-0.28906-1.1484-0.39844-0.30859-0.085937-0.56641-0.32422-0.66016-0.65234l-0.82422-2.8516h-2.4258l-0.8125 2.8164c-0.082031 0.32422-0.32812 0.59375-0.67188 0.6875-0.67578 0.1875-1.6055 0.55469-2.207 0.91016-0.28516 0.17969-0.65234 0.19922-0.96875 0.027344l-2.6016-1.4336-1.7109 1.7109 1.4336 2.6016c0.15234 0.28125 0.16406 0.63281-0.007813 0.92969-0.39453 0.69531-0.71484 1.4727-0.92969 2.2422-0.085938 0.30859-0.32422 0.56641-0.65234 0.66016l-2.8516 0.82422v2.4258l2.8164 0.8125c0.32422 0.082031 0.59375 0.32812 0.6875 0.67188 0.1875 0.67578 0.55469 1.6055 0.91016 2.207 0.17969 0.28516 0.19922 0.65234 0.027344 0.96875l-1.4336 2.6016 1.7109 1.7109 2.6016-1.4336c0.28125-0.15234 0.63281-0.16406 0.92969 0.007813 0.69531 0.39453 1.4727 0.71484 2.2422 0.92969 0.30859 0.085938 0.56641 0.32422 0.66016 0.65234l0.82422 2.8516h2.4258l0.8125-2.8164c0.082031-0.32422 0.32812-0.59375 0.67188-0.6875 0.67578-0.1875 1.6055-0.55469 2.207-0.91016 0.28516-0.17969 0.65234-0.19922 0.96875-0.027344l2.6016 1.4336 1.7109-1.7109-1.4336-2.6016c-0.15234-0.28125-0.16406-0.63281 0.007812-0.92969 0.39453-0.69531 0.71484-1.4727 0.92969-2.2422 0.085937-0.30859 0.32422-0.56641 0.65234-0.66016l2.8516-0.82422v-2.4258l-2.8164-0.8125c-0.32422-0.082031-0.59375-0.32812-0.6875-0.67188-0.1875-0.67578-0.55469-1.6055-0.91016-2.207-0.17969-0.28516-0.19922-0.65234-0.027344-0.96875l1.4336-2.6016-1.7109-1.7109-2.6016 1.4336c-0.28125 0.15234-0.63281 0.16406-0.92969-0.007812-0.34766-0.19531-0.71094-0.375-1.0938-0.53125zm16.328 34.293-1.1367-1.2344c-2.7617-3.3438-3.9102-7.4922-3.5273-11.496 0.82031-8.6406 8.4883-14.98 17.129-14.16 8.6406 0.82031 14.98 8.4883 14.16 17.129-0.82031 8.6289-8.5039 14.98-17.129 14.16-3.4844-0.33203-6.8594-1.8203-9.4961-4.3984zm0.35156-2.4375c2.0508-4.168 5.9141-7.3281 10.629-7.3281s8.582 3.1602 10.629 7.332c4.2109-5.0664 4.2617-12.441 0.011719-17.613-4.8398-5.8867-13.57-6.6953-19.438-1.8477-2.9414 2.4297-4.6172 5.8203-4.9492 9.3359-0.33203 3.5039 0.66797 7.1328 3.0781 10.07 0.011719 0.019531 0.027344 0.035157 0.039063 0.050781zm19.836 1.4766c-1.6523-3.8281-4.9922-6.8906-9.207-6.8906s-7.5547 3.0664-9.207 6.8945c5.1914 4.6562 13.148 4.7031 18.414-0.003906zm-9.207-20.793c-3.1328 0-5.7031 2.5312-5.7031 5.668s2.5703 5.668 5.7031 5.668c3.1328 0 5.7031-2.5312 5.7031-5.668s-2.5703-5.668-5.7031-5.668zm2.6836 3.0117c-2.3672-2.3477-6.4727-0.70312-6.4727 2.6523s4.1055 5.0039 6.4727 2.6523c1.4766-1.4609 1.4766-3.8438 0-5.3047zm-75.621 16.305c2.0508-4.1719 5.9141-7.3281 10.629-7.3281s8.582 3.1602 10.629 7.332c4.1992-5.0547 4.2734-12.457 0.011719-17.613-4.8633-5.8828-13.555-6.6992-19.438-1.8477-5.8945 4.8672-6.6953 13.641-1.832 19.457zm19.84 1.4805c-1.6523-3.8281-4.9922-6.8945-9.207-6.8945s-7.5547 3.0664-9.207 6.8945c5.1953 4.6602 13.137 4.7109 18.414 0zm-9.207-20.797c-3.1328 0-5.7031 2.5312-5.7031 5.668 0 3.1328 2.5703 5.668 5.7031 5.668 3.1328 0 5.7031-2.5312 5.7031-5.668s-2.5703-5.668-5.7031-5.668zm2.6836 3.0117c-2.3672-2.3477-6.4727-0.70312-6.4727 2.6523s4.1055 5.0039 6.4727 2.6523c1.4727-1.4609 1.4727-3.8438 0-5.3047z" fillRule="evenodd"/>
</svg>