<svg xmlns="http://www.w3.org/2000/svg" xmlnsXlink="http://www.w3.org/1999/xlink" version="1.1" x="0px" y="0px" viewBox="0 0 488 620.00125" style="enable-background:new 0 0 488 496.001;" xmlSpace="preserve"><g><path d="M233.59,44.185l-1.26,19.524c-0.108,1.676-1.252,3.106-2.863,3.58c-1.612,0.475-3.347-0.109-4.345-1.46l-11.699-15.833   c-0.047-0.063-0.092-0.128-0.135-0.194c-0.614-0.943-1.454-1.463-2.233-1.385c-8.411,0.81-17.561,4.247-22.459,6.316   c4.749,9.53,10.621,20.336,15.6,29.267h79.61c4.979-8.931,10.851-19.738,15.6-29.267c-4.899-2.07-14.048-5.506-22.459-6.316   c-0.784-0.078-1.619,0.442-2.233,1.385c-0.043,0.066-0.088,0.131-0.135,0.194l-11.699,15.833c-0.998,1.351-2.733,1.935-4.345,1.46   c-1.611-0.474-2.755-1.904-2.863-3.58l-1.262-19.555c-0.004-0.059-0.013-0.11-0.024-0.154h-20.765   C233.606,44.051,233.595,44.112,233.59,44.185z"/><path d="M214.428,100h59.145c0.713,0,1.376-0.381,1.729-0.995c1.033-1.793,2.406-4.189,4.004-7.005h-70.612   c1.598,2.816,2.971,5.212,4.004,7.005C213.052,99.619,213.715,100,214.428,100z"/><path d="M172.341,25.013c8.93,4.73,20.386,3.78,34.051-2.822c10.584-5.06,18.101-2.936,22.546-0.264   c5.575,3.351,8.997,9.056,10.369,14.073h8.163c-1.69-8.396-7.22-16.607-14.411-20.929c-8.659-5.207-19.36-5.238-30.132-0.091   c-7.73,3.735-18.676,7.289-26.842,2.964c-5.742-3.042-9.611-9.075-11.514-17.943h-7.856   C159.925,17.188,169.411,23.46,172.341,25.013z"/><path d="M228,151.559c0,7.201,4.774,12.54,12,13.975v-27.875C233.111,139.261,228,144.876,228,151.559z"/><path d="M260,188.305c0-3.229-0.003-12.452-12-14.113v28.013C254.889,200.602,260,194.987,260,188.305z"/><path d="M477.418,376.893c-2.869-3.109-6.92-4.893-11.113-4.893H428v-76c0-2.209-1.791-4-4-4H248v-36.102   c42.261-2.091,76-37.128,76-79.898c0-29.848-16.872-57.373-43.252-71.05c-1.86,1.916-4.442,3.05-7.175,3.05h-59.145   c-2.733,0-5.315-1.134-7.175-3.05C180.872,118.627,164,146.152,164,176c0,42.771,33.739,77.807,76,79.898V292H64   c-2.209,0-4,1.791-4,4v72H21.695c-4.193,0-8.244,1.784-11.113,4.893C6.63,377.177,0,386.654,0,402s6.63,24.823,10.582,29.107   c2.869,3.109,6.92,4.893,11.113,4.893h84.609c4.193,0,8.244-1.784,11.113-4.893C121.37,426.823,128,417.346,128,402   s-6.63-24.823-10.582-29.107c-2.869-3.109-6.92-4.893-11.113-4.893H68v-68h172v68h-38.305c-4.193,0-8.244,1.784-11.113,4.893   C186.63,377.177,180,386.654,180,402s6.63,24.823,10.582,29.107c2.869,3.109,6.92,4.893,11.113,4.893h84.609   c4.193,0,8.244-1.784,11.113-4.893C301.37,426.823,308,417.346,308,402s-6.63-24.823-10.582-29.107   c-2.869-3.109-6.92-4.893-11.113-4.893H248v-68h172v72h-38.305c-4.193,0-8.244,1.784-11.113,4.893   C366.63,381.177,360,390.654,360,406s6.63,24.823,10.582,29.107c2.869,3.109,6.92,4.893,11.113,4.893h84.609   c4.193,0,8.244-1.784,11.113-4.893C481.37,430.823,488,421.346,488,406S481.37,381.177,477.418,376.893z M244,220.105   c-2.209,0-4-1.791-4-4v-5.745c-11.335-1.781-20-10.99-20-22.056c0-2.209,1.791-4,4-4s4,1.791,4,4c0,6.683,5.111,12.298,12,13.9   v-28.546c-11.8-1.623-20-10.416-20-22.1c0-11.066,8.665-20.275,20-22.056V124c0-2.209,1.791-4,4-4s4,1.791,4,4v5.503   c11.335,1.781,20,10.99,20,22.056c0,2.209-1.791,4-4,4s-4-1.791-4-4c0-6.683-5.111-12.298-12-13.9v28.498   c12.76,1.339,20,9.229,20,22.147c0,11.066-8.665,20.275-20,22.056v5.745C248,218.314,246.209,220.105,244,220.105z"/><path d="M228.003,456.073c-0.001,0-0.002,0-0.003,0l-34.105,0c-2.209,0-4,1.791-4,4s1.791,4,4,4l23.264,0   C203.305,474.346,181.555,484,156,484c-31.228,0-56.782-14.416-69.177-26.761c-1.566-1.56-4.099-1.554-5.657,0.011   c-1.559,1.565-1.554,4.098,0.011,5.657C94.652,476.328,122.333,492,156,492c25.629,0,47.781-9.083,62.846-19.341l-6.919,17.898   c-0.796,2.061,0.228,4.377,2.289,5.173c0.474,0.183,0.962,0.27,1.441,0.27c1.604,0,3.119-0.972,3.732-2.559l12.315-31.854   c0.001-0.002,0.002-0.005,0.003-0.007C232.861,458.644,230.446,455.974,228.003,456.073z"/><path d="M407.703,346.485l-12.315-31.856c-0.797-2.061-3.112-3.083-5.173-2.289c-2.061,0.796-3.085,3.113-2.289,5.173l6.919,17.898   c-15.065-10.257-37.217-19.341-62.845-19.341c-33.667,0-61.348,15.672-74.823,29.094c-1.565,1.559-1.57,4.092-0.011,5.657   c1.559,1.564,4.092,1.57,5.657,0.011c12.395-12.345,37.949-26.762,69.177-26.762c25.555,0,47.305,9.655,61.159,19.928h-23.264   c-2.209,0-4,1.791-4,4s1.791,4,4,4H404c2.622,0,4.784-2.521,3.705-5.509C407.704,346.489,407.704,346.487,407.703,346.485z"/></g></svg>