<svg xmlns="http://www.w3.org/2000/svg" version="1.1" viewBox="-5.0 -10.0 110.0 135.0">
 <path d="m62.887 73.812 4.0508-4.0508-1.4375-1.4375 0.003906-0.003907c-0.39062-0.39062-0.46875-1.0078-0.16016-1.4922 0.57031-0.89062 1.0664-1.8359 1.4766-2.8242 0.39453-0.94922 0.71094-1.9492 0.9375-2.9805 0.097657-0.56641 0.58984-0.99609 1.1797-0.99609h2.0312v-5.7266h-2.0312c-0.55078 0-1.0469-0.38281-1.1719-0.94531-0.22656-1.0508-0.54688-2.0664-0.94531-3.0312-0.39844-0.96484-0.88281-1.8867-1.4375-2.7578-0.34375-0.46875-0.30469-1.1328 0.11719-1.5547l1.4375-1.4375-4.0508-4.0508-1.4375 1.4375-0.003907-0.003907c-0.39062 0.39062-1.0078 0.46875-1.4922 0.16016-0.89062-0.57031-1.8359-1.0703-2.8242-1.4805-0.94922-0.39453-1.9492-0.71094-2.9805-0.9375-0.56641-0.097657-0.99609-0.58984-0.99609-1.1797v-2.0273h-5.7266v2.0273c0 0.55078-0.38281 1.0469-0.94531 1.1719-1.0508 0.22656-2.0664 0.54688-3.0312 0.94922-0.96484 0.39844-1.8867 0.88281-2.7578 1.4375-0.46875 0.34375-1.1328 0.30469-1.5547-0.11719l-1.4375-1.4375-4.0508 4.0508 1.4375 1.4375-0.003907 0.003906c0.39062 0.39062 0.46875 1.0078 0.16016 1.4922-0.57031 0.89063-1.0664 1.8359-1.4805 2.8242-0.39453 0.94922-0.71094 1.9492-0.9375 2.9805-0.097657 0.56641-0.58984 0.99609-1.1797 0.99609h-2.0312v5.7266h2.0312c0.55078 0 1.0469 0.38281 1.1719 0.94531 0.22656 1.0508 0.54688 2.0664 0.94531 3.0312 0.39844 0.96484 0.88281 1.8906 1.4375 2.7617 0.34375 0.46875 0.30469 1.1328-0.11719 1.5547l-1.4375 1.4375 4.0508 4.0508 1.4375-1.4375 0.003907 0.003906c0.39062-0.39062 1.0078-0.46875 1.4922-0.16016 0.89062 0.57031 1.8359 1.0703 2.8242 1.4805 0.94922 0.39453 1.9492 0.71094 2.9805 0.9375 0.56641 0.097656 0.99609 0.58984 0.99609 1.1797v2.0273h5.7266v-2.0273c0-0.55078 0.38281-1.0469 0.94531-1.1719 1.0508-0.22656 2.0664-0.54688 3.0312-0.94922 0.96484-0.39844 1.8906-0.88281 2.7578-1.4375 0.46875-0.34375 1.1328-0.30469 1.5547 0.11719l1.4375 1.4375zm-12.594-29.621c3.5859 0 6.8281 1.4531 9.1797 3.8008 2.3477 2.3477 3.8008 5.5938 3.8008 9.1797s-1.4531 6.8281-3.8008 9.1797c-2.3477 2.3477-5.5938 3.8008-9.1797 3.8008-3.5859 0-6.8281-1.4531-9.1797-3.8008-2.3477-2.3477-3.8008-5.5938-3.8008-9.1797s1.4531-6.8281 3.8008-9.1797c2.3477-2.3477 5.5938-3.8008 9.1797-3.8008zm-2.3398-28.395c0.63672-0.16797 1.293 0.21484 1.4609 0.85156 0.16797 0.63672-0.21484 1.293-0.85156 1.4609-1.3984 0.37109-2.6094 1.1992-3.4648 2.3164-0.83594 1.0938-1.3281 2.4648-1.3203 3.9492 0.003906 0.44141 0.054687 0.88281 0.14844 1.3164 0.09375 0.4375 0.23047 0.85547 0.40625 1.2461 0.26953 0.60156-0.003906 1.3086-0.60547 1.5781-0.60156 0.26953-1.3086-0.003906-1.5781-0.60547-0.24609-0.55469-0.4375-1.1289-0.5625-1.7266-0.12109-0.57031-0.19141-1.1758-0.19531-1.8047-0.015625-2.0312 0.66016-3.9102 1.8047-5.4062 1.1719-1.5312 2.8359-2.6719 4.7578-3.1797zm-25.434 26.875c-0.63672-0.16406-1.0234-0.8125-0.85938-1.4492 0.16406-0.63672 0.8125-1.0234 1.4492-0.85938 1.9258 0.49609 3.5977 1.6211 4.7773 3.1445 1.1562 1.4922 1.8477 3.3672 1.8477 5.3984 0 0.66016-0.53516 1.1992-1.1992 1.1992-0.66016 0-1.1992-0.53516-1.1992-1.1992 0-1.4844-0.5-2.8516-1.3398-3.9375-0.86328-1.1133-2.0781-1.9336-3.4805-2.2969zm-2.2812-24.566c-0.63672-0.16797-1.0195-0.82031-0.85156-1.4609 0.16797-0.63672 0.82031-1.0195 1.4609-0.85156 1.9219 0.50781 3.5859 1.6445 4.7578 3.1797 1.1445 1.5 1.8203 3.375 1.8047 5.4062-0.003906 0.62891-0.070312 1.2305-0.19531 1.8047-0.12891 0.59375-0.31641 1.1719-0.5625 1.7266-0.26953 0.60156-0.97656 0.87109-1.5781 0.60547-0.60156-0.26953-0.87109-0.97656-0.60547-1.5781 0.17578-0.39062 0.3125-0.80859 0.40625-1.2461 0.09375-0.43359 0.14453-0.875 0.14844-1.3164 0.011718-1.4844-0.48438-2.8516-1.3203-3.9492-0.85547-1.1172-2.0664-1.9492-3.4648-2.3164zm12.965 15.297v8.2383l-1.4219 1.4219c-0.41797 0.41797-0.62891 0.96875-0.62891 1.5156 0 0.50781 0.17969 1.0156 0.53906 1.418 0.027344 0.035156 0.054688 0.066406 0.085938 0.097656l0.94922 0.94922c-0.4375 0.76172-0.83203 1.5508-1.1719 2.3672-0.33594 0.80859-0.62109 1.6445-0.84766 2.4961h-1.3438c-0.58984 0-1.1289 0.24219-1.5156 0.62891-0.38672 0.38672-0.62891 0.92578-0.62891 1.5156v6.2305c0 0.58203 0.23828 1.1172 0.625 1.5078l0.007812 0.007813c0.39063 0.38672 0.92578 0.62891 1.5117 0.62891h1.3438l0.007813 0.03125c-0.28906 0.17578-0.59766 0.32422-0.92188 0.44141-0.53906 0.19531-1.125 0.30078-1.7422 0.30078-0.90234 0-1.75-0.23047-2.4805-0.64062-0.74609-0.41406-1.3789-1.0078-1.8398-1.7227-0.23828-0.4375-0.73828-0.69922-1.2578-0.60547-0.14062 0.023437-0.28516 0.042969-0.4375 0.058593-0.14453 0.011719-0.29297 0.019532-0.44531 0.019532-1.3945 0-2.6562-0.56641-3.5664-1.4766-0.91406-0.91406-1.4766-2.1758-1.4766-3.5664 0-0.40234 0.046875-0.78906 0.13281-1.1562 0.027343-0.11719 0.058593-0.23047 0.09375-0.34375 0.09375 0.003906 0.1875 0.003906 0.28125 0.003906 1.4453 0 2.8047-0.39453 3.9727-1.082 1.207-0.71094 2.2109-1.7305 2.8906-2.9531 0.32031-0.57422 0.11328-1.3047-0.46484-1.6211-0.57422-0.32031-1.3047-0.11328-1.6211 0.46484-0.47656 0.85156-1.1719 1.5625-2.0117 2.0586-0.80469 0.47266-1.7539 0.74609-2.7656 0.74609-1.5078 0-2.875-0.61328-3.8633-1.6016-0.98828-0.98828-1.6016-2.3555-1.6016-3.8633 0-0.42578 0.046875-0.83203 0.12891-1.2109 0.089844-0.39062 0.22266-0.77344 0.39844-1.1406 0.28516-0.59766 0.03125-1.3125-0.56641-1.5938-0.042969-0.019531-0.089843-0.039062-0.13672-0.054687-1.1758-0.5-2.1719-1.3359-2.875-2.3867-0.69141-1.0352-1.0977-2.2852-1.0977-3.6328 0-1.8047 0.73047-3.4375 1.9141-4.6211 1.1836-1.1836 2.8164-1.9141 4.6211-1.9141 1.8047 0 3.4375 0.73047 4.6211 1.9141s1.9141 2.8164 1.9141 4.6211c0 0.66016 0.53516 1.1992 1.1992 1.1992 0.66016 0 1.1992-0.53516 1.1992-1.1992 0-2.4648-1-4.6992-2.6172-6.3164-1.6172-1.6172-3.8516-2.6172-6.3164-2.6172-1.7266 0-3.3398 0.48828-4.707 1.3398-0.054687-0.33203-0.082031-0.67969-0.082031-1.043 0-1.4844 0.5-2.8516 1.3398-3.9375 0.72266-0.93359 1.6992-1.6641 2.8203-2.0859 1.1719 1.1094 2.7539 1.7891 4.4922 1.7891 0.66016 0 1.1992-0.53516 1.1992-1.1992 0-0.66016-0.53516-1.1992-1.1992-1.1992-1.1445 0-2.1797-0.46484-2.9297-1.2148s-1.2148-1.7852-1.2148-2.9297 0.46484-2.1797 1.2148-2.9297 1.7852-1.2148 2.9297-1.2148c0.64453 0 1.2422 0.074218 1.7617 0.24609 0.45313 0.15234 0.85547 0.38672 1.1914 0.72266 0.21875 0.26172 0.54688 0.42578 0.91406 0.42578 0.66016 0 1.1992-0.53516 1.1992-1.1992 0-1.4141 0.57812-2.6992 1.5117-3.6328 0.93359-0.93359 2.2188-1.5117 3.6328-1.5117 1.4141 0 2.6992 0.57812 3.6328 1.5117s1.5117 2.2188 1.5117 3.6328v16.668c-0.24219 0.66016-0.60547 1.2852-1.0742 1.8516-0.49609 0.60156-1.1094 1.1211-1.8203 1.5273-0.39453 0.22266-0.80078 0.40234-1.2109 0.53516-0.42188 0.13672-0.85547 0.22656-1.2852 0.27344-0.65625 0.066406-1.1328 0.65234-1.0664 1.3086 0.066407 0.65625 0.65234 1.1328 1.3086 1.0664 0.59375-0.0625 1.1875-0.1875 1.7734-0.375 0.56641-0.18359 1.125-0.42578 1.6602-0.73047 0.63281-0.35938 1.2031-0.78516 1.7148-1.2617zm22.039 33.129c-1.4766 0.78125-3.1602 1.2227-4.9453 1.2227-2.9219 0-5.5703-1.1836-7.4844-3.1016-1.9141-1.9141-3.1016-4.5625-3.1016-7.4844s1.1836-5.5703 3.1016-7.4844c0.51953-0.51953 1.0898-0.98438 1.707-1.3867 0.003907 1.4492 0.16016 2.9062 0.47266 4.3477 0.44922 2.0703 1.2266 4.1172 2.3516 6.0625 1.1523 1.9922 2.5781 3.7266 4.2031 5.1797 1.1445 1.0195 2.3867 1.9023 3.6992 2.6406zm-5.3008-32.426h-2.7617c-0.58984 0-1.1289 0.24219-1.5156 0.62891l0.003907 0.003906-0.003907 0.003907c-0.38672 0.38672-0.62891 0.92187-0.62891 1.5117v1.3398c-0.85547 0.23047-1.6875 0.51562-2.4961 0.84766-0.81641 0.33984-1.6094 0.73047-2.3672 1.1719l-0.94922-0.94922c-0.41797-0.41797-0.96875-0.62891-1.5156-0.62891s-1.0977 0.21094-1.5156 0.62891l-0.58984 0.58984v-5.8438c0.50781 0.47656 1.082 0.90234 1.7148 1.2617 0.53516 0.30469 1.0938 0.54688 1.6602 0.73047 0.58594 0.1875 1.1797 0.3125 1.7734 0.375 0.65625 0.066406 1.2422-0.41016 1.3086-1.0664s-0.41016-1.2422-1.0664-1.3086c-0.43359-0.046875-0.86328-0.13672-1.2852-0.27344-0.41016-0.13281-0.81641-0.30859-1.2109-0.53516-0.71094-0.40234-1.3203-0.92578-1.8203-1.5273-0.46875-0.56641-0.83203-1.1914-1.0742-1.8516l-0.007812-16.676c0-1.4141 0.57812-2.6992 1.5117-3.6328 0.93359-0.93359 2.2188-1.5117 3.6328-1.5117 1.4141 0 2.6992 0.57812 3.6328 1.5117s1.5117 2.2188 1.5117 3.6328c0 0.66016 0.53516 1.1992 1.1992 1.1992 0.36719 0 0.69531-0.16406 0.91406-0.42578 0.33594-0.33594 0.73828-0.56641 1.1914-0.71875 0.51953-0.17578 1.1172-0.24609 1.7617-0.24609 1.1445 0 2.1797 0.46484 2.9297 1.2148s1.2148 1.7852 1.2148 2.9297c0 1.1445-0.46484 2.1797-1.2148 2.9297s-1.7852 1.2148-2.9297 1.2148c-0.66016 0-1.1992 0.53516-1.1992 1.1992 0 0.66016 0.53516 1.1992 1.1992 1.1992 1.7383 0 3.3203-0.67969 4.4922-1.7891 1.1211 0.42188 2.0977 1.1523 2.8203 2.0859 0.83984 1.0859 1.3398 2.4492 1.3398 3.9375 0 0.26172-0.015624 0.50781-0.039062 0.73828l-0.007812 0.046876c-0.10547 0.03125-0.20703 0.0625-0.3125 0.09375-0.58203-0.33203-1.2031-0.60156-1.8555-0.80078-0.81641-0.24609-1.6836-0.37891-2.5742-0.37891-1.2539 0-2.4492 0.26172-3.5352 0.72656-1.125 0.48438-2.1328 1.1992-2.9648 2.0781-0.45312 0.48047-0.42969 1.2383 0.050781 1.6875 0.48047 0.45312 1.2383 0.42969 1.6875-0.050782 0.60547-0.64062 1.3438-1.1602 2.168-1.5195 0.79297-0.34375 1.668-0.53125 2.5898-0.53125 0.41016 0 0.80859 0.035156 1.1953 0.10938-0.31641 0.16016-0.62891 0.33203-0.94141 0.51172l-0.039062 0.019531c-1.0547 0.60938-2.0312 1.2891-2.9297 2.0352-0.77344 0.64062-1.4961 1.3359-2.1641 2.0742zm23.164 33.719 1.0547 1.8242 5.6523-3.2656-1.0508-1.8203c-0.83984 0.67578-1.7383 1.2969-2.6992 1.8516l-0.035156 0.019532c-0.94922 0.54688-1.9258 1.0117-2.9219 1.3945zm10.285 4.8594-5.6133 3.2383 8.6914 15.055h0.003906c0.44922 0.77344 1.1758 1.2969 1.9844 1.5156 0.8125 0.21875 1.7031 0.12891 2.4766-0.31641v-0.003906c0.77344-0.44922 1.2969-1.1758 1.5156-1.9844 0.21875-0.8125 0.12891-1.7031-0.31641-2.4766h-0.003906l-8.6914-15.055-0.039062 0.023438h-0.003907zm0.14844-2.5156c0.18359 0 0.36719 0.023437 0.54688 0.070312 0.51953 0.14062 0.99219 0.47656 1.2812 0.98047l8.832 15.297v0.003906c0.77734 1.3477 0.9375 2.8906 0.5625 4.2852-0.375 1.3984-1.2812 2.6562-2.6289 3.4336h-0.003906c-1.3477 0.77734-2.8906 0.9375-4.2852 0.5625-1.3984-0.375-2.6562-1.2812-3.4336-2.6289v-0.003906l-8.7422-15.141-0.007813-0.007813-0.082031-0.14453c-0.29297-0.50781-0.35156-1.082-0.21094-1.6016 0.046874-0.17578 0.11719-0.34766 0.21094-0.50781l-1.457-2.5195c-0.21875 0.019531-0.43359 0.003906-0.64062-0.050782-0.44141-0.11719-0.83984-0.40625-1.0898-0.83984h-0.003906l-1.6094-2.7852c-0.50391 0.12891-1.0117 0.24219-1.5195 0.33203 0.11719 0.27344 0.17969 0.56641 0.17969 0.85938 0 0.54688-0.21094 1.0977-0.62891 1.5156l-4.4062 4.4062c-0.41797 0.41797-0.96875 0.62891-1.5156 0.62891s-1.0938-0.21094-1.5117-0.62891l-0.003906-0.003906-0.003906 0.003906-0.94922-0.94922c-0.76172 0.4375-1.5508 0.83203-2.3672 1.1719-0.80859 0.33594-1.6445 0.62109-2.4961 0.84766v1.3398c0 0.58984-0.24219 1.1289-0.62891 1.5156s-0.92578 0.62891-1.5156 0.62891h-6.2305c-0.58594 0-1.1211-0.24219-1.5117-0.62891l-0.007813-0.007813c-0.38672-0.39062-0.625-0.92187-0.625-1.5078v-1.3398c-0.85547-0.23047-1.6875-0.51562-2.4961-0.84766-0.81641-0.33984-1.6094-0.73047-2.3672-1.1719l-0.94922 0.94922c-0.41797 0.41797-0.96875 0.62891-1.5156 0.62891s-1.0938-0.21094-1.5117-0.62891l-0.003906-0.003906-0.003906 0.003906-4.4062-4.4062c-0.03125-0.03125-0.058594-0.0625-0.085938-0.097656-0.35937-0.40234-0.53906-0.91016-0.53906-1.418 0-0.54688 0.21094-1.0977 0.62891-1.5156l0.94922-0.94922c-0.4375-0.76172-0.83203-1.5508-1.1719-2.3672-0.023438-0.054688-0.046875-0.10938-0.066406-0.16406-0.28516 0.14844-0.57812 0.27734-0.88281 0.38672-0.80469 0.29297-1.6641 0.45312-2.5547 0.45312-1.3125 0-2.5547-0.34375-3.6406-0.94922-0.89062-0.49609-1.6719-1.1641-2.2969-1.9609-0.17578 0.011719-0.35156 0.019532-0.52734 0.019532-2.0547 0-3.9141-0.83203-5.2617-2.1797-1.3477-1.3477-2.1797-3.207-2.1797-5.2617 0-0.57813 0.066406-1.1484 0.19531-1.6992 0.019532-0.085938 0.039063-0.16797 0.0625-0.25-1.1094-0.39453-2.1016-1.0312-2.918-1.8477-1.4219-1.4219-2.3047-3.3867-2.3047-5.5586 0-0.58594 0.066406-1.1641 0.19531-1.7344 0.042969-0.18359 0.089844-0.36719 0.14453-0.54688-1.1914-0.6875-2.2109-1.6406-2.9727-2.7812-0.95313-1.4219-1.5078-3.1289-1.5078-4.9609 0-2.2461 0.82812-4.2969 2.1953-5.8672-0.10547-0.31641-0.19141-0.63672-0.25781-0.96484-0.12109-0.59375-0.1875-1.1953-0.1875-1.8047 0-2.0312 0.6875-3.9023 1.8477-5.3984 0.86328-1.1133 1.9844-2.0117 3.2773-2.6094-0.39062-0.83984-0.61328-1.7773-0.61328-2.7656 0-1.8047 0.73047-3.4375 1.9141-4.6211 1.1836-1.1836 2.8164-1.9141 4.6211-1.9141 0.87891 0 1.7266 0.11328 2.5195 0.37891 0.14844 0.050781 0.29297 0.10547 0.43359 0.16406 0.35547-1.2539 1.0312-2.3789 1.9297-3.2773 1.3672-1.3672 3.25-2.2148 5.3242-2.2148s3.9609 0.84766 5.3242 2.2148c0.38281 0.38281 0.72266 0.80469 1.0156 1.2578 0.29297-0.45312 0.63281-0.87891 1.0156-1.2578 1.3672-1.3672 3.25-2.2148 5.3242-2.2148s3.9609 0.84766 5.3242 2.2148c0.89844 0.89844 1.5742 2.0234 1.9297 3.2773 0.14062-0.058594 0.28516-0.11328 0.43359-0.16406 0.79297-0.26562 1.6406-0.37891 2.5195-0.37891 1.8047 0 3.4375 0.73047 4.6211 1.9141 1.1836 1.1836 1.9141 2.8164 1.9141 4.6211 0 0.98828-0.21875 1.9258-0.61328 2.7656 1.293 0.59766 2.4141 1.5 3.2773 2.6094 1.1562 1.4922 1.8477 3.3672 1.8477 5.3984 0 0.070313 0 0.14453-0.003906 0.21484 3.0195-0.51953 6.0898-0.35938 8.9883 0.41797 5.1953 1.3945 9.8633 4.7695 12.766 9.7969l0.019531 0.039062c2.8867 5.0195 3.4727 10.734 2.082 15.918-0.92188 3.4453-2.7188 6.6562-5.2852 9.2734l1.6055 2.7812v0.003906c0.24609 0.42969 0.30078 0.91797 0.17969 1.3594-0.054688 0.20703-0.14844 0.40234-0.27734 0.58203l1.457 2.5195zm-6.0352 3.1602-1.2344-2.1406 3.8281-2.2109 1.2344 2.1406zm-25.562-26.617c2.2656 0.35156 4.2891 1.4258 5.8398 2.9727 1.9141 1.9141 3.1016 4.5625 3.1016 7.4844 0 1.2812-0.22656 2.5078-0.64453 3.6445-1.1914-0.5-2.3164-1.168-3.3281-1.9922-1.2578-1.0234-2.3555-2.2891-3.2109-3.7734-0.83984-1.4531-1.3789-2.9961-1.6445-4.5625-0.21094-1.2578-0.24609-2.5273-0.10547-3.7734zm7.2188 16.242c-0.40234 0.61328-0.86328 1.1797-1.3789 1.6953-0.11328 0.11328-0.22656 0.22266-0.34766 0.33203-1.5469-0.74609-2.9961-1.707-4.3008-2.8711-1.4414-1.2891-2.707-2.8242-3.7266-4.5898-0.98828-1.7148-1.6797-3.5312-2.0781-5.3828-0.35938-1.6641-0.48438-3.3516-0.39062-5.0117 0.82812-0.27734 1.7031-0.45312 2.6094-0.51953-0.14062 1.4102-0.097656 2.8477 0.14453 4.2656 0.30859 1.8359 0.94531 3.6484 1.9336 5.3594 1.0117 1.75 2.2969 3.2383 3.7734 4.4375 1.1562 0.9375 2.4219 1.7031 3.7617 2.2812zm2.1602-27.777c0.023438 0.22656 0.035157 0.46484 0.035157 0.71094 0 0.83594-0.15234 1.6289-0.42969 2.3516-0.17578 0.44922-0.39453 0.87891-0.66016 1.2734-0.71094-0.40234-1.4492-0.76562-2.2109-1.0781-0.49219-0.20312-0.99219-0.38672-1.5-0.55469 0.10156-0.085937 0.20312-0.17188 0.30469-0.25781 0.51953-0.42578 1.0625-0.8125 1.6289-1.1523l0.21484-0.125c0.84375-0.48828 1.7227-0.875 2.6133-1.1641zm12.043 24.258v-5.3828c0-0.58594-0.24219-1.1211-0.62891-1.5117l-0.003906-0.003906c-0.38672-0.38672-0.92188-0.62891-1.5117-0.62891h-1.3438c-0.23047-0.85547-0.51562-1.6875-0.84766-2.4961-0.33984-0.81641-0.73047-1.6094-1.1719-2.3672l0.94922-0.94922-0.003907-0.003906 0.003907-0.003906c0.41797-0.41797 0.62891-0.96484 0.62891-1.5117s-0.21094-1.0977-0.62891-1.5156l-4.4062-4.4062-0.003907 0.003906-0.003906-0.003906c-0.26953-0.26953-0.58984-0.44922-0.92969-0.54688 0.18359-0.71484 0.28125-1.457 0.28125-2.2188 0-0.41406-0.03125-0.83203-0.089844-1.25 1.8281-0.25391 3.6758-0.12891 5.4297 0.33984 3.3828 0.90625 6.4219 3.1055 8.3125 6.3789h0.003907c1.8867 3.2695 2.2695 7 1.3633 10.387-0.8125 3.0352-2.668 5.793-5.4023 7.6914zm-17.887-23.77c-0.089843-0.3125-0.25-0.59766-0.46094-0.83984-0.027344-0.035157-0.054687-0.066407-0.085937-0.097657-0.38672-0.38672-0.92578-0.62891-1.5156-0.62891h-0.058593c0.089843-0.078125 0.18359-0.15625 0.27344-0.23047 0.80469-0.66797 1.6719-1.2734 2.6016-1.8086v-0.003906c1.0352-0.59766 2.1094-1.0859 3.1992-1.4688 0.035156-0.011719 0.066406-0.023438 0.10156-0.035157 0.44141-0.15234 0.88672-0.28516 1.332-0.39844 0.027344-0.007813 0.054688-0.011719 0.078125-0.019532 3.1367-0.80078 6.3867-0.75 9.4297 0.0625 4.6055 1.2344 8.7422 4.2266 11.316 8.6836h0.003906c2.5703 4.4531 3.0938 9.5312 1.8594 14.141-0.85938 3.1992-2.5625 6.1758-5.0195 8.5547-0.027344 0.011719-0.054688 0.027343-0.082031 0.042969-0.19141 0.10937-0.33984 0.26562-0.44141 0.44141-0.94531 0.84766-1.9961 1.6133-3.1406 2.2734v0.003907c-1.1406 0.66016-2.3242 1.1836-3.5273 1.5781-0.21094-0.003906-0.42188 0.046876-0.61719 0.16016-0.027344 0.015625-0.058594 0.035156-0.085937 0.054687-0.80078 0.22656-1.6055 0.39844-2.4219 0.51562 0.29688-0.55859 0.56641-1.1367 0.8125-1.7266 0.15234-0.37109 0.29688-0.74609 0.42969-1.1289 0.60938-0.15234 1.207-0.33984 1.7891-0.5625 0.78906-0.30078 1.5703-0.67187 2.3398-1.1133 3.8438-2.2188 6.4258-5.7891 7.4922-9.7617 1.0352-3.8711 0.63281-8.1289-1.4453-11.902v-0.011719l-0.16406-0.28516c-2.2188-3.8438-5.7891-6.4258-9.7617-7.4883-3.8711-1.0391-8.1328-0.63281-11.91 1.4453h-0.003906l-0.0625 0.035156c-0.074219 0.042969-0.15234 0.085938-0.22656 0.12891v0.003906c-0.73438 0.42578-1.4141 0.89062-2.0312 1.3867z" fillRule="evenodd"/>
<text x="0.0" y="117.5" font-size="5.0" font-weight="bold" font-family="Arbeit Regular, Helvetica, Arial-Unicode, Arial, Sans-serif" fill="#000000">Created by Darningsih</text><text x="0.0" y="122.5" font-size="5.0" font-weight="bold" font-family="Arbeit Regular, Helvetica, Arial-Unicode, Arial, Sans-serif" fill="#000000">from Noun Project</text></svg>