<svg xmlns="http://www.w3.org/2000/svg" data-name="Layer 1" viewBox="0 0 95 118.75" x="0px" y="0px"><path d="M41.83,33.743a5.25,5.25,0,0,0,5.245,5.243A7.812,7.812,0,0,1,48.362,54.5v3.939a1.287,1.287,0,1,1-2.574,0V54.5a7.824,7.824,0,0,1-6.532-7.7,1.287,1.287,0,0,1,2.574,0,5.239,5.239,0,1,0,5.245-5.242,7.811,7.811,0,0,1-.591-15.6V22.14a1.288,1.288,0,0,1,2.575,0v4.054a7.82,7.82,0,0,1,5.823,7.549,1.287,1.287,0,0,1-2.574,0,5.239,5.239,0,1,0-10.478,0ZM89.866,9.482a8.193,8.193,0,0,1-2.778,5.573L83.234,28.614A38,38,0,0,1,61.7,75.323L54.253,86.608A8.236,8.236,0,0,1,37.8,86.473L29.122,73.746A37.9,37.9,0,0,1,9.09,40.27a38.579,38.579,0,0,1,.559-6.516c-.01-.042-.03-.08-.036-.123L7.074,14.48A8.243,8.243,0,0,1,7.956,2.912,8.27,8.27,0,0,1,19.6,3.736c.011.014.02.028.031.041L29.777,6.451a37.988,37.988,0,0,1,30.1-1.95l16.33-1.85.034-.033a8.275,8.275,0,0,1,11.649.865A8.191,8.191,0,0,1,89.866,9.482Zm-15.743-4L58.979,7.193l-2.691,9.151a1.862,1.862,0,0,0,2.872,2.048l.625-.447a2.743,2.743,0,0,0,1.063-1.4L62.61,11.64a1.284,1.284,0,0,1,.979-.83l6.3-1.157a1.284,1.284,0,0,1,1.487.979c.8,3.522,3.352,6.474,7.176,8.313a1.285,1.285,0,0,1,.65,1.6l-2.313,6.308a1.286,1.286,0,0,1-1.035.832l-5.311.722a4.119,4.119,0,0,0-1.4.587c-.563.31-1.743,1.062-1.571,1.915.165.822,1.534,1.822,3.746,2.056.153.016.3.035.446.055a3.378,3.378,0,0,0,.874.047l6.922-.942L83.918,16.79a8.238,8.238,0,0,1-9.8-11.313Zm-4.5,29.791c-2.462-.607-4.2-2.029-4.571-3.848a3.836,3.836,0,0,1,1.416-3.685,23.326,23.326,0,0,0-6.726-6.755,4.383,4.383,0,0,1-4.248-.491,4.429,4.429,0,0,1-1.655-2.273,23.278,23.278,0,0,0-14.115.193l.2,1.437a4.444,4.444,0,0,1-7.476,3.832l-.56-.533c-.049-.047-.085-.1-.131-.146A23.288,23.288,0,0,0,26.1,30.633a3.7,3.7,0,0,1,.421,3.226A4.369,4.369,0,0,1,24.339,36.2a23.61,23.61,0,0,0-.372,4.09A22.925,22.925,0,0,0,34.416,59.605a4.41,4.41,0,0,1,3.355-.5,4.351,4.351,0,0,1,3.287,3.487,23.357,23.357,0,0,0,9.374.553,3.961,3.961,0,0,1,1.852-3.936c1.7-.957,4.049-.488,6.2,1.16a23.028,23.028,0,0,0,11.7-20.077A23.265,23.265,0,0,0,69.619,35.268ZM62.3,69.743,58.483,63.88a3.012,3.012,0,0,0-.607-.639c-.106-.095-.214-.19-.323-.292-1.622-1.524-3.278-1.913-4.008-1.5-.759.426-.56,1.808-.439,2.381.009.04.016.072.023.11l.007.015c0,.005,0,.01,0,.015a3.627,3.627,0,0,0,.45,1.344l2.928,4.51a1.29,1.29,0,0,1,.045,1.328l-3.273,5.87a1.283,1.283,0,0,1-1.64.552c-3.885-1.7-7.789-1.706-10.989-.016a1.287,1.287,0,0,1-1.711-.489l-3.234-5.52a1.287,1.287,0,0,1-.009-1.286l2.576-4.537a2.824,2.824,0,0,0,.364-1.714l-.078-.759a1.861,1.861,0,0,0-3.419-.855l-5.177,8.017,8.489,12.449a8.242,8.242,0,0,1,15.158.031Zm-21.16-4.474a5.45,5.45,0,0,1-.614,1.722l-2.214,3.9,2.265,3.867a14.975,14.975,0,0,1,11.017.022l2.343-4.2-2.495-3.844a4.458,4.458,0,0,1-.515-1.055,26.078,26.078,0,0,1-3.848.288A25.691,25.691,0,0,1,41.136,65.269ZM16.868,21.78l.958,4.563,4.407,1.267a5.779,5.779,0,0,1,1.946,1.061,25.849,25.849,0,0,1,6.258-7.924c-.048-.164-.1-.325-.135-.5l-.89-4.375-4.235-1.439A14.98,14.98,0,0,1,17,21.566C16.956,21.637,16.912,21.708,16.868,21.78Zm47.914-8.573-1.511,4.21a5.3,5.3,0,0,1-1.257,2,25.949,25.949,0,0,1,6.623,6.944,5.076,5.076,0,0,1,1.553-.5l4.545-.618,1.657-4.516a15.022,15.022,0,0,1-7.076-8.011c-.116-.093-.234-.184-.352-.276ZM33.691,7.483l3.828,1.009a1.288,1.288,0,0,1,.946,1.064l.888,6.263a25.9,25.9,0,0,1,14.489-.279L56.6,6.157A35.435,35.435,0,0,0,33.691,7.483Zm-12.4-.608A8.245,8.245,0,0,1,9.961,16.658l2.094,15.8,6.71,1.935a3.357,3.357,0,0,0,.88.079c.143,0,.29,0,.443.009,2.249.1,3.722-.7,4-1.491.294-.82-.763-1.735-1.232-2.09l-.1-.079a3.9,3.9,0,0,0-1.236-.737L16.37,28.6a1.286,1.286,0,0,1-.9-.973l-1.38-6.576a1.287,1.287,0,0,1,.877-1.493,12.543,12.543,0,0,0,8.319-7.191,1.287,1.287,0,0,1,1.613-.748l6.045,2.053a1.287,1.287,0,0,1,.848.962l1.039,5.111a2.734,2.734,0,0,0,.84,1.537l.56.532A1.87,1.87,0,0,0,37.374,20.2l-1.338-9.436-6.451-1.7-.026-.007ZM7.7,8.743a5.683,5.683,0,0,0,9.392,4.691A5.68,5.68,0,1,0,7.7,8.743ZM27.377,69.686l5.271-8.161A25.475,25.475,0,0,1,21.393,40.291a25.788,25.788,0,0,1,.223-3.3,10.247,10.247,0,0,1-1.179.07c-.149,0-.3,0-.451-.008-.127-.005-.251-.007-.372-.008a5.622,5.622,0,0,1-1.555-.178l-6.026-1.737a36.284,36.284,0,0,0-.369,5.139A35.31,35.31,0,0,0,27.377,69.686ZM51.7,86.13a5.673,5.673,0,1,0-5.68,5.679A5.685,5.685,0,0,0,51.7,86.13ZM81.84,33.518l-.035.124a1.289,1.289,0,0,1-1.065.923l-7.755,1.056a4.331,4.331,0,0,1-.566.037c-.032,0-.059,0-.09,0A25.616,25.616,0,0,1,60.451,62.21c.069.091.138.182.2.285l4.26,6.552a1.286,1.286,0,0,1,0,1.41l-.422.64a35.239,35.239,0,0,0,18-30.827A35.645,35.645,0,0,0,81.84,33.518ZM87.3,9.29a5.686,5.686,0,0,0-9.377-4.722A5.679,5.679,0,1,0,87.3,9.29Z"/><text x="0" y="110" fill="#000000" font-size="5px" font-weight="bold" font-family="'Helvetica Neue', Helvetica, Arial-Unicode, Arial, Sans-serif">Created by Bahrul Ulum</text><text x="0" y="115" fill="#000000" font-size="5px" font-weight="bold" font-family="'Helvetica Neue', Helvetica, Arial-Unicode, Arial, Sans-serif">from the Noun Project</text></svg>