<svg xmlns="http://www.w3.org/2000/svg" version="1.1" viewBox="-5.0 -10.0 110.0 135.0">
 <path d="m15.43 84.957v-19.926l-3.5664-0.066406v0.003906c-2.2852 0-4.1328 1.8477-4.1328 4.1328v11.699c-0.003907 1.0859 0.42578 2.125 1.1992 2.8906 0.78125 0.76953 1.8359 1.1992 2.9336 1.1953 0.046875 0 0.097657 0 0.14453 0.007812l3.4219 0.066407zm60.422-22.457c-0.007812-0.36719 0.12891-0.72656 0.38672-0.98828 0.25781-0.26562 0.60938-0.41406 0.97656-0.41406 0.37109 0 0.72266 0.14844 0.98047 0.41406 0.25781 0.26172 0.39453 0.62109 0.38672 0.98828v1.3125c0.45312 0.14062 0.87891 0.35938 1.2617 0.64062 0.76953 0.55078 1.3125 1.3594 1.543 2.2773 0.17578 0.73047-0.27344 1.4648-1.0039 1.6406-0.73047 0.17969-1.4648-0.26953-1.6406-1-0.078126-0.29297-0.25781-0.55078-0.50781-0.72266-0.29688-0.21094-0.65234-0.32422-1.0195-0.32031-0.41797-0.003906-0.82812 0.14453-1.1445 0.42578-0.25391 0.21484-0.40234 0.53516-0.40234 0.87109s0.14844 0.65625 0.40234 0.875c0.31641 0.27734 0.72656 0.42578 1.1445 0.42188 1.1016-0.007813 2.1641 0.39844 2.9805 1.1367 0.82813 0.73047 1.3008 1.7812 1.3008 2.8867 0 1.1055-0.47266 2.1562-1.3008 2.8906-0.46484 0.42187-1.0156 0.73437-1.6133 0.92578v1.3125-0.003907c0.007813 0.36719-0.12891 0.72656-0.38672 0.98828-0.25781 0.26562-0.60937 0.41406-0.98047 0.41406-0.36719 0-0.71875-0.14844-0.97656-0.41406-0.25781-0.26172-0.39453-0.62109-0.38672-0.98828v-1.3125c-0.45312-0.14453-0.87891-0.35937-1.2617-0.64062-0.76953-0.55469-1.3164-1.3594-1.543-2.2773-0.15625-0.72656 0.28906-1.4414 1.0078-1.6172 0.72266-0.17188 1.4492 0.26172 1.6367 0.97656 0.078125 0.29297 0.25781 0.54688 0.50781 0.72266 0.29688 0.21094 0.65234 0.32031 1.0156 0.31641 0.42188 0.007813 0.83203-0.14453 1.1445-0.42188 0.25781-0.21484 0.40625-0.53516 0.40625-0.87109 0-0.33984-0.14844-0.65625-0.40625-0.875-0.3125-0.27734-0.72266-0.42969-1.1445-0.42187-1.0977 0.003906-2.1602-0.40234-2.9766-1.1367-0.82812-0.73047-1.3008-1.7852-1.3008-2.8867 0-1.1055 0.47266-2.1602 1.3008-2.8906 0.46484-0.42188 1.0156-0.73828 1.6133-0.92578zm-38.613-14.32c-0.47266-0.58203-0.38672-1.4375 0.19531-1.9141 0.58594-0.47266 1.4414-0.38281 1.9141 0.19922l0.019532 0.027344 1.0312-1.1836c0.49219-0.57031 1.3516-0.63281 1.9219-0.14062 0.56641 0.49219 0.62891 1.3516 0.13672 1.9219l-2.0898 2.4102c-0.050782 0.058594-0.10938 0.11328-0.17188 0.16406-0.58203 0.47266-1.4414 0.38281-1.9141-0.19922l-1.043-1.2812zm12.68 3.6445c-0.75391 0-1.3672-0.60938-1.3672-1.3633 0-0.75391 0.61328-1.3633 1.3672-1.3633h17.488c0.75391 0 1.3672 0.60938 1.3672 1.3633 0 0.75391-0.61328 1.3633-1.3672 1.3633zm0-4.3281c-0.75391 0-1.3672-0.60938-1.3672-1.3633 0-0.75391 0.61328-1.3672 1.3672-1.3672h12.48c0.75391 0 1.3672 0.61328 1.3672 1.3672 0 0.75391-0.61328 1.3633-1.3672 1.3633zm-12.191-7.1133c-2.6953 0.007813-4.8789 2.1875-4.8867 4.8828v4.2695c0.007812 2.6953 2.1914 4.875 4.8867 4.8867h4.2734c1.2539-0.003906 2.457-0.48828 3.3633-1.3555l0.085938-0.082031c0.91797-0.91406 1.4336-2.1523 1.4336-3.4492v-4.2695c0-1.293-0.51562-2.5352-1.4336-3.4492-0.91406-0.91797-2.1562-1.4336-3.4492-1.4336zm4.2734 2.7266h-4.2734c-1.1875 0.007813-2.1523 0.96875-2.1562 2.1562v4.2695c0.003907 1.1875 0.96875 2.1523 2.1562 2.1562h4.2734c0.54297 0 1.0664-0.20703 1.4648-0.57812l0.054687-0.058593v0.003906c0.40625-0.40625 0.63672-0.95312 0.63672-1.5234v-4.2695c-0.003906-0.57031-0.23047-1.1172-0.63672-1.5195-0.40234-0.40625-0.94922-0.63281-1.5195-0.63672zm-4.7617-11.965c-0.23828-0.27734-0.35547-0.64062-0.32422-1.0078 0.035157-0.36719 0.21484-0.70312 0.5-0.93359 0.28516-0.23047 0.64844-0.33984 1.0156-0.29688 0.36328 0.042969 0.69531 0.23047 0.91797 0.51953l0.019532 0.027344 1.0312-1.1836c0.49219-0.56641 1.3516-0.62891 1.9219-0.13672 0.56641 0.49219 0.62891 1.3516 0.13672 1.918l-2.0898 2.4062c-0.050782 0.058594-0.10547 0.11719-0.16797 0.16406-0.58594 0.47266-1.4414 0.38281-1.9141-0.19922l-1.043-1.2812zm12.68 3.6445c-0.37109 0.007813-0.72656-0.12891-0.98828-0.38672-0.26563-0.25781-0.41406-0.60938-0.41406-0.98047 0-0.36719 0.14844-0.71875 0.41406-0.97656 0.26172-0.25781 0.61719-0.39453 0.98828-0.38672h17.488c0.36719-0.007813 0.72656 0.12891 0.98828 0.38672 0.26562 0.25781 0.41406 0.60938 0.41406 0.97656 0 0.37109-0.14844 0.72266-0.41406 0.98047-0.26172 0.25781-0.62109 0.39453-0.98828 0.38672zm0-4.3281v-0.003907c-0.37109 0.011719-0.72656-0.12891-0.98828-0.38672-0.26563-0.25391-0.41406-0.60937-0.41406-0.97656s0.14844-0.72266 0.41406-0.97656c0.26172-0.25781 0.61719-0.39844 0.98828-0.38672h12.48c0.37109-0.011719 0.72656 0.12891 0.99219 0.38672 0.26172 0.25391 0.41016 0.60937 0.41016 0.97656s-0.14844 0.72266-0.41016 0.97656c-0.26562 0.25781-0.62109 0.39844-0.99219 0.38672zm-12.191-7.1172c-2.6953 0.007812-4.8789 2.1914-4.8867 4.8867v4.2695c0.007812 2.6953 2.1914 4.875 4.8867 4.8867h4.2734c2.6953-0.011719 4.875-2.1914 4.8789-4.8867v-4.2695c-0.003906-2.6953-2.1836-4.8789-4.8789-4.8867zm4.2734 2.7305h-4.2734c-1.1875 0.003906-2.1523 0.96484-2.1562 2.1562v4.2695c0.003907 1.1875 0.96875 2.1484 2.1562 2.1562h4.2734c1.1875-0.007812 2.1445-0.96875 2.1484-2.1562v-4.2695c-0.003907-1.1875-0.96094-2.1484-2.1484-2.1562zm33.285-2.5391v-0.003906c0.29688 0.25781 0.46875 0.63672 0.46875 1.0312v13.762h3.1992v-17.867h-6.7148l3.0391 3.0742zm-2.2617 14.789v-12.398l-9.4609-0.003906c-0.75 0-1.3594-0.60938-1.3633-1.3594v-9.5742h-34.387v35.867c0.35547-0.14844 0.73047-0.23438 1.1172-0.25781 0.058593-0.007812 0.11719-0.011718 0.17578-0.011718h0.12891c1.0781 0.03125 2.0742 0.57812 2.6797 1.4727 0.03125 0.039062 0.058594 0.078125 0.082032 0.12109 0.35938 0.63281 0.58203 1.332 0.65234 2.0547 0.074218 0.6875 0.015624 1.3828-0.17188 2.0469l-1.2852 6.0508h11.559c1.6836-0.019531 3.3281 0.49609 4.6992 1.4688 1.3477 0.95312 2.3516 2.3125 2.8672 3.8789 0.035156 0.085937 0.058594 0.17578 0.070313 0.26562 0.097656 0.63281 0.13672 1.2695 0.11719 1.9102-0.015625 0.58594-0.066406 1.1758-0.14844 1.7578l-0.007813 0.074219-1.1367 7.6992h11.859l1.7891-2.5703c-0.91797-4.4414-0.87891-9.0273 0.10938-13.449 0.011719-0.078126 0.027344-0.15234 0.050781-0.22656 0.96094-2.9141 2.8086-5.4531 5.2812-7.2695 0.79297-0.57812 1.6406-1.0742 2.5352-1.4844l-2.8281-6.7266c-0.25391-0.60156-0.039062-1.3008 0.51172-1.6602l3.4648-2.2773-1.4844-3.3945c-0.10547-0.19531-0.16016-0.41797-0.16016-0.64062 0-0.75391 0.60938-1.3633 1.3633-1.3633zm-4.8008-18.055 2.8984 2.9297h-6.1914v-6.2578l2.8008 2.832h-0.003907c0.12109 0.20703 0.28906 0.37891 0.49219 0.5zm1.3164-2.5391-4.9375-4.9883-0.007812-0.011719-0.09375-0.09375-0.011719-0.007813-0.027343-0.027344-0.015626-0.011718-0.011718-0.007813-0.015625-0.011719-0.011719-0.007812-0.03125-0.023438-0.011719-0.007812-0.015625-0.011719-0.007812-0.007812h-0.007813l-0.015625-0.011719h-0.007812l-0.007813-0.007812-0.015625-0.011719-0.011718-0.007813-0.03125-0.015625-0.011719-0.007812-0.015625-0.007813h-0.019532l-0.015624-0.007812h-0.015626l-0.0625-0.03125-0.015624-0.003906-0.015626-0.007813h-0.019531l-0.015625-0.007813h-0.015625l-0.019531-0.007812-0.027344-0.007812h-0.007812l-0.015625-0.003907h-0.21875l-37.281 0.007813c-0.75391 0-1.3672 0.61328-1.3672 1.3672v40.73l-4.168 8.1406c-0.097656 0.19141-0.14844 0.40234-0.14844 0.61719h-0.007813l0.003907 23.117c0 0.75391 0.60938 1.3672 1.3633 1.3672l0.12109-0.007813 19.227-0.011719h0.003906c3.4805 0.21484 6.5977-2.1523 7.3242-5.5664h10.371l-0.45312 0.64844h0.003906c-0.23438 0.33594-0.30469 0.75781-0.19531 1.1484 0.15625 0.70703 0.48828 1.3594 0.96875 1.8984 0.52344 0.58984 1.1641 1.0664 1.875 1.4023 1.418 0.67578 3.0703 0.64062 4.457-0.10156l0.070313-0.039063 3.6914-1.9766c4.4453 2.4102 9.8047 2.4102 14.25 0l3.9766 2.0898c0.68359 0.36328 1.4453 0.55078 2.2148 0.54688 0.78125-0.003907 1.5508-0.18359 2.25-0.52344 1.418-0.67969 2.4219-2 2.7031-3.5469 0.0625-0.35547-0.019531-0.71875-0.22266-1.0156l-4.0273-5.8008h-0.003906c0.44922-2.1562 0.67969-4.3516 0.69141-6.5547 0.011719-2.3633-0.24219-4.7188-0.75781-7.0273-0.011718-0.042969-0.019531-0.085938-0.035156-0.12891v0.003907c-1.2969-3.9023-4.1719-7.0859-7.9219-8.7734l0.59375-1.4102c0.070313-0.082032 0.12891-0.17188 0.17969-0.26953 0.082031-0.15625 0.13281-0.33203 0.14844-0.51172l1.8984-4.5234c0.27344-0.64453 0.007812-1.3945-0.61328-1.7266l-3.3828-2.2266 1.4375-3.5c0.17188-0.42188 0.12109-0.89844-0.12891-1.2734-0.25391-0.37891-0.67578-0.60547-1.1289-0.60547h-0.03125v-19.234c0-0.75391-0.61328-1.3633-1.3672-1.3633zm10.898 35.02-0.3125 0.74219c-1.0977-0.26172-2.2227-0.39063-3.3516-0.39063-1.1289 0-2.2539 0.13281-3.3516 0.39844l-0.3125-0.74609c2.3672-0.86719 4.9648-0.86719 7.3281 0zm-8.3867-2.5117-1.0898-2.5938 2.0664-1.3594 0.78906 2.0352 0.003906 0.003907c0.26953 0.69922 1.0586 1.0469 1.7578 0.77734 0.69922-0.26953 1.0469-1.0586 0.77734-1.7578l-1.3867-3.5742c-0.011719-0.03125-0.023438-0.058593-0.035156-0.089843l-1.1445-2.6289h5.8984l-1.0664 2.6016c-0.011719 0.027344-0.023438 0.050781-0.03125 0.078125l-1.3984 3.6055h-0.003906c-0.26953 0.70312 0.078125 1.4883 0.77734 1.7617 0.69922 0.26953 1.4883-0.078125 1.7578-0.78125l0.78906-2.0352 2.0664 1.3594-1.0898 2.5938c-3.043-1.1445-6.3984-1.1445-9.4414 0zm8.6797 6.2773h0.003906c-0.125-0.015625-0.24219-0.050781-0.35547-0.10156-0.050781-0.019531-0.10156-0.042968-0.14844-0.070312-1.1211-0.34375-2.2852-0.51953-3.457-0.51953-1.1797 0-2.3516 0.17969-3.4766 0.53125-0.039063 0.023437-0.082031 0.042969-0.125 0.058593-0.10547 0.046876-0.21484 0.078126-0.32812 0.09375-1.043 0.375-2.0312 0.90234-2.9297 1.5586-2.0039 1.4727-3.5039 3.5352-4.2852 5.8984-0.93359 4.2344-0.92578 8.6211 0.019532 12.848 0.085937 0.37109 0.007812 0.76172-0.20703 1.0742l-4.082 5.8672c0.058594 0.09375 0.125 0.18359 0.19922 0.26953 0.28125 0.30859 0.62109 0.55859 1 0.73437 0.62891 0.30469 1.3672 0.28906 1.9805-0.042968l0.078126-0.039063 4.3594-2.332c0.42578-0.22656 0.9375-0.21094 1.3477 0.039062 3.9258 2.3906 8.8516 2.3906 12.777 0 0.43359-0.26172 0.97656-0.26172 1.4102 0l4.6016 2.4141c0.28516 0.14844 0.60156 0.22656 0.92188 0.22266 0.37109-0.003906 0.73438-0.089843 1.0664-0.25391 0.46875-0.22656 0.84375-0.61328 1.0547-1.0859l-4-5.7461v-0.003906c-0.23438-0.33594-0.30469-0.76172-0.1875-1.1602 0.47656-2.125 0.72266-4.2969 0.73438-6.4805 0.011719-2.1211-0.21484-4.2422-0.67188-6.3164-1.1602-3.4727-3.8516-6.2227-7.3008-7.457zm-53.012-1.2266 0.85547-1.6758c0.046875-0.070312 0.10547-0.13672 0.17578-0.1875l0.050781-0.027343c0.074219-0.042969 0.16016-0.070313 0.25-0.082032h0.10156-0.003906c0.10547 0.003906 0.21094 0.035156 0.30078 0.085938 0.082031 0.042968 0.15234 0.10547 0.20703 0.17969 0.15625 0.28906 0.25391 0.60938 0.28516 0.9375 0.035156 0.33594 0.011719 0.67969-0.074218 1.0078-0.023438 0.058594-0.042969 0.12109-0.054688 0.1875l-1.3164 6.1992v0.011719-0.003906c-0.078125 0.375-0.066406 0.76172 0.035156 1.1289 0.085938 0.31641 0.23047 0.61328 0.42578 0.875 0.023438 0.039063 0.050781 0.074219 0.082031 0.10938 0.19141 0.24219 0.42188 0.45703 0.67578 0.63281 0.36328 0.25391 0.79688 0.39453 1.2422 0.39453h11.824c1.1094-0.011719 2.1914 0.32812 3.0898 0.96875 0.85938 0.60547 1.5039 1.4609 1.8438 2.4492 0.0625 0.4375 0.085937 0.88281 0.070312 1.3242-0.015625 0.48437-0.054687 0.96875-0.125 1.4531-0.53516 3.2109-1.0391 6.6367-1.4531 9.8672l-0.003906-0.003906c-0.24219 2.3047-2.2578 4.0039-4.5703 3.8594h-0.078124l-18.062 0.011719v-21.449l4.1094-8.0234c0.042969-0.074219 0.085938-0.15234 0.11719-0.23047zm-9.5586 8.4102v22.645h-0.007812v0.019531c-0.003906 0.36328-0.15234 0.70703-0.41016 0.95703-0.26172 0.25-0.60938 0.38672-0.96875 0.38281l-4.8203-0.09375h-0.09375 0.003906c-1.8203 0.003906-3.5625-0.71094-4.8555-1.9922-1.2852-1.2695-2.0117-3.0078-2.0078-4.8164v-11.699c0-3.793 3.0742-6.8633 6.8633-6.8633v0.003907l4.8398 0.09375h0.09375c0.35938 0 0.70703 0.14453 0.96484 0.39844 0.25391 0.25781 0.39844 0.60547 0.39844 0.96484z" fill-rule="evenodd"/>
<text x="0.0" y="117.5" font-size="5.0" font-weight="bold" font-family="Arbeit Regular, Helvetica, Arial-Unicode, Arial, Sans-serif" fill="#000000">Created by udn</text><text x="0.0" y="122.5" font-size="5.0" font-weight="bold" font-family="Arbeit Regular, Helvetica, Arial-Unicode, Arial, Sans-serif" fill="#000000">from Noun Project</text></svg>