<svg xmlns="http://www.w3.org/2000/svg" version="1.1" viewBox="-5.0 -10.0 110.0 135.0">
 <path d="m56.512 11.605 1.9219 3.6719 4.0898 0.69531c1.0859 0.17969 1.8203 1.2109 1.6406 2.2969-0.074218 0.44922-0.29297 0.83984-0.60547 1.1289l-2.8398 2.9023 0.60156 4.1094c0.16016 1.0898-0.59766 2.1055-1.6875 2.2656-0.45312 0.066407-0.89062-0.023437-1.2617-0.23438l-3.6328-1.8008-3.7227 1.8438c-0.98828 0.48438-2.1836 0.082031-2.6719-0.90625-0.1875-0.37891-0.23828-0.78125-0.18359-1.1719l0.60156-4.1094-2.9023-2.9688c-0.76953-0.78906-0.75-2.0508 0.039063-2.8203 0.30469-0.29297 0.67578-0.47266 1.0625-0.53516l4.0938-0.69922 1.9219-3.6719c0.50781-0.97656 1.7148-1.3516 2.6875-0.84375 0.375 0.19531 0.66406 0.49609 0.84375 0.84375zm6.9727 20.551 17.492-0.003906c3.4453 0 6.5781-1.4102 8.8516-3.6836l0.10547-0.097656c2.2109-2.2578 3.5781-5.3516 3.5781-8.7578 0-3.4453-1.4102-6.5859-3.6797-8.8555-2.2695-2.2695-5.4102-3.6797-8.8555-3.6797h-30.832c-3.4453 0-6.5859 1.4102-8.8555 3.6797-2.2695 2.2695-3.6797 5.4102-3.6797 8.8555 0 3.4492 1.4062 6.5859 3.6758 8.8516 2.2812 2.2695 5.4141 3.6836 8.8633 3.6836 1.1055 0 2 0.89453 2 2v6.043l10.145-7.6367c0.35938-0.26563 0.77734-0.39844 1.1953-0.40234zm17.492 3.9961h-16.84l-12.652 9.5273c-0.35547 0.31641-0.82031 0.51172-1.3398 0.51172-1.1055 0-2-0.89453-2-2v-8.1641c-3.7578-0.45703-7.1289-2.1836-9.6797-4.7344-2.9922-3.0039-4.8555-7.1406-4.8555-11.68 0-4.543 1.8594-8.6758 4.8555-11.672 3.0039-3.0039 7.1367-4.8633 11.68-4.8633h30.832c4.543 0 8.6758 1.8594 11.672 4.8555 3.0039 3.0039 4.8633 7.1367 4.8633 11.68 0 4.4805-1.8125 8.5664-4.7422 11.559l-0.10938 0.12109c-2.9961 2.9961-7.1328 4.8555-11.68 4.8555zm-76.496 60.773c-1.1055 0-2-0.89453-2-2s0.89453-2 2-2h4.3828v-10.762c0-5.5586 2.2734-10.613 5.9336-14.273s8.7148-5.9336 14.273-5.9336c5.5508 0 10.598 2.2695 14.266 5.9336l0.011718 0.011719c3.6602 3.6641 5.9297 8.7148 5.9297 14.258v10.762h4.3789c1.1055 0 2 0.89453 2 2s-0.89453 2-2 2h-6.2617l-0.12109 0.003906h-36.418l-0.12109-0.003906h-6.2617zm8.3828-4h32.418v-10.762c0-4.4609-1.8203-8.5117-4.7617-11.449-2.9375-2.9375-6.9883-4.7578-11.449-4.7578-4.4531 0-8.5078 1.8242-11.445 4.7617s-4.7617 6.9883-4.7617 11.445zm16.211-57.879c3.3125 0 6.3203 1.3477 8.5039 3.5273l0.011719 0.011719c2.1758 2.1797 3.5234 5.1914 3.5234 8.5 0 3.3164-1.3477 6.3242-3.5273 8.5039l-0.011719 0.011718c-2.1797 2.1758-5.1914 3.5234-8.5 3.5234-3.3242 0-6.332-1.3516-8.5117-3.5273l-0.11328-0.125c-2.1133-2.1719-3.4102-5.1328-3.4102-8.3867 0-3.3125 1.3477-6.3203 3.5273-8.5039l0.011719-0.011719c2.1797-2.1758 5.1914-3.5234 8.5-3.5234zm5.6875 6.3516c-1.4531-1.4531-3.4609-2.3477-5.6875-2.3477-2.2266 0-4.2344 0.89844-5.6836 2.3477-1.457 1.457-2.3555 3.4688-2.3555 5.6953 0 2.1797 0.85938 4.1523 2.2578 5.5938l0.097656 0.09375c1.4531 1.4531 3.4648 2.3555 5.6836 2.3555 2.2266 0 4.2344-0.89844 5.6836-2.3477 1.457-1.457 2.3555-3.4688 2.3555-5.6953s-0.89844-4.2344-2.3516-5.6875zm43.387-29.789 1.9219 3.6719 4.0898 0.69531c1.0859 0.17969 1.8203 1.2109 1.6406 2.2969-0.074219 0.44922-0.29297 0.83984-0.60547 1.1289l-2.8398 2.9023 0.60156 4.1094c0.16016 1.0898-0.59766 2.1055-1.6875 2.2656-0.45312 0.066406-0.89062-0.023438-1.2617-0.23438l-3.6328-1.8008-3.7227 1.8438c-0.98828 0.48438-2.1836 0.082031-2.6719-0.90625-0.1875-0.37891-0.23828-0.78125-0.18359-1.1719l0.60156-4.1094-2.9023-2.9688c-0.76953-0.78906-0.75-2.0508 0.039062-2.8203 0.30469-0.29297 0.67578-0.47266 1.0625-0.53516l4.0938-0.69922 1.9219-3.6719c0.50781-0.97656 1.7148-1.3516 2.6875-0.84375 0.375 0.19531 0.66406 0.49609 0.84375 0.84375zm-1.1445 6.3945-0.62109-1.1836-0.5625 1.0742c-0.26562 0.58984-0.80859 1.0391-1.4922 1.1562l-1.3086 0.22266 0.85547 0.875c0.47266 0.43359 0.72656 1.082 0.62891 1.7617l-0.19531 1.3203 1.1953-0.58984c0.53516-0.26562 1.1875-0.28516 1.7656 0l1.1953 0.58984-0.19531-1.3203c-0.085937-0.59375 0.097657-1.2188 0.54688-1.6797l0.93359-0.95703-1.3047-0.22266c-0.59375-0.10547-1.1367-0.47266-1.4375-1.0469zm-21.637 0-0.62109-1.1836-0.5625 1.0742c-0.26562 0.58984-0.80859 1.0391-1.4922 1.1562l-1.3086 0.22266 0.85547 0.875c0.47266 0.43359 0.72656 1.082 0.62891 1.7617l-0.19531 1.3203 1.1953-0.58984c0.53516-0.26562 1.1875-0.28516 1.7656 0l1.1953 0.58984-0.19531-1.3203c-0.085937-0.59375 0.097657-1.2188 0.54688-1.6797l0.93359-0.95703-1.3047-0.22266c-0.59375-0.10547-1.1367-0.47266-1.4375-1.0469z"/>
<text x="0.0" y="117.5" font-size="5.0" font-weight="bold" font-family="Arbeit Regular, Helvetica, Arial-Unicode, Arial, Sans-serif" fill="#000000">Created by didik</text><text x="0.0" y="122.5" font-size="5.0" font-weight="bold" font-family="Arbeit Regular, Helvetica, Arial-Unicode, Arial, Sans-serif" fill="#000000">from Noun Project</text></svg>