<svg xmlns="http://www.w3.org/2000/svg" version="1.1" viewBox="-5.0 -10.0 110.0 135.0">
 <path d="m67.613 14.168v11.789c0 3.7656-3.0469 6.8125-6.8125 6.8125h-6.8438l-1.332 2.3008v0.003907c-0.54688 0.91797-1.5352 1.4805-2.6055 1.4805-1.0664 0-2.0547-0.5625-2.6016-1.4805l-1.375-2.3047h-6.8438c-3.7656 0-6.8125-3.0469-6.8125-6.8125v-11.789c0-3.7656 3.0469-6.8125 6.8125-6.8125h21.602c1.8086 0 3.5391 0.71484 4.8203 1.9922 1.2773 1.2812 1.9922 3.0117 1.9922 4.8203zm-23.863 22.988-0.125-0.21875h-4.4258c-6.0625-0.003906-10.977-4.918-10.98-10.98v-8.1875h-9.8555c-3.7617 0-6.8125 3.0508-6.8125 6.8125v11.793c0 3.7617 3.0508 6.8125 6.8125 6.8125h6.8438l1.332 2.3008h0.003907c0.54688 0.91797 1.5352 1.4805 2.6016 1.4805 1.0703 0 2.0586-0.5625 2.6055-1.4805l1.332-2.3008h6.8438c2.5391-0.003906 4.8672-1.4141 6.043-3.668-0.91406-0.60547-1.6719-1.4141-2.2188-2.3633zm37.887-19.387h-9.8555v8.1875c-0.003906 6.0625-4.918 10.977-10.98 10.98h-4.4453l-0.125 0.21875c-0.55469 0.95312-1.3203 1.7617-2.2422 2.3633 1.1758 2.2539 3.5039 3.6641 6.043 3.668h6.8438l1.332 2.3008c0.54688 0.91797 1.5391 1.4805 2.6055 1.4805s2.0586-0.5625 2.6055-1.4805l1.332-2.3008h6.8438c1.8086 0 3.5391-0.71875 4.8164-1.9961s1.9961-3.0078 1.9961-4.8164v-11.793c0-3.7461-3.0234-6.7891-6.7695-6.8125zm-31.637 26.367c-4.8398 0-9.207 2.9141-11.059 7.3867-1.8516 4.4727-0.82812 9.6211 2.5938 13.043 3.4258 3.4258 8.5742 4.4492 13.047 2.5938 4.4688-1.8516 7.3867-6.2148 7.3867-11.055-0.003906-6.6094-5.3594-11.965-11.969-11.969zm10.512 24.188c2.6836 2.75 4.1797 6.4453 4.1641 10.289v8.0117c-0.003906 3.3242-2.6953 6.0156-6.0195 6.0195h-17.363c-3.3242-0.003906-6.0156-2.6953-6.0234-6.0195v-8.0117c-0.011719-3.8438 1.4844-7.5391 4.168-10.289 2.918 2.5234 6.6484 3.9141 10.512 3.9141 3.8594 0 7.5898-1.3906 10.508-3.9141zm-33.062 6.25c1.5195-0.003907 3.0234-0.36328 4.3828-1.043 0.85547-3.043 2.4648-5.8203 4.6797-8.0742l0.17578-0.1875c-1.625-2.3633-2.582-5.1172-2.7812-7.9766-2.4297-2.1172-5.7383-2.9062-8.8594-2.1172-3.125 0.78906-5.6602 3.0586-6.793 6.0742-1.1289 3.0156-0.71094 6.3945 1.125 9.043 1.832 2.6445 4.8477 4.2266 8.0703 4.2266zm35.863-9.3008 0.17578 0.1875v-0.003907c2.2148 2.2539 3.8242 5.0312 4.6797 8.0742 3.25 1.625 7.1289 1.3281 10.09-0.77734 2.9648-2.1016 4.5234-5.668 4.0625-9.2734-0.46484-3.6016-2.8789-6.6562-6.2773-7.9414-3.3984-1.2852-7.2266-0.58984-9.9609 1.8047-0.21094 2.8242-1.168 5.5391-2.7695 7.875zm18.688 9.7266c-2.5703 2.3828-5.9453 3.707-9.4492 3.707-1.2422 0-2.4805-0.17188-3.6758-0.50781v0.4375 8.0117-0.003907c-0.003906 2.168-0.69922 4.2773-1.9883 6.0234h12.5c1.3789 0 2.7031-0.55078 3.6797-1.5273 0.98047-0.97656 1.5273-2.3008 1.5273-3.6836v-5.1641c-0.027344-2.6523-0.94141-5.2188-2.5938-7.293zm-50.895 11.625v-8.0117-0.4375c-1.1992 0.33594-2.4336 0.50781-3.6797 0.51172-3.4922 0-6.8594-1.3164-9.4258-3.6875-1.6328 2.082-2.5273 4.6445-2.543 7.293v5.207c0 1.3828 0.55078 2.707 1.5273 3.6836 0.97656 0.97656 2.3008 1.5234 3.6836 1.5234h12.5c-1.3281-1.75-2.0508-3.8828-2.0625-6.082z"/>
<text x="0.0" y="117.5" font-size="5.0" font-weight="bold" font-family="Arbeit Regular, Helvetica, Arial-Unicode, Arial, Sans-serif" fill="#000000">Created by Yunita Bela</text><text x="0.0" y="122.5" font-size="5.0" font-weight="bold" font-family="Arbeit Regular, Helvetica, Arial-Unicode, Arial, Sans-serif" fill="#000000">from Noun Project</text></svg>