<svg xmlns="http://www.w3.org/2000/svg" xmlnsXlink="http://www.w3.org/1999/xlink" version="1.1" x="0px" y="0px" viewBox="0 0 96 120" enable-background="new 0 0 96 96" xmlSpace="preserve"><path fillRule="evenodd" clip-rule="evenodd" d="M93.072,45.613H81.744v35.744h11.328V45.613L93.072,45.613z M63.135,27.484  c-0.375-0.375-0.375-0.984,0-1.359c0.168-0.168,0.383-0.261,0.604-0.278c0.271-0.021,0.549,0.071,0.756,0.278l2.961,2.961  c0.375,0.375,0.375,0.984,0,1.359l-2.961,2.962c-0.375,0.375-0.984,0.375-1.359,0c-0.375-0.375-0.375-0.984,0-1.359l1.322-1.321  H52.789c-0.531,0-0.961-0.431-0.961-0.961V13.832l-1.322,1.321c-0.375,0.375-0.982,0.375-1.357,0c-0.377-0.375-0.377-0.984,0-1.359  l2.955-2.956c0.025-0.025,0.051-0.049,0.078-0.071v0l0.02-0.015v0c0.012-0.009,0.023-0.018,0.035-0.026l0.01-0.006l0.012-0.008  l0.004-0.003l0.016-0.01l0.006-0.003l0.014-0.009l0.006-0.003l0.016-0.009l0.006-0.002l0.014-0.008l0.006-0.003  c0.133-0.069,0.285-0.109,0.445-0.109s0.311,0.04,0.443,0.109l0.006,0.003l0.016,0.008l0.004,0.002l0.016,0.009l0.006,0.003  l0.016,0.009l0.004,0.003l0.016,0.01l0.006,0.003l0.012,0.008l0.008,0.006c0.014,0.008,0.023,0.017,0.035,0.026l0.002,0l0.018,0.015  v0c0.027,0.022,0.055,0.046,0.078,0.071l2.957,2.956c0.375,0.375,0.375,0.984,0,1.359c-0.17,0.169-0.387,0.262-0.607,0.279  c-0.27,0.02-0.545-0.073-0.752-0.279l-1.32-1.321v14.973h10.707L63.135,27.484L63.135,27.484z M32.189,24.043  c0.586-4.846,2.781-9.286,6.105-12.673c3.248-3.313,7.576-5.622,12.525-6.321c5.975-0.845,11.727,0.811,16.195,4.171  c4.467,3.36,7.65,8.424,8.496,14.397c0.568,4.026,0.002,7.95-1.455,11.448c-1.156,2.774-2.875,5.281-5.033,7.359  c0.695,0.215,1.391,0.422,2.09,0.62c1.992-2.101,3.596-4.557,4.715-7.243c1.586-3.804,2.201-8.071,1.582-12.447  c-0.918-6.498-4.385-12.009-9.246-15.666c-4.859-3.656-11.113-5.458-17.607-4.54C45.17,3.91,40.463,6.421,36.928,10.025  c-3.617,3.688-6.008,8.52-6.645,13.792c-0.063,0.527,0.314,1.004,0.842,1.066C31.65,24.946,32.129,24.57,32.189,24.043  L32.189,24.043z M35.873,42.188c-1.125-1.305-2.115-2.74-2.943-4.286c-1.039-1.941-1.822-4.053-2.297-6.296l-1.848,2.457  c-0.316,0.423-0.918,0.509-1.34,0.191c-0.424-0.317-0.51-0.917-0.191-1.34l3.193-4.245c0.279-0.375,0.783-0.485,1.188-0.285  c0.078,0.037,0.15,0.084,0.215,0.141l4.182,3.146c0.424,0.317,0.508,0.917,0.191,1.34s-0.918,0.508-1.34,0.191l-2.32-1.745  c0.439,1.974,1.139,3.832,2.057,5.543c0.793,1.479,1.75,2.85,2.844,4.093c-0.533,0.34-1.063,0.704-1.584,1.09L35.873,42.188  L35.873,42.188z M23.084,44.221l-11.555-2.977L2.928,76.521l11.555,2.976l0.875-3.583c0.008-0.054,0.021-0.105,0.037-0.155  L23.084,44.221L23.084,44.221z M66,85.45c-0.078,0.992-0.291,1.778-0.607,2.377c-0.346,0.651-0.816,1.063-1.363,1.258  c-0.58,0.207-1.268,0.191-2.004-0.023c-0.941-0.275-1.949-0.871-2.922-1.748l-0.002,0.002c-0.041-0.036-0.084-0.069-0.131-0.099  l-7.061-5c-0.432-0.305-1.027-0.202-1.332,0.229c-0.305,0.431-0.203,1.027,0.229,1.332l6.678,4.728  c-0.059,0.909-0.221,1.616-0.469,2.145c-0.266,0.566-0.633,0.903-1.072,1.046c-0.492,0.158-1.115,0.107-1.824-0.116  c-1.133-0.358-2.414-1.137-3.715-2.212c-0.045-0.045-0.096-0.084-0.148-0.119l-3.984-2.806c-0.434-0.305-1.033-0.2-1.338,0.232  c-0.305,0.434-0.199,1.032,0.234,1.337l3.504,2.468c-0.082,0.317-0.191,0.618-0.328,0.896c-0.291,0.595-0.691,1.073-1.172,1.37  c-0.453,0.279-0.996,0.403-1.604,0.313c-0.324-0.048-0.672-0.157-1.039-0.337c-3.016-1.473-6.018-3.264-9.145-5.429  c-3.143-2.175-6.422-4.734-9.979-7.733c-0.41-0.346-0.771-0.616-1.189-0.831c-0.436-0.225-0.896-0.374-1.479-0.462l-0.377-0.056  c-1.752-0.258-4.961-0.729-5.09-2.064l7.109-29.153c1.352,0.023,2.758,0.16,4.121,0.39c0.975,0.165,1.924,0.376,2.813,0.628  c-0.885,0.664-1.795,1.339-2.766,2.046c-1.938,1.411-3.029,2.671-3.521,3.767c-0.432,0.966-0.432,1.828-0.129,2.579  c0.293,0.726,0.855,1.302,1.57,1.739c1.105,0.676,2.623,1.028,3.986,1.066v0.001c5.648,0.236,9.648-2.613,12.908-4.937  c2.879-2.05,5.08-3.618,7.076-1.56c4.279,4.414,8.713,9.936,13.143,15.45c3.58,4.459,7.158,8.915,10.658,12.793  c0.002,0.921-0.137,1.677-0.395,2.273c-0.246,0.571-0.607,0.998-1.061,1.283c-0.471,0.297-1.053,0.456-1.725,0.481  c-1.025,0.039-2.236-0.228-3.561-0.782l-6.543-5.657c-0.398-0.347-1.004-0.303-1.352,0.098c-0.346,0.4-0.301,1.005,0.1,1.352  L66,85.45L66,85.45z M10.297,72.504c0.123,0.121,0.197,0.289,0.197,0.475s-0.074,0.354-0.197,0.476  c-0.121,0.121-0.289,0.196-0.475,0.196s-0.354-0.075-0.475-0.196c-0.121-0.122-0.197-0.289-0.197-0.476  c0-0.186,0.076-0.354,0.197-0.475c0.121-0.122,0.289-0.196,0.475-0.196S10.176,72.382,10.297,72.504L10.297,72.504z M9.822,70.385  c0.717,0,1.365,0.291,1.834,0.76c0.471,0.47,0.76,1.118,0.76,1.834c0,0.717-0.289,1.365-0.76,1.834  c-0.469,0.47-1.117,0.76-1.834,0.76s-1.365-0.29-1.834-0.76c-0.469-0.469-0.76-1.117-0.76-1.834c0-0.716,0.291-1.364,0.76-1.834  C8.459,70.676,9.105,70.385,9.822,70.385L9.822,70.385z M87.883,76.173c0.121,0.121,0.197,0.289,0.197,0.475  c0,0.187-0.076,0.354-0.197,0.476s-0.289,0.196-0.475,0.196s-0.354-0.075-0.475-0.196c-0.123-0.121-0.197-0.289-0.197-0.476  c0-0.186,0.074-0.354,0.197-0.475c0.121-0.122,0.289-0.197,0.475-0.197S87.762,76.051,87.883,76.173L87.883,76.173z M87.408,74.054  c0.717,0,1.365,0.291,1.834,0.76c0.469,0.47,0.76,1.118,0.76,1.834c0,0.717-0.291,1.365-0.76,1.834  c-0.469,0.47-1.117,0.761-1.834,0.761s-1.365-0.291-1.834-0.761c-0.469-0.469-0.76-1.117-0.76-1.834c0-0.716,0.291-1.364,0.76-1.834  C86.043,74.345,86.691,74.054,87.408,74.054L87.408,74.054z M79.822,51.054V75.59c-0.055,1.047-0.695,2.024-1.561,2.759  c-0.809,0.686-1.789,1.144-2.666,1.247c-3.457-3.836-6.986-8.231-10.52-12.633c-4.455-5.547-8.916-11.101-13.264-15.585  c-3.141-3.239-5.922-1.257-9.561,1.335c-3.02,2.151-6.727,4.792-11.721,4.583v0.001l-0.016-0.001  c-1.064-0.028-2.23-0.289-3.049-0.789c-0.379-0.231-0.664-0.506-0.789-0.815c-0.113-0.283-0.1-0.642,0.1-1.085  c0.363-0.812,1.256-1.806,2.898-3.001c1.723-1.255,3.008-2.219,4.234-3.145c0.018-0.013,0.037-0.026,0.053-0.041l0.605-0.458  c1.188-0.896,2.381-1.798,3.594-2.694c8.461-6.251,16.367-3.607,25.299-0.619c4.594,1.537,9.449,3.161,14.818,3.784  c0.127,0.015,0.244,0.046,0.348,0.092c0.117,0.051,0.225,0.119,0.322,0.2c0.26,0.219,0.465,0.541,0.611,0.911  c0.174,0.435,0.262,0.93,0.262,1.412V51.054z"/><text x="0" y="111" fill="#000000" font-size="5px" font-weight="bold" font-family="'Helvetica Neue', Helvetica, Arial-Unicode, Arial, Sans-serif">Created by Sugiman</text><text x="0" y="116" fill="#000000" font-size="5px" font-weight="bold" font-family="'Helvetica Neue', Helvetica, Arial-Unicode, Arial, Sans-serif">from the Noun Project</text></svg>