<svg xmlns="http://www.w3.org/2000/svg" xmlns:xlink="http://www.w3.org/1999/xlink" version="1.1" x="0px" y="0px" viewBox="0 0 500 625" style="enable-background:new 0 0 500 500;" xml:space="preserve"><path d="M302,358.9c-1.8-2.1-1.6-5.2,0.5-7c2.1-1.8,5.2-1.6,7,0.5l12.3,14.2l35.2-40.5c1.8-2.1,4.9-2.3,7-0.5c2.1,1.8,2.3,4.9,0.5,7  L325.1,378c-2.1,1.8-5.2,1.6-7-0.5L302,358.9z M336.5,287.7c34.7,0,62.8,28.1,62.8,62.8c0,34.7-28.1,62.8-62.8,62.8  c-34.7,0-62.8-28.1-62.8-62.8C273.7,315.8,301.8,287.7,336.5,287.7L336.5,287.7z M373.8,313.2c-20.6-20.6-54.1-20.6-74.7,0  c-20.6,20.6-20.6,54.1,0,74.7c20.6,20.6,54.1,20.6,74.7,0C394.4,367.2,394.4,333.8,373.8,313.2L373.8,313.2z M334.2,479.5  c-0.9-0.5-1.7-1.2-2.2-2.2L334.2,479.5z M334.2,479.4c-39.1-19.8-71-52.6-91.3-92.4v29.8c0,2.7-2.2,5-5,5h-67.4c-2.7,0-5-2.2-5-5  V229.5c0-2.7,2.2-5,5-5h67.4c2.8,0,5,2.2,5,5v51.8l21.2-9.2V160.2c0-2.8,2.2-5,5-5h67.4c2.8,0,5,2.2,5,5v82.7l110.3,47.7  c2,0.9,3.1,2.8,3,4.8l0,0C450.2,373.2,407,445,338.7,479.5C337.2,480.2,335.6,480.1,334.2,479.4L334.2,479.4z M232.9,364.5  c-8.2-21.5-13.3-44.7-14.7-69c-0.1-2.3,1.3-4.3,3.3-5l11.4-4.9v-51.2h-57.5v177.4h57.5V364.5z M274,267.8l57.5-24.9v-77.7H274V267.8  z M261.2,399.1c18.9,30,44.9,54.4,75.3,70.3c62.8-32.9,102.8-99,108.1-171l-108.1-46.8l-108.1,46.8C231,334.3,242.2,369,261.2,399.1  L261.2,399.1z M83.8,102.1c-0.8-6.5,9-7.7,9.9-1.2c0.9,7.2,20.3,12.1,31.8,5.1c2.7-1.6,4.3-3.6,4.3-5.6c0-6.3-9.4-7.6-18.8-9  c-13.7-2-27.4-3.9-27.4-18.9c0-11.2,12.4-17.3,22.9-18.6v-4.6c0-2.8,2.2-5,5.2-5l0,0c2.9,0,5.1,2.4,5,5.1l-0.1,4.4  c24.7,2.9,27.6,23.6,18.1,23.6c-2.8,0-5-2.2-5-5c0-7.2-19.8-12.8-31.8-5.6c-2.7,1.6-4.3,3.6-4.3,5.6c0,6.3,9.4,7.6,18.8,9  c13.7,2,27.4,3.9,27.4,18.9c0,11.1-12.3,17.3-23,18.6l-0.1,4.6c0,6.6-10,6.6-10,0v-4.6C96.6,117.8,85,112.3,83.8,102.1L83.8,102.1z   M111.7,20c36.7,0,66.5,29.8,66.5,66.5S148.4,153,111.7,153c-36.7,0-66.5-29.8-66.5-66.5S75,20,111.7,20L111.7,20z M151.7,46.5  c-22.1-22.1-57.9-22.1-79.9,0c-22.1,22.1-22.1,57.9,0,79.9c22.1,22.1,57.8,22.1,79.9,0C173.7,104.4,173.7,68.6,151.7,46.5  L151.7,46.5z M71.8,277h67.4c2.8,0,5,2.2,5,5v134.9c0,2.7-2.2,5-5,5H71.8c-2.7,0-5-2.2-5-5V282C66.8,279.2,69.1,277,71.8,277  L71.8,277z M134.3,287H76.8v124.9h57.5V287z M76.3,250.8c-4.7,4.6-11.7-2.6-6.9-7.2L188.1,129c2-1.9,5.2-1.8,7.1,0.1l25.3,26.2  L325,57.6h-34.9c-6.6,0-6.6-10,0-10h46c2.9,0,5.1,2.3,5,5.5l-0.2,46c0,2.7-2.2,5-5,5s-5-2.2-5-5l0.1-33.5L223.7,165.9  c-2,1.8-5.1,1.8-7-0.2l-25.2-26.1L76.3,250.8z"/><text x="0" y="515" fill="#000000" font-size="5px" font-weight="bold" font-family="'Helvetica Neue', Helvetica, Arial-Unicode, Arial, Sans-serif">Created by monibag</text><text x="0" y="520" fill="#000000" font-size="5px" font-weight="bold" font-family="'Helvetica Neue', Helvetica, Arial-Unicode, Arial, Sans-serif">from the Noun Project</text></svg>