<svg xmlns="http://www.w3.org/2000/svg" version="1.1" viewBox="-5.0 -10.0 110.0 135.0">
 <path d="m75.227 60.414c0.375-0.21484 0.83594-0.21484 1.207 0h12.41c0.32812-0.011718 0.64844 0.11328 0.88672 0.34375 0.23828 0.23047 0.37109 0.54688 0.37109 0.87891 0 0.32812-0.13281 0.64453-0.37109 0.875s-0.55859 0.35547-0.88672 0.34766h-29.617c-0.66016-0.019531-1.1875-0.5625-1.1875-1.2227 0-0.66406 0.52734-1.2031 1.1875-1.2227zm-66.402-4.8008c-0.67969 0-1.2266-0.54688-1.2266-1.2227 0-0.67969 0.54688-1.2266 1.2266-1.2266h31.73c0.67578 0 1.2266 0.54688 1.2266 1.2266 0 0.67578-0.55078 1.2227-1.2266 1.2227zm0-6.457c-0.33203 0.007812-0.65234-0.11719-0.89062-0.34766-0.23828-0.23047-0.37109-0.54688-0.37109-0.87891 0-0.32813 0.13281-0.64844 0.37109-0.87891 0.23828-0.23047 0.55859-0.35547 0.89062-0.34375h31.73c0.66406 0.019531 1.1875 0.5625 1.1875 1.2227 0 0.66406-0.52344 1.207-1.1875 1.2266zm0-6.4648c-0.67578 0-1.2227-0.54688-1.2227-1.2227s0.54688-1.2227 1.2227-1.2227h31.73c0.67578 0 1.2227 0.54688 1.2227 1.2227s-0.54688 1.2227-1.2227 1.2227zm0-6.457c-0.67969 0-1.2266-0.55078-1.2266-1.2266 0-0.67578 0.54688-1.2266 1.2266-1.2266h19.781c0.67578 0 1.2227 0.55078 1.2227 1.2266 0 0.67578-0.54688 1.2266-1.2227 1.2266zm60.227-20.254c0.45703 0.48438 0.44531 1.2422-0.023437 1.7109-0.47266 0.46875-1.2266 0.47656-1.7109 0.019532l-1.9766-1.9727-1.9727 1.9727c-0.48047 0.46094-1.2422 0.45312-1.7109-0.015626-0.47266-0.47266-0.48047-1.2344-0.015625-1.7148l1.9766-1.9766-1.9766-1.9766v0.003906c-0.46484-0.48047-0.45703-1.2383 0.015625-1.7109 0.46875-0.47266 1.2305-0.48047 1.7109-0.015624l1.9766 1.9766 1.9766-1.9766h-0.003906c0.48438-0.45703 1.2383-0.44922 1.7109 0.019531 0.46875 0.46875 0.48047 1.2266 0.023437 1.707l-1.9766 1.9766zm-3.7109-13.293c5.3984 0 10.043 3.8125 11.098 9.1094 1.0547 5.293-1.7812 10.598-6.7695 12.66-4.9883 2.0664-10.742 0.32031-13.738-4.168-3-4.4883-2.4102-10.473 1.4062-14.289 2.1211-2.1211 5-3.3164 8-3.3164zm6.2773 5.0508h-0.003907c-2.9922-2.9961-7.6875-3.4648-11.211-1.1094-3.5234 2.3516-4.8945 6.8672-3.2734 10.781 1.6211 3.9141 5.7812 6.1367 9.9375 5.3086 4.1562-0.82422 7.1484-4.4727 7.1445-8.7109 0.003906-2.3516-0.92969-4.6094-2.5938-6.2734zm-37.91 6.7031c-0.45312-0.48438-0.44141-1.2422 0.027344-1.7109s1.2266-0.47656 1.707-0.019531l2.8672 2.8672 5.75-5.75v0.003906c0.23047-0.23047 0.53906-0.35938 0.86719-0.35938 0.32422 0 0.63672 0.12891 0.86719 0.35938 0.47656 0.48047 0.47656 1.2578-0.003907 1.7383l-6.6094 6.6094v-0.003907c-0.22656 0.23047-0.53906 0.35938-0.86719 0.35938-0.32422 0-0.63672-0.12891-0.86719-0.35938zm5.6602-11.754c5.4023 0 10.047 3.8125 11.102 9.1055 1.0547 5.2969-1.7812 10.598-6.7695 12.664-4.9883 2.0664-10.738 0.32422-13.738-4.168-3-4.4883-2.4102-10.473 1.4062-14.289 2.1211-2.1211 5-3.3164 8-3.3125zm6.2734 5.0508c-2.9922-3-7.6875-3.4648-11.211-1.1133-3.5273 2.3516-4.8984 6.8633-3.2812 10.777 1.6211 3.918 5.7812 6.1406 9.9375 5.3164 4.1523-0.82422 7.1484-4.4727 7.1484-8.707 0.003906-2.3555-0.92969-4.6133-2.5938-6.2773zm-37.902 6.7031c-0.46094-0.48047-0.45312-1.2422 0.015625-1.7148 0.47266-0.46875 1.2344-0.47656 1.7148-0.015624l2.8711 2.8672 5.7461-5.7461c0.47656-0.47656 1.2539-0.47266 1.7305 0.003907 0.47656 0.48047 0.47656 1.2539-0.003906 1.7344l-6.6055 6.6094v-0.003907c-0.23047 0.23047-0.54297 0.35938-0.86719 0.35938-0.32422 0-0.63672-0.12891-0.86328-0.35938zm5.6602-11.754c5.3984 0 10.043 3.8164 11.094 9.1133 1.0508 5.293-1.7852 10.594-6.7734 12.66-4.9883 2.0625-10.738 0.31641-13.738-4.1719-2.9961-4.4883-2.4062-10.473 1.4102-14.289 2.1211-2.125 5.0039-3.3203 8.0078-3.3164zm6.2734 5.0508h-0.003906c-2.9922-2.9883-7.6758-3.4492-11.195-1.0977-3.5156 2.3516-4.8789 6.8555-3.2617 10.766 1.6211 3.9062 5.7734 6.125 9.9219 5.3008 4.1484-0.82812 7.1367-4.4688 7.1367-8.6953 0-2.3555-0.93359-4.6133-2.6016-6.2734zm39.555 75.238c-0.66406-0.019531-1.1914-0.5625-1.1914-1.2266s0.52734-1.207 1.1914-1.2266h16.168c0.66016 0.019531 1.1875 0.5625 1.1875 1.2266s-0.52734 1.207-1.1875 1.2266zm0-6.7031v-0.003907c-0.66406-0.019531-1.1914-0.5625-1.1914-1.2227 0-0.66406 0.52734-1.207 1.1914-1.2266h18.879c0.33203-0.007812 0.65234 0.11719 0.89062 0.34766 0.23438 0.23047 0.37109 0.54688 0.37109 0.87891s-0.13672 0.64844-0.37109 0.87891c-0.23828 0.23047-0.55859 0.35547-0.89062 0.34375zm0-6.707v-0.003906c-0.66016-0.019531-1.1875-0.5625-1.1875-1.2227s0.52734-1.2031 1.1875-1.2227h29.617c0.32812-0.011719 0.64844 0.11328 0.88672 0.34375 0.23828 0.23047 0.37109 0.54687 0.37109 0.87891 0 0.33203-0.13281 0.64844-0.37109 0.87891s-0.55859 0.35156-0.88672 0.34375zm0-13.41v-0.003906c-0.67578 0-1.2266-0.54688-1.2266-1.2227 0-0.67969 0.55078-1.2266 1.2266-1.2266h12.34c0.67578 0 1.2266 0.54688 1.2266 1.2266 0 0.67578-0.55078 1.2227-1.2266 1.2227zm38.676-4.6641v-0.003907c0.003906 0.035157 0.007812 0.070313 0.011718 0.10547v0.03125l0.007813 0.011719v0.015625h0.003906v44.258c-0.003906 0.32422-0.13281 0.63672-0.36328 0.86328-0.23047 0.23047-0.54297 0.35937-0.86719 0.35547h-43.914c-0.32422 0.003906-0.63672-0.125-0.86719-0.35547-0.22656-0.23047-0.35937-0.53906-0.35937-0.86328v-10.895h-38.59c-0.67578-0.003906-1.2227-0.55078-1.2227-1.2266v-5.8672c0-0.32812 0.12891-0.64062 0.35547-0.87109 0.23047-0.22656 0.54297-0.35938 0.86719-0.35938h17.879v-5.832h-27.301c-0.67188 0-1.2227-0.54688-1.2227-1.2227v-41.395c0-0.32422 0.12891-0.63672 0.35938-0.86719 0.22656-0.23047 0.53906-0.35938 0.86328-0.35938h72.289c0.67578 0 1.2266 0.55078 1.2266 1.2266v11.691h9.918c0.38281 0 0.74219 0.17578 0.97656 0.48047l9.6406 10.414 0.019531 0.023437 0.015625 0.019532 0.003906 0.003906 0.03125 0.039062v0.007813l0.015626 0.019531 0.003906 0.007813 0.015625 0.019531h0.003906v0.003906l0.011719 0.023438h0.003906v0.003906l0.011719 0.015625h0.003906l0.011719 0.019531h0.003906l0.011719 0.019532v0.007812l0.011719 0.019531 0.011718 0.011719 0.003906 0.011719v0.027343l0.003907 0.011719v0.019531l0.003906 0.003907v0.019531l0.011719 0.023438 0.011718 0.019531v0.042969l0.003907 0.011718v0.03125l0.003906 0.050782 0.003906 0.011718v0.070313l0.003907 0.015625v0.027344zm-2.4297 1.3828h-8.4961c-0.67578 0-1.2266-0.54688-1.2266-1.2227v-9.2773h-31.742v52.312h41.465zm-7.1562-8.4844-0.11719-0.125v6.1641h5.707zm-35.535-4.457h21.828v-10.469h-69.844v30.789h46.789v-19.098c0-0.32422 0.13281-0.63672 0.35937-0.86328 0.23047-0.23047 0.54297-0.35938 0.86719-0.35547zm-1.2266 42.633v-3.4219h-37.367v3.4219zm0-5.8711v-5.8359h-3.0195v5.832zm0-8.2852v-5.707h-46.789v5.707zm-18.27 8.2852 12.805-0.003906v-5.832h-12.805z"/>
<text x="0.0" y="117.5" font-size="5.0" font-weight="bold" font-family="Arbeit Regular, Helvetica, Arial-Unicode, Arial, Sans-serif" fill="#000000">Created by Ifanicon</text><text x="0.0" y="122.5" font-size="5.0" font-weight="bold" font-family="Arbeit Regular, Helvetica, Arial-Unicode, Arial, Sans-serif" fill="#000000">from Noun Project</text></svg>