<svg xmlns="http://www.w3.org/2000/svg" version="1.1" viewBox="-5.0 -10.0 110.0 135.0">
 <path d="m57.512 67.82c-0.62891 0.007813-1.1953 0.39063-1.4336 0.97266s-0.10938 1.25 0.33203 1.6953l7.5898 7.5117c0.44922 0.44531 1.1172 0.57812 1.6992 0.33203 0.58203-0.24219 0.96094-0.8125 0.96094-1.4414 0-0.41406-0.16016-0.8125-0.44922-1.1094l-7.5508-7.5391v-0.003907c-0.29297-0.29688-0.69141-0.46094-1.1094-0.45703zm16.66-16.66c-0.63672 0-1.207 0.37891-1.4492 0.96484-0.23828 0.58594-0.10156 1.2617 0.34766 1.7031l7.5508 7.5508c0.60938 0.61328 1.5977 0.61328 2.207 0 0.61328-0.60938 0.61328-1.5977 0-2.207l-7.5508-7.5508h0.003906c-0.29688-0.29297-0.69531-0.46094-1.1094-0.46094zm-6.9414 22.34-6.2305-6.2812c2.5898-4.6172 6.3945-8.4414 11-11.059l6.2812 6.2812c-2.6172 4.6172-6.4375 8.4375-11.051 11.059zm-18.43 13h13.961c0-0.62109 0.070312-1.1094-0.41016-1.5898-0.26562-0.26562-0.625-0.41406-1-0.41016h-11.152c-0.77344 0-1.3984 0.625-1.3984 1.3984zm-2.6094 5.7305h19.137c0.03125-0.4375-0.027344-0.875-0.16797-1.2891-0.44531-1.2344-1.6094-2.0547-2.9219-2.0625h-13c-1.6992 0.027344-3.0586 1.4219-3.0469 3.1211v0.26953zm34.379-22.09v-6.082l-0.37891-0.14062v0.003906c-0.75391 1.2969-1.6016 2.5391-2.5312 3.7188zm0.48828 3.5586c-0.046875-0.03125-0.089844-0.066407-0.12891-0.10938l-4.8203-4.1289-1.8594 1.8594 13.441 15.68c1.5117 1.75 4.8789 0.55078 4.8984-2.1914 0.019531-0.71875-0.27344-1.4141-0.80859-1.8984zm-13.879-58v11.699h11.699zm-30.121 31.473h-9.6016v9.6016h9.6016zm-10.789-2.3906h12c0.66406 0 1.1992 0.53516 1.1992 1.1992v12.02c0 0.66406-0.53516 1.1992-1.1992 1.1992h-12c-0.66406 0-1.1992-0.53516-1.1992-1.1992v-12c0-0.66406 0.53516-1.1992 1.1992-1.1992zm7.5391 4.5703c0.45703-0.49219 1.2227-0.51562 1.7109-0.0625 0.48828 0.45703 0.51562 1.2227 0.058594 1.7109l-3.3008 3.6211h0.003906c-0.22656 0.25-0.54688 0.39453-0.88281 0.39453-0.33594 0-0.65625-0.14453-0.87891-0.39453-0.53125-0.55859-1.0586-1.1484-1.5781-1.7188v-0.003906c-0.38672-0.49219-0.32422-1.1992 0.14062-1.6211 0.46094-0.42188 1.1719-0.41797 1.6289 0.011718l0.69141 0.75 2.4102-2.6484zm3.25 20.238h-9.6016v9.6016h9.6016zm-10.789-2.3906h12c0.66406 0 1.1992 0.53906 1.1992 1.1992v12c0 0.66406-0.53516 1.2031-1.1992 1.2031h-12c-0.66406 0-1.1992-0.53906-1.1992-1.2031v-12c0-0.66016 0.53516-1.1992 1.1992-1.1992zm7.5391 4.5703c0.45703-0.42969 1.168-0.43359 1.6328-0.011719 0.46094 0.42188 0.52344 1.1289 0.13672 1.6211l-3.2969 3.6211c-0.22656 0.25-0.54688 0.39453-0.88281 0.39453-0.33594 0-0.65625-0.14453-0.87891-0.39453-0.53906-0.55859-1.0586-1.1484-1.5781-1.7188-0.38672-0.49609-0.32422-1.2031 0.14062-1.625 0.46094-0.42188 1.1719-0.41406 1.6289 0.015625l0.69141 0.75 2.4102-2.6484zm-16-34c-6.8086-2.7695-12.809-9.3594-12.809-17.09v-8.2891c0-0.53516 0.35547-1.0078 0.87109-1.1523 4.4336-1.2227 8.6484-3.1289 12.5-5.6484 0.40625-0.27344 0.94141-0.27344 1.3477 0 3.8438 2.5312 8.0625 4.4414 12.5 5.6602 0.23438 0.0625 0.44141 0.19922 0.58984 0.39062h33.191c0.32422 0 0.63281 0.12891 0.85938 0.35938 1.5898 1.6016 15.711 15.648 15.91 15.941 0.14453 0.19922 0.21875 0.44141 0.21875 0.6875v27.293l1.5508 1.5508v-0.003906c0.9375 0.98047 1.3164 2.3672 1.0039 3.6836-0.3125 1.3203-1.2695 2.3906-2.543 2.8477v8.1992l10.359 8.8906c1.0352 0.97656 1.6289 2.332 1.6484 3.7539 0.019532 1.4258-0.53516 2.7969-1.543 3.8008-1.0039 1.0078-2.375 1.5625-3.8008 1.543-1.4219-0.019531-2.7773-0.61328-3.7539-1.6484l-2.9102-3.3906v5.3828c0 0.66016-0.53906 1.1992-1.1992 1.1992h-14v1.6992c0 0.31641-0.12891 0.62109-0.35156 0.84375-0.22656 0.22656-0.53125 0.34766-0.84766 0.34766h-21.602c-0.31641 0-0.62109-0.12109-0.84766-0.34766-0.22656-0.22266-0.35156-0.52734-0.35156-0.84375v-1.6992h-24.75c-0.66406 0-1.1992-0.53906-1.1992-1.1992v-52.762zm7.2617-2.7695v0.5c0 0.66406 0.53516 1.1992 1.1992 1.1992h12c0.66406 0 1.1992-0.53516 1.1992-1.1992v-12c0-0.66406-0.53516-1.1992-1.1992-1.1992h-5.2695c0-0.46094 0.070312-0.92969 0.070312-1.3984v-6.9023h31.719v14.621c0 0.32031 0.125 0.62891 0.35156 0.85547 0.23047 0.22266 0.53906 0.34766 0.85938 0.34375h14.57v23.711l-3.5703-3.6016c-0.73828-0.74609-1.75-1.168-2.8008-1.1602-1.3164 0.019531-2.5391 0.6875-3.2695 1.7852-0.72656 1.0977-0.87109 2.4844-0.37891 3.707-4.7773 2.7422-8.7461 6.6992-11.5 11.469-0.48828-0.19922-1.0117-0.30078-1.5391-0.30078-1.5781 0.046874-2.9844 1.0117-3.5859 2.4727-0.60156 1.457-0.29297 3.1328 0.79297 4.2773l7.5391 7.5508h0.003907c1.3594 1.2383 3.3906 1.3906 4.9219 0.36328 1.5273-1.0273 2.1562-2.9648 1.5273-4.6953 1.2969-0.75391 2.5391-1.6016 3.7188-2.5273l8.1406 9.4805v7h-13.52c-0.46484-0.82031-1.1289-1.5078-1.9297-2v-1.4531c-0.007813-2.0898-1.6992-3.7812-3.793-3.7891h-11.129c-2.0938 0-3.7891 1.6992-3.7891 3.7891v1.4023c-0.80469 0.48828-1.4688 1.1758-1.9297 2h-24.23v-51.531c1.7148-0.72266 3.332-1.6523 4.8203-2.7695zm4.1914-4c-0.5625 0.70312-1.1602 1.3711-1.8008 2v1.3203h9.6016l-0.003906-9.5703h-4.4883c-0.66406 2.3047-1.793 4.4531-3.3086 6.3086zm-10.211 4.6797c3.2539-1.2969 6.125-3.4023 8.3398-6.1211 2.0508-2.4023 3.2148-5.4375 3.3008-8.5977v-7.6719c-4.1055-1.2266-8.0195-3.0039-11.641-5.2891-3.6211 2.2852-7.5391 4.0664-11.641 5.2891v7.3906c0 6.8281 5.5781 12.641 11.641 15zm2.7305-17.398-4 4.3906-1.4492-1.5898-0.003906-0.003906c-0.20312-0.26172-0.50781-0.42969-0.84375-0.45703-0.33203-0.03125-0.66406 0.082031-0.91016 0.30859-0.24609 0.22266-0.39062 0.54297-0.39062 0.875-0.003906 0.33594 0.13281 0.65625 0.375 0.88672 0.78125 0.85156 1.5508 1.7188 2.3281 2.5586h0.003906c0.22656 0.25 0.54688 0.39062 0.88281 0.39062 0.33984 0 0.66016-0.14062 0.88672-0.39062l4.8906-5.3594c0.4375-0.49219 0.40234-1.2422-0.082031-1.6914-0.23438-0.21484-0.54297-0.32812-0.85938-0.3125-0.32031 0.015625-0.61719 0.15625-0.82812 0.39453zm21.141 8.8594h18.668c0.61719-0.058594 1.0898-0.57422 1.0898-1.1953 0-0.62109-0.47266-1.1406-1.0898-1.1953h-18.668c-0.33594-0.03125-0.67188 0.082031-0.92188 0.30859-0.24609 0.22656-0.39062 0.55078-0.39062 0.88672 0 0.33594 0.14453 0.66016 0.39062 0.88672 0.25 0.22656 0.58594 0.33984 0.92188 0.30859zm0 7.2109h25.156c0.33594 0.027344 0.67188-0.082031 0.92188-0.30859 0.24609-0.23047 0.39062-0.55078 0.39062-0.88672 0-0.33984-0.14453-0.66016-0.39062-0.88672-0.25-0.22656-0.58594-0.33984-0.92188-0.30859h-25.156c-0.33594-0.03125-0.67188 0.082031-0.92188 0.30859-0.24609 0.22656-0.39062 0.54688-0.39062 0.88672 0 0.33594 0.14453 0.65625 0.39062 0.88672 0.25 0.22656 0.58594 0.33594 0.92188 0.30859zm0 15.211 18.668-0.003906c0.61719-0.054688 1.0898-0.57422 1.0898-1.1953 0-0.61719-0.47266-1.1367-1.0898-1.1914h-18.668c-0.33594-0.03125-0.67188 0.078125-0.92188 0.30859-0.24609 0.22656-0.39062 0.54688-0.39062 0.88281 0 0.33984 0.14453 0.66016 0.39062 0.88672 0.25 0.23047 0.58594 0.33984 0.92188 0.30859zm0 7.2109 20.727-0.003907c0.33594 0.03125 0.67187-0.082031 0.91797-0.30859 0.25-0.22656 0.39453-0.54688 0.39453-0.88672 0-0.33594-0.14453-0.66016-0.39453-0.88672-0.24609-0.22656-0.58203-0.33984-0.91797-0.30859h-20.727c-0.33594-0.03125-0.67188 0.082032-0.92188 0.30859-0.24609 0.22656-0.39062 0.55078-0.39062 0.88672 0 0.33984 0.14453 0.66016 0.39062 0.88672 0.25 0.22656 0.58594 0.33984 0.92188 0.30859zm0 15.211h8.2188v-0.003906c0.33594 0.03125 0.66797-0.082031 0.91797-0.30859s0.39062-0.55078 0.39062-0.88672c0-0.33594-0.14062-0.66016-0.39062-0.88672-0.25-0.22656-0.58203-0.33984-0.91797-0.30859h-8.2188c-0.33594-0.03125-0.67188 0.082031-0.92188 0.30859-0.24609 0.22656-0.39062 0.55078-0.39062 0.88672 0 0.33594 0.14453 0.66016 0.39062 0.88672 0.25 0.22656 0.58594 0.33984 0.92188 0.30859zm0 7.2109v-0.003906c-0.33594 0.03125-0.67188-0.082031-0.92188-0.30859-0.24609-0.23047-0.39062-0.55078-0.39062-0.88672 0-0.33984 0.14453-0.66016 0.39062-0.88672 0.25-0.22656 0.58594-0.33984 0.92188-0.30859h13.488c0.33594-0.03125 0.66797 0.082031 0.91797 0.30859s0.39062 0.54688 0.39062 0.88672c0 0.33594-0.14062 0.65625-0.39062 0.88672-0.25 0.22656-0.58203 0.33984-0.91797 0.30859z" fillRule="evenodd"/>
<text x="0.0" y="117.5" font-size="5.0" font-weight="bold" font-family="Arbeit Regular, Helvetica, Arial-Unicode, Arial, Sans-serif" fill="#000000">Created by RAGIL HERU FITRIYAN</text><text x="0.0" y="122.5" font-size="5.0" font-weight="bold" font-family="Arbeit Regular, Helvetica, Arial-Unicode, Arial, Sans-serif" fill="#000000">from Noun Project</text></svg>