<svg xmlns="http://www.w3.org/2000/svg" version="1.1" viewBox="-5.0 -10.0 110.0 135.0">
 <path d="m91.828 26.66-3.8438-1.0703-2.207-5.332 1.9531-3.4648c0.14844-0.26172 0.10156-0.58594-0.10938-0.80078l-5.3203-5.3164c-0.21094-0.21094-0.53906-0.25781-0.79688-0.10938l-3.4648 1.9531-5.3281-2.207-1.0742-3.8438c-0.082031-0.28906-0.34375-0.48828-0.64062-0.48828h-7.5664c-0.30469 0-0.56641 0.20312-0.64453 0.49609l-1.0039 3.8359-5.3906 2.2031-3.3984-1.9531c-0.26172-0.14844-0.58594-0.10547-0.80078 0.10547l-5.3828 5.3164c-0.21484 0.21094-0.26172 0.53906-0.11328 0.80078l1.9531 3.4648-2.207 5.332-3.8438 1.0703c-0.28906 0.082031-0.48828 0.34375-0.48828 0.64062v5.2422c-1.7695 1.1328-3.3672 2.5117-4.7461 4.0859l-0.48828-1.793c-0.078125-0.28906-0.34375-0.49219-0.64453-0.49219h-7.5664c-0.30078 0-0.56641 0.20312-0.64453 0.49609l-1.0039 3.7695-5.3906 2.207-3.3984-1.9492c-0.26172-0.14844-0.58984-0.10547-0.80469 0.10547l-5.3867 5.3867c-0.21484 0.21484-0.25781 0.55078-0.10156 0.8125l2.0117 3.3906-2.2656 5.3867-3.7734 1.0078c-0.29297 0.078125-0.49609 0.34375-0.49609 0.64453v7.5664c0 0.29688 0.19922 0.55859 0.48438 0.64062l3.7812 1.0703 2.2656 5.3281-2.0156 3.4609c-0.15234 0.26172-0.10938 0.59766 0.10938 0.80859l5.3867 5.3164c0.21484 0.21094 0.53906 0.25 0.80078 0.10156l3.3984-1.9531 5.3867 2.207 1.0078 3.8359c0.078125 0.29297 0.34375 0.49609 0.64453 0.49609h7.5664c0.30078 0 0.5625-0.19922 0.64063-0.48828l1.0703-3.8438 5.3281-2.2031 0.76562 0.44141c0.21875 0.79688 0.37891 1.6328 0.46875 2.5117h-1.5234c-0.36719 0-0.66797 0.29688-0.66797 0.66797v5.793c0 0.36719 0.29688 0.66797 0.66797 0.66797h3.5781l3.418 5.6758c0.12109 0.19922 0.33594 0.32422 0.57031 0.32422h6.6133c0.23438 0 0.44922-0.12109 0.57031-0.32422l3.418-5.6758h3.5781c0.36719 0 0.66797-0.29688 0.66797-0.66797v-5.793c0-0.36719-0.29688-0.66797-0.66797-0.66797h-1.5234c0.46094-4.6055 2.9062-7.9961 5.4961-11.57 3.2461-4.4805 6.9023-9.5586 7.043-17.824 0.003907-0.023438 0.011719-0.042969 0.011719-0.066406v-0.41016c0-0.14453-0.007812-0.28906-0.011719-0.43359l2.2969-0.9375 3.4688 1.9531c0.10156 0.058594 0.21484 0.085938 0.32812 0.085938 0.17578 0 0.34766-0.066406 0.47656-0.19922l5.3203-5.3828c0.21094-0.21094 0.25391-0.53906 0.10547-0.80078l-1.9531-3.3984 2.2031-5.3867 3.8359-1.0078c0.29297-0.078125 0.49609-0.34375 0.49609-0.64453v-7.5664c0-0.29688-0.19922-0.5625-0.48828-0.64062zm-48.762 49.922-5.9297 2.4531c-0.1875 0.078125-0.33203 0.23828-0.38672 0.4375l-1.0234 3.6719h-6.5469l-0.96094-3.6602c-0.054688-0.20312-0.19922-0.36719-0.39062-0.44922l-5.9961-2.4531c-0.19141-0.078125-0.40625-0.0625-0.58594 0.039063l-3.2422 1.8594-4.6562-4.5977 1.9219-3.3008c0.10547-0.17969 0.12109-0.40234 0.039063-0.59766l-2.5234-5.9297c-0.078125-0.18359-0.23828-0.32422-0.43359-0.37891l-3.6055-1.0195v-6.5508l3.5938-0.96094c0.19922-0.050781 0.36328-0.19531 0.44141-0.38672l2.5234-5.9961c0.082031-0.19531 0.066406-0.41797-0.042969-0.59766l-1.918-3.2344 4.6602-4.6602 3.2383 1.8594c0.17969 0.10156 0.39453 0.11719 0.58594 0.039063l5.9961-2.4531c0.19141-0.078125 0.33984-0.24219 0.39062-0.44531l0.95703-3.5938h6.5469l0.60547 2.2188c-2.1055 2.8086-3.5547 6.1367-4.1172 9.7578-6.3047 0.21875-11.371 5.4023-11.371 11.758 0 6.4922 5.2852 11.777 11.777 11.777 2.2617 0 4.4414-0.66406 6.3516-1.9102 0.011718 0.015625 0.023437 0.03125 0.035156 0.046875 1.707 2.3555 3.3516 4.6328 4.4102 7.2266-0.11328-0.019531-0.23047-0.015625-0.34375 0.03125zm-11.113-25.562v0.41016c0 0.023437 0.011719 0.042968 0.011719 0.066406 0.125 7.582 3.2148 12.48 6.2266 16.695-1.6797 1.0859-3.5938 1.6602-5.5742 1.6602-5.7578 0-10.445-4.6836-10.445-10.445 0-5.5664 4.3828-10.117 9.875-10.418-0.058594 0.67188-0.09375 1.3477-0.09375 2.0312zm24.828 41.664h-5.8594l-2.8086-4.6641h11.48zm7.2773-5.9961h-20.414v-4.4609h20.41zm3.5586-18.148c-2.7266 3.7656-5.3047 7.3281-5.7617 12.352l-7.3047 0.003906v-11.664l8.3945-8.3945c0.51172 0.33594 1.1211 0.53516 1.7773 0.53516 1.8633 0 3.3242-1.4297 3.3242-3.2578 0-1.8242-1.4609-3.2578-3.3242-3.2578-1.7969 0-3.2578 1.4609-3.2578 3.2578 0 0.65625 0.19922 1.2656 0.53516 1.7812l-6.7578 6.7578 6.0195-21.461c1.6914-0.11719 3.0352-1.5469 3.0352-3.3008 0-1.7969-1.4609-3.2578-3.2578-3.2578-1.7969 0-3.2578 1.4609-3.2578 3.2578 0 1.4336 0.89844 2.6445 2.1445 3.1133l-5.9844 21.332-5.0859-18.371c0.72266-0.60938 1.1953-1.5117 1.1953-2.5312 0-1.7969-1.4922-3.2578-3.3242-3.2578-1.7969 0-3.2578 1.4609-3.2578 3.2578 0 1.8633 1.4297 3.3242 3.2578 3.3242 0.32422 0 0.63281-0.0625 0.92969-0.14844l4.9883 18.023-6.7383-6.7422c0.33594-0.51172 0.53516-1.1211 0.53516-1.7812 0-1.7969-1.4609-3.2578-3.2578-3.2578-1.832 0-3.3242 1.4609-3.3242 3.2578s1.4922 3.2578 3.3242 3.2578c0.65625 0 1.2656-0.19922 1.7812-0.53516l8.2539 8.2578v11.801l-7.3711 0.003906c-0.097656-1.0977-0.30469-2.125-0.58984-3.0977-0.003906-0.011719-0.007812-0.023437-0.011718-0.039063-1.0117-3.4727-3.043-6.2852-5.1641-9.2148-0.10156-0.14062-0.20703-0.28516-0.30859-0.42578-0.019532-0.058594-0.042969-0.12109-0.082032-0.17188-0.035156-0.046874-0.082031-0.078124-0.125-0.11328-3.1758-4.4062-6.2852-9.0977-6.2852-16.805 0-0.83984 0.058594-1.668 0.15625-2.4844 0.03125-0.074219 0.050781-0.15625 0.050781-0.24219 0-0.019531-0.007812-0.035156-0.011719-0.054687 1.3633-10.047 9.9922-17.816 20.406-17.816 11.32 0 20.535 9.2422 20.535 20.598 0 8.1172-3.457 12.895-6.8008 17.512zm-4.8164-10.426c0-1.0625 0.86328-1.9219 1.9219-1.9219 1.1172 0 1.9922 0.84375 1.9922 1.9219s-0.875 1.9219-1.9922 1.9219c-1.0586 0-1.9219-0.86328-1.9219-1.9219zm-1.7578-14.234h-0.011719c-0.027344-0.011718-0.050781-0.035156-0.082031-0.042968-0.10547-0.03125-0.21094-0.023438-0.30859-0.003907-0.85547-0.19922-1.5195-1.0078-1.5195-1.9414 0-1.0625 0.86328-1.9258 1.9258-1.9258s1.9219 0.86328 1.9219 1.9258c-0.003906 1.0781-0.88281 1.9883-1.9258 1.9883zm-13.387 3.3047c-0.27734 0.14844-0.59375 0.24219-0.92969 0.24219-1.0781 0-1.9219-0.875-1.9219-1.9922 0-1.0625 0.86328-1.9219 1.9219-1.9219 1.0781 0 1.9922 0.87891 1.9922 1.9219 0 0.67578-0.33984 1.2734-0.85938 1.6328-0.074219 0.027344-0.14453 0.066406-0.20312 0.11719zm-4.4727 12.852c-1.0781 0-1.9922-0.87891-1.9922-1.9219s0.91016-1.9219 1.9922-1.9219c1.0625 0 1.9258 0.86328 1.9258 1.9219 0 1.0586-0.86328 1.9219-1.9258 1.9219zm13.91-30.707c0.79688-4.9727 5.1055-8.6523 10.289-8.6523 5.7578 0 10.441 4.6562 10.441 10.375 0 3.6719-1.9258 7.0391-5.0586 8.9297-3.2812-5.625-8.9844-9.6641-15.672-10.652zm33.887 5.0234-3.6602 0.96094c-0.20312 0.054688-0.36719 0.19922-0.44922 0.39453l-2.4531 5.9961c-0.078125 0.19141-0.0625 0.40625 0.039062 0.58594l1.8633 3.2422-4.6055 4.6602-3.3047-1.8633c-0.17578-0.097656-0.39062-0.11328-0.57812-0.035156l-2.1641 0.88281c-0.23828-2.8672-1.0312-5.5742-2.2656-8.0234 3.5625-2.125 5.7539-5.9414 5.7539-10.102 0-6.457-5.2812-11.711-11.777-11.711-5.8633 0-10.738 4.1875-11.613 9.8359-0.62109-0.054687-1.25-0.085937-1.8867-0.085937-3.7773 0-7.3359 0.96094-10.441 2.6484v-3.9297l3.6719-1.0234c0.19922-0.054687 0.35938-0.19922 0.4375-0.38672l2.457-5.9297c0.078125-0.1875 0.066406-0.40234-0.035156-0.58203l-1.8633-3.3047 4.6602-4.6016 3.2422 1.8633c0.17969 0.10156 0.39453 0.11719 0.58594 0.039062l6-2.4531c0.19531-0.078126 0.33984-0.24609 0.39453-0.44922l0.96094-3.6602h6.5469l1.0234 3.6719c0.054688 0.19922 0.19922 0.35937 0.38672 0.4375l5.9297 2.4531c0.1875 0.078126 0.40234 0.066407 0.58203-0.035156l3.3086-1.8633 4.6016 4.6016-1.8633 3.3086c-0.10156 0.17969-0.11328 0.39453-0.035156 0.58203l2.4531 5.9297c0.078126 0.1875 0.23828 0.33203 0.4375 0.38672l3.668 1.0234-0.003906 6.5352z"/>
<text x="0.0" y="117.5" font-size="5.0" font-weight="bold" font-family="Arbeit Regular, Helvetica, Arial-Unicode, Arial, Sans-serif" fill="#000000">Created by ali</text><text x="0.0" y="122.5" font-size="5.0" font-weight="bold" font-family="Arbeit Regular, Helvetica, Arial-Unicode, Arial, Sans-serif" fill="#000000">from Noun Project</text></svg>