<svg xmlns="http://www.w3.org/2000/svg" xmlnsXlink="http://www.w3.org/1999/xlink" xmlns:serif="http://www.serif.com/" viewBox="0 0 32 40" version="1.1" xmlSpace="preserve" style="" x="0px" y="0px" fillRule="evenodd" clip-rule="evenodd" stroke-linejoin="round" stroke-miterlimit="2"><g transform="matrix(1,0,0,1,-8,-9)"><g transform="matrix(0.965517,0,0,0.965517,0.827586,0.862069)"><g><path d="M30.046,19.219C29.942,18.999 29.799,18.795 29.623,18.619C29.22,18.216 28.674,17.99 28.104,17.99L26.454,17.99C25.267,17.99 24.305,18.952 24.305,20.139L24.305,24.075L23.695,24.075L23.695,22.858C23.695,21.671 22.733,20.709 21.546,20.709L19.896,20.709C19.326,20.709 18.78,20.935 18.377,21.338C18.201,21.514 18.058,21.718 17.954,21.938L15.577,21.938L15.019,20.719C14.669,19.955 13.905,19.464 13.065,19.464C12.634,19.464 12.126,19.464 11.649,19.464C11.079,19.464 10.533,19.691 10.13,20.094C9.726,20.497 9.5,21.044 9.5,21.614L9.5,31.105C9.5,31.675 9.726,32.222 10.13,32.625C10.533,33.028 11.079,33.255 11.649,33.255L21.546,33.255C22.733,33.255 23.695,32.292 23.695,31.105L23.695,28.549L24.311,28.549C24.394,29.66 25.322,30.536 26.454,30.536C28.989,30.536 33.815,30.536 36.351,30.536C36.921,30.536 37.467,30.309 37.87,29.906C38.274,29.503 38.5,28.956 38.5,28.386L38.5,18.895C38.5,18.325 38.274,17.778 37.87,17.375C37.467,16.972 36.921,16.745 36.351,16.745C35.874,16.745 35.366,16.745 34.935,16.745C34.095,16.745 33.331,17.236 32.981,18L32.423,19.219L30.046,19.219ZM25.316,28.549C25.395,29.107 25.874,29.536 26.454,29.536C26.454,29.536 36.351,29.536 36.351,29.536C36.655,29.536 36.948,29.415 37.163,29.199C37.379,28.984 37.5,28.691 37.5,28.386C37.5,28.386 37.5,22.289 37.5,22.289L29.753,22.289C29.477,22.289 29.253,22.065 29.253,21.789L29.253,20.139C29.253,19.834 29.132,19.542 28.916,19.326C28.701,19.111 28.408,18.99 28.103,18.99C28.103,18.99 26.454,18.99 26.454,18.99C25.819,18.99 25.305,19.504 25.305,20.139L25.305,24.075L26.617,24.075C27.146,24.075 27.654,24.286 28.028,24.66C28.403,25.034 28.613,25.542 28.613,26.071C28.613,26.347 28.389,26.571 28.113,26.571C27.837,26.571 27.613,26.347 27.613,26.071C27.613,25.807 27.508,25.554 27.321,25.367C27.135,25.18 26.881,25.075 26.617,25.075L21.23,25.075L21.3,25.139C21.505,25.323 21.522,25.64 21.338,25.845C21.153,26.05 20.837,26.067 20.631,25.882L19.593,24.947C19.487,24.852 19.427,24.717 19.427,24.575C19.427,24.434 19.487,24.299 19.593,24.204L20.631,23.269C20.837,23.084 21.153,23.101 21.338,23.306C21.522,23.511 21.505,23.828 21.3,24.012L21.23,24.075L22.695,24.075L22.695,22.858C22.695,22.223 22.181,21.709 21.546,21.709C21.546,21.709 19.897,21.709 19.896,21.709C19.592,21.709 19.299,21.83 19.084,22.045C18.868,22.261 18.747,22.553 18.747,22.858L18.747,24.508C18.747,24.784 18.523,25.008 18.247,25.008C18.247,25.008 10.5,25.008 10.5,25.008L10.5,31.105C10.5,31.41 10.621,31.702 10.837,31.918C11.052,32.134 11.345,32.255 11.649,32.255C11.649,32.255 21.546,32.255 21.546,32.255C22.181,32.255 22.695,31.74 22.695,31.105L22.695,28.549L21.423,28.549C20.894,28.549 20.386,28.339 20.012,27.965C19.637,27.59 19.427,27.083 19.427,26.553C19.427,26.277 19.651,26.053 19.927,26.053C20.203,26.053 20.427,26.277 20.427,26.553C20.427,26.817 20.532,27.071 20.719,27.257C20.906,27.444 21.159,27.549 21.423,27.549L26.81,27.549L26.74,27.486C26.535,27.301 26.518,26.985 26.703,26.78C26.887,26.575 27.204,26.558 27.409,26.743L28.448,27.677C28.553,27.772 28.613,27.907 28.613,28.049C28.613,28.191 28.553,28.326 28.448,28.421L27.409,29.356C27.204,29.54 26.887,29.524 26.703,29.319C26.518,29.113 26.535,28.797 26.74,28.612L26.81,28.549L25.316,28.549ZM17.747,22.938L15.256,22.938C15.06,22.938 14.883,22.824 14.801,22.647C14.801,22.647 14.11,21.135 14.11,21.135C13.923,20.726 13.514,20.464 13.065,20.464L11.649,20.464C11.345,20.464 11.052,20.585 10.837,20.801C10.621,21.016 10.5,21.309 10.5,21.614L10.5,24.008L17.747,24.008L17.747,22.938ZM37.5,21.289L37.5,18.895C37.5,18.59 37.379,18.298 37.163,18.082C36.948,17.866 36.655,17.745 36.351,17.745L34.935,17.745C34.486,17.745 34.077,18.008 33.89,18.416L33.199,19.928C33.117,20.105 32.94,20.219 32.744,20.219L30.253,20.219L30.253,21.289L37.5,21.289Z"/></g></g></g><text x="0" y="47" fill="#000000" font-size="5px" font-weight="bold" font-family="'Helvetica Neue', Helvetica, Arial-Unicode, Arial, Sans-serif">Created by suhartono</text><text x="0" y="52" fill="#000000" font-size="5px" font-weight="bold" font-family="'Helvetica Neue', Helvetica, Arial-Unicode, Arial, Sans-serif">from the Noun Project</text></svg>