<svg xmlns="http://www.w3.org/2000/svg" xmlns:xlink="http://www.w3.org/1999/xlink" version="1.1" x="0px" y="0px" viewBox="0 0 2048 2560" style="enable-background:new 0 0 2048 2048;" xml:space="preserve"><g><g><g><path d="M597.7,1206.2c-53.3,0-98.1-37.7-108.9-87.8c-51.2-5-98.6-27.4-135.4-64.2c-42.1-42.1-65.3-98.1-65.3-157.7V524.9     c0-13.7,11.1-24.8,24.8-24.8H489c11.3-49.6,55.8-86.7,108.7-86.7c53.3,0,98.1,37.7,109,87.8c51.2,5,98.6,27.4,135.4,64.2     c42.1,42.1,65.3,98.1,65.3,157.7c0,13.7-11.1,24.8-24.8,24.8c-34.2,0-61.9,27.8-61.9,61.9s27.8,61.9,61.9,61.9     c13.7,0,24.8,11.1,24.8,24.8v198.2c0,13.7-11.1,24.8-24.8,24.8H706.4C695.1,1169.1,650.6,1206.2,597.7,1206.2z M337.6,549.7     v346.8c0,95.6,77.8,173.4,173.4,173.4c13.7,0,24.8,11.1,24.8,24.8c0,34.1,27.8,61.9,61.9,61.9s61.9-27.8,61.9-61.9     c0-13.7,11.1-24.8,24.8-24.8h173.4V918.5c-49.6-11.3-86.7-55.8-86.7-108.7c0-52.5,36.4-96.6,85.4-108.4     c-10.7-85.4-83.8-151.7-172.1-151.7c-13.7,0-24.8-11.1-24.8-24.8c0-34.2-27.8-61.9-61.9-61.9s-61.9,27.8-61.9,61.9     c0,13.7-11.1,24.8-24.8,24.8L337.6,549.7L337.6,549.7z"/></g></g><g><g><path d="M1601,946.1c-13.7,0-24.8-11.1-24.8-24.8c0-34.2-27.8-61.9-61.9-61.9s-61.9,27.8-61.9,61.9c0,13.7-11.1,24.8-24.8,24.8     h-198.2c-13.7,0-24.8-11.1-24.8-24.8V745.1c-49.6-11.3-86.7-55.8-86.7-108.7c0-53.3,37.7-98.1,87.8-109     c5-51.2,27.4-98.6,64.2-135.4c36.8-36.8,84.3-59.2,135.4-64.2c10.9-50.1,55.6-87.8,108.9-87.8c53,0,97.4,37.1,108.7,86.7h176.2     c13.7,0,24.8,11.1,24.8,24.8v371.6c0,59.6-23.2,115.5-65.3,157.7C1716.6,922.9,1660.6,946.1,1601,946.1z M1254.2,896.5h151.4     c11.3-49.6,55.7-86.7,108.7-86.7c52.5,0,96.6,36.5,108.4,85.4c85.4-10.7,151.7-83.8,151.7-172.1V376.3H1601     c-13.7,0-24.8-11.1-24.8-24.8c0-34.2-27.8-61.9-61.9-61.9s-61.9,27.8-61.9,61.9c0,13.7-11.1,24.8-24.8,24.8     c-95.6,0-173.4,77.8-173.4,173.4c0,13.7-11.1,24.8-24.8,24.8c-34.2,0-61.9,27.8-61.9,61.9s27.8,61.9,61.9,61.9     c13.7,0,24.8,11.1,24.8,24.8L1254.2,896.5L1254.2,896.5z"/></g></g><g><g><path d="M597.7,1776c-29.8,0-57.8-11.6-78.8-32.7c-15.1-15.1-25.3-33.7-29.9-54.1H312.8c-13.7,0-24.8-11.1-24.8-24.8v-371.6     c0-59.6,23.2-115.5,65.3-157.7c42.1-42.1,98.1-65.3,157.7-65.3c13.7,0,24.8,11.1,24.8,24.8c0,34.1,27.8,61.9,61.9,61.9     s61.9-27.8,61.9-61.9c0-13.7,11.1-24.8,24.8-24.8h198.2c13.7,0,24.8,11.1,24.8,24.8v163.8c49.6,11.3,86.7,55.7,86.7,108.7     c0,53-37.2,97.5-86.9,108.8c-2.4,55.9-25.3,108.2-65.1,148c-36.8,36.8-84.2,59.2-135.4,64.2c-4.5,20.7-14.8,39.8-30.1,55.2     C655.5,1764.4,627.5,1776,597.7,1776z M337.6,1639.7H511c6.6,0,12.9,2.6,17.5,7.3c4.6,4.6,7.3,10.9,7.3,17.5     c0,16.5,6.4,32.1,18.1,43.8s27.3,18.1,43.8,18.1s32.1-6.4,43.8-18.1c11.7-11.7,18.1-27.3,18.1-43.8c0-6.6,2.6-12.9,7.3-17.5     c4.6-4.6,10.9-7.3,17.5-7.3c95.6,0,173.4-77.8,173.4-173.4v-12.4c0-13.7,11.1-24.8,24.8-24.8c34.2,0,61.9-27.8,61.9-61.9     s-27.8-61.9-61.9-61.9c-13.7,0-24.8-11.1-24.8-24.8v-161H706.4c-11.3,49.6-55.8,86.7-108.7,86.7c-52.5,0-96.6-36.4-108.4-85.4     c-85.4,10.7-151.7,83.8-151.7,172.1L337.6,1639.7L337.6,1639.7z"/></g></g><g><g><path d="M1167.5,1776c-29.8,0-57.8-11.6-78.8-32.7c-15.4-15.4-25.7-34.4-30.1-55.2c-51.1-5-98.6-27.4-135.4-64.2     c-42.1-42.1-65.3-98.1-65.3-157.7v-12.4c0-13.7,11.1-24.8,24.8-24.8c34.2,0,61.9-27.8,61.9-61.9s-27.8-61.9-61.9-61.9     c-13.7,0-24.8-11.1-24.8-24.8v-185.8c0-13.7,11.1-24.8,24.8-24.8h176.2c11.3-49.6,55.7-86.7,108.7-86.7     c53.3,0,98.1,37.7,109,87.8c51.2,5,98.6,27.4,135.4,64.2c42.1,42.1,65.3,98.1,65.3,157.7v371.6c0,13.7-11.1,24.8-24.8,24.8     h-176.2c-4.6,20.3-14.8,39-29.9,54.1C1225.3,1764.4,1197.3,1776,1167.5,1776z M907.6,1475.8c5,91.2,80.7,163.9,173.2,163.9     c6.6,0,12.9,2.6,17.5,7.3s7.3,10.9,7.3,17.5c0,16.5,6.4,32.1,18.1,43.8s27.3,18.1,43.8,18.1s32.1-6.4,43.8-18.1     c11.7-11.7,18.1-27.3,18.1-43.8c0-6.6,2.6-12.9,7.3-17.5s10.9-7.3,17.5-7.3h173.4v-346.8c0-95.6-77.8-173.4-173.4-173.4     c-13.7,0-24.8-11.1-24.8-24.8c0-34.2-27.8-61.9-61.9-61.9s-61.9,27.8-61.9,61.9c0,13.7-11.1,24.8-24.8,24.8H907.4v139     c49.6,11.3,86.7,55.8,86.7,108.7C994.1,1420.1,957.1,1464.5,907.6,1475.8z"/></g></g></g><text x="0" y="2063" fill="#000000" font-size="5px" font-weight="bold" font-family="'Helvetica Neue', Helvetica, Arial-Unicode, Arial, Sans-serif">Created by Iconbunny</text><text x="0" y="2068" fill="#000000" font-size="5px" font-weight="bold" font-family="'Helvetica Neue', Helvetica, Arial-Unicode, Arial, Sans-serif">from the Noun Project</text></svg>