<svg xmlns="http://www.w3.org/2000/svg" version="1.1" viewBox="-5.0 -10.0 110.0 135.0">
 <path d="m40.82 29.09-4.1641 4.1641h0.003906c-0.375 0.375-0.375 0.98438 0 1.3633l14.57 14.574c0.37891 0.37109 0.98828 0.37109 1.3633 0l4.1641-4.1641c0.375-0.37891 0.375-0.98828 0-1.3672l-14.57-14.57c-0.37891-0.375-0.98828-0.375-1.3672 0zm27.117 32.59v-2.5859c0-0.61328-0.5-1.1094-1.1133-1.1133h-32.016c-0.61328 0.003906-1.1055 0.5-1.1094 1.1133v0.57812c3.3555 0.29297 6.625 1.2227 9.6289 2.7422 2.7852 1.2812 5.6562 2.6016 15.645 3.9805l8.9688-4.7148zm-9.9062 13.91-15.113-1.8789c-1.7891-0.34375-3.6367-0.21875-5.3633 0.35547-0.78516 0.20703-1.5781 0.36719-2.3828 0.47266-0.49219 0.074219-0.83984 0.52344-0.78906 1.0195 0.054688 0.49609 0.49219 0.85938 0.98828 0.82422 2.1719-0.24219 5.1562-1.4727 7.0703-0.88281 0.28906 0.09375 13.82 1.7422 15.348 1.9336l0.003907-0.003906c0.49609 0.0625 1 0.035156 1.4922-0.074219 0.19141 0.050781 0.38672 0.082031 0.58594 0.089843 0.60938 0.058594 1.2266 0.050782 1.8359-0.023437l22.262-9.5508c1.6797-0.83984 3.7227-0.37109 4.8672 1.1172 0.52344 0.72266 0.70703 1.6367 0.51172 2.5078-0.19922 0.87109-0.76172 1.6133-1.5469 2.0391l-22.184 9.5234c-1.2422 0.53125-2.9727 1.625-4.3242 1.6797-3.3203-0.046875-6.625-0.19922-9.9766-0.35547-5.5234-0.25781-11.172-0.51953-17.48-0.32422h0.003906c-0.10547 0.003906-0.21094 0.023437-0.30859 0.0625-2.5508 1-7.1172 4.0117-11.074 6.6211-1.9844 1.3086-3.7734 2.4883-4.9727 3.1914-0.39844 0.23047-0.03125 1.3984-0.28516 0.96875l-12.117-20.699c1.0078-0.61719 2.4883-1.6328 4.2383-2.8281 8.8008-6.0195 13.133-10.215 23.344-9.8984h0.10156-0.003906c1.8438 0.0625 3.6719 0.37109 5.4336 0.91406 1.4961 0.45703 2.9531 1.0312 4.3594 1.7109 2.918 1.3398 5.9258 2.7227 16.273 4.1484 2.9531 0.40625 4.1133 4.043 1.6211 6.418v-0.003907c-0.45312 0.45313-1.0312 0.76563-1.6562 0.89844-0.27344 0-0.53125 0.007812-0.75781 0.027344zm-15.566-19.469h16.707v-4.4922c-0.007813-0.60156-0.49219-1.082-1.0898-1.0898h-14.527c-0.60156 0.003907-1.0859 0.48828-1.0898 1.0898v4.4961zm26.891 6.8984 4.1328-2.1719v0.003906c0.83203-0.44922 1.7969-0.58203 2.7227-0.37891 1.3047 0.33203 2.2891 1.4141 2.4961 2.7461s-0.40234 2.6602-1.543 3.375l-14.41 8.1406c0.80859-1.1836 1.1094-2.6367 0.83984-4.0391-0.27344-1.4062-1.0938-2.6445-2.2812-3.4414l7.9258-4.168c0.042969-0.015626 0.078125-0.035157 0.11719-0.058594zm-5.8008-27.586v0.003906c0.99609-1.1797 2.0898-2.2695 3.2656-3.2656l27.938 27.941c0.21875 0.21875 0.21875 0.57812 0 0.79688l-2.4688 2.4688h-0.003906c-0.21875 0.22266-0.57812 0.22266-0.79688 0l-27.934-27.938zm-6.0117 6.3828-13.516-13.512c7.0977-2.9219 12.734-8.5586 15.656-15.656l13.516 13.516c-7.0977 2.9219-12.734 8.5586-15.656 15.656zm7.0898-36.535-4.1641 4.1641c-0.375 0.375-0.375 0.98438 0 1.3633l14.57 14.57c0.37891 0.375 0.98828 0.375 1.3672 0l4.1641-4.1641h-0.003906c0.375-0.375 0.375-0.98438 0-1.3633l-14.566-14.57c-0.37891-0.37891-0.98828-0.37891-1.3672 0z" fill-rule="evenodd"/>
<text x="0.0" y="117.5" font-size="5.0" font-weight="bold" font-family="Arbeit Regular, Helvetica, Arial-Unicode, Arial, Sans-serif" fill="#000000">Created by Hanif Ainun</text><text x="0.0" y="122.5" font-size="5.0" font-weight="bold" font-family="Arbeit Regular, Helvetica, Arial-Unicode, Arial, Sans-serif" fill="#000000">from Noun Project</text></svg>