<svg xmlns="http://www.w3.org/2000/svg" data-name="Layer 1" viewBox="0 0 100 125" x="0px" y="0px"><defs><style>
      .cls-1 {
        fillRule: evenodd;
        stroke-width: 0px;
      }
    </style></defs><path class="cls-1" d="m38.269,89.78c-2.212,2.212-5.269,3.581-8.645,3.581s-6.432-1.369-8.645-3.581c-2.212-2.212-3.581-5.269-3.581-8.645,0-5.547,4.842-11.03,8.758-15.464.931-1.054,1.807-2.046,2.559-2.979.054-.069.117-.134.188-.191.495-.398,1.22-.32,1.618.176.754.937,1.635,1.934,2.571,2.994,3.916,4.434,8.758,9.918,8.758,15.464,0,3.376-1.369,6.432-3.581,8.645h0Zm-8.645,1.273c2.739,0,5.218-1.11,7.013-2.905,1.795-1.795,2.905-4.274,2.905-7.013,0-4.687-4.518-9.803-8.172-13.941-.614-.696-1.205-1.365-1.746-1.998-.541.633-1.132,1.302-1.746,1.998-3.653,4.137-8.172,9.254-8.172,13.941,0,2.739,1.11,5.218,2.905,7.013,1.795,1.795,4.274,2.905,7.013,2.905h0Zm4.01-3.125c1.255-.766,2.297-1.844,3.017-3.126.697-1.24,1.094-2.669,1.094-4.188,0-.637-.517-1.154-1.154-1.154s-1.154.517-1.154,1.154c0,1.114-.289,2.158-.797,3.061-.528.94-1.29,1.729-2.206,2.288-.543.331-.714,1.04-.383,1.582.331.543,1.04.714,1.582.383h0Zm-4.455,1.252c.062,0,.181-.004.356-.011.171-.007.29-.013.36-.019.635-.052,1.107-.609,1.055-1.244s-.609-1.107-1.244-1.055c-.136.011-.224.018-.261.019-.031.001-.119.002-.266.002-.637,0-1.154.517-1.154,1.154s.517,1.154,1.154,1.154h0Zm14.882-46.074c0-.637.517-1.154,1.154-1.154s1.154.517,1.154,1.154c0,1.269.593,2.425,1.551,3.267,1.001.879,2.395,1.423,3.946,1.423s2.945-.544,3.946-1.423c.958-.842,1.551-1.998,1.551-3.267,0-3.587-2.824-4.172-5.641-4.756-3.724-.772-7.438-1.542-7.438-6.93,0-1.959.896-3.725,2.345-4.999,1.147-1.008,2.642-1.702,4.306-1.924v-2.492c0-.637.517-1.154,1.154-1.154s1.154.517,1.154,1.154v2.492c1.664.222,3.16.916,4.306,1.924,1.449,1.273,2.345,3.04,2.345,4.999,0,.637-.517,1.154-1.154,1.154s-1.154-.517-1.154-1.154c0-1.269-.593-2.425-1.551-3.267-1.001-.879-2.395-1.423-3.946-1.423h0c-1.551,0-2.945.544-3.946,1.423-.958.842-1.551,1.998-1.551,3.267,0,3.517,2.791,4.096,5.59,4.676,3.74.775,7.489,1.553,7.489,7.011,0,1.959-.896,3.725-2.345,4.999-1.095.962-2.509,1.639-4.083,1.891v2.525c0,.637-.517,1.154-1.154,1.154s-1.154-.517-1.154-1.154v-2.465c-1.753-.188-3.332-.898-4.529-1.951-1.449-1.273-2.345-3.04-2.345-4.999h0Zm28.414,30.566c-.543.331-1.251.16-1.582-.383-.331-.543-.16-1.251.383-1.582.916-.559,1.678-1.348,2.206-2.288.507-.903.797-1.947.797-3.061,0-.637.517-1.154,1.154-1.154s1.154.517,1.154,1.154c0,1.519-.397,2.948-1.094,4.188-.72,1.282-1.762,2.361-3.017,3.126h0Zm-4.455,1.252c-.637,0-1.154-.517-1.154-1.154s.517-1.154,1.154-1.154c.147,0,.236,0,.266-.002.038-.002.126-.008.261-.019.635-.052,1.192.42,1.244,1.055.052.635-.42,1.192-1.055,1.244-.07.006-.19.012-.36.019-.176.007-.295.011-.356.011h0Zm2.642-24.957c1.125-1.652,2.037-3.46,2.695-5.386.784-2.292,1.209-4.753,1.209-7.318,0-6.238-2.528-11.885-6.616-15.973-4.088-4.088-9.735-6.616-15.973-6.616s-11.885,2.528-15.973,6.616-6.616,9.735-6.616,15.973,2.528,11.885,6.616,15.973,9.735,6.616,15.973,6.616c1.319,0,2.606-.111,3.852-.325,1.15-.197,2.27-.482,3.353-.846,1.695-2.6,3.869-5.063,5.815-7.266.931-1.054,1.807-2.046,2.559-2.979.054-.069.117-.134.188-.191.495-.398,1.22-.32,1.618.176.401.498.838,1.014,1.3,1.546h0Zm-9.721,10.231c-.022.039-.046.077-.072.114-1.376,2.189-2.322,4.423-2.322,6.567,0,2.739,1.11,5.218,2.905,7.013,1.795,1.795,4.274,2.905,7.013,2.905s5.218-1.11,7.013-2.905,2.905-4.274,2.905-7.013c0-4.687-4.518-9.803-8.172-13.94l-.296-.335c-.023-.024-.044-.048-.064-.073-.485-.55-.952-1.081-1.386-1.589-.541.633-1.132,1.302-1.746,1.998-1.953,2.212-4.153,4.703-5.778,7.26h0Zm13.583-5.795c1.705-2.24,3.084-4.743,4.067-7.44,1.101-3.02,1.702-6.288,1.702-9.701,0-7.819-3.169-14.898-8.293-20.022-5.124-5.124-12.203-8.293-20.022-8.293s-14.898,3.169-20.022,8.293c-5.124,5.124-8.293,12.203-8.293,20.022s3.169,14.898,8.293,20.022c5.124,5.124,12.203,8.293,20.022,8.293.919,0,1.797-.039,2.634-.116.591-.054,1.179-.128,1.764-.219.203-1.251.626-2.494,1.201-3.717-.448.103-.901.194-1.359.273-1.384.238-2.801.361-4.239.361-6.875,0-13.099-2.787-17.605-7.292s-7.292-10.73-7.292-17.605,2.787-13.099,7.292-17.605c4.506-4.506,10.73-7.292,17.605-7.292s13.099,2.787,17.605,7.292c4.506,4.506,7.292,10.73,7.292,17.605,0,2.816-.47,5.527-1.336,8.058-.792,2.315-1.915,4.476-3.313,6.427.751.851,1.53,1.739,2.298,2.657h0Zm-18.264,13.181c.176,3.095,1.504,5.882,3.561,7.939,2.212,2.213,5.269,3.581,8.645,3.581s6.432-1.369,8.645-3.581,3.581-5.269,3.581-8.645c0-3.669-2.118-7.309-4.686-10.637,2.008-2.539,3.622-5.401,4.75-8.494,1.194-3.277,1.846-6.808,1.846-10.486,0-8.456-3.428-16.112-8.97-21.654-5.542-5.542-13.198-8.97-21.654-8.97s-16.112,3.428-21.654,8.97c-5.542,5.542-8.97,13.198-8.97,21.654s3.428,16.112,8.97,21.654c5.542,5.542,13.198,8.97,21.654,8.97.927,0,1.875-.046,2.841-.135.485-.045.966-.1,1.441-.167Z"/><text x="0" y="115" fill="#000000" font-size="5px" font-weight="bold" font-family="'Helvetica Neue', Helvetica, Arial-Unicode, Arial, Sans-serif">Created by Good Father</text><text x="0" y="120" fill="#000000" font-size="5px" font-weight="bold" font-family="'Helvetica Neue', Helvetica, Arial-Unicode, Arial, Sans-serif">from the Noun Project</text></svg>