<svg xmlns="http://www.w3.org/2000/svg" version="1.1" viewBox="-5.0 -10.0 110.0 135.0">
 <g>
  <path  d="m36.41 57.77h-9.4609c-0.5625 0-1.0664 0.35156-1.2656 0.875l-7.3711 19.656-0.62891-0.62891 1.0859-3.2617c0.16406-0.48438 0.035157-1.0195-0.32422-1.3828l-1.8828-1.8867 2.2734-3.1211c0.22266-0.30078 0.30469-0.68359 0.23437-1.0508-0.070312-0.36719-0.29297-0.6875-0.60937-0.88672l-2.8711-1.8008 1.5039-1.5039c0.26562-0.26562 0.40625-0.625 0.39453-0.99609l-0.085937-2.7031c-0.023438-0.73047-0.62109-1.3086-1.3516-1.3086h-6.668c-0.74609 0-1.3516 0.60547-1.3516 1.3516v32.434c0 0.74609 0.60547 1.3516 1.3516 1.3516h27.027c0.74609 0 1.3516-0.60547 1.3516-1.3516v-32.434c0-0.74609-0.60547-1.3516-1.3516-1.3516zm-1.3516 32.434h-24.324v-29.73h4.0117l0.023437 0.80859-2.2891 2.2891c-0.29297 0.28906-0.43359 0.69922-0.38672 1.1055 0.046875 0.41016 0.27734 0.77344 0.625 0.99219l3.082 1.9336-2.1016 2.8828c-0.39453 0.53516-0.33594 1.2812 0.13672 1.75l2.1133 2.1133-1.0859 3.2617c-0.16406 0.48438-0.035156 1.0195 0.32422 1.3828l2.7031 2.7031c0.32422 0.32422 0.79297 0.45703 1.2422 0.36719 0.44922-0.097656 0.81641-0.41406 0.98047-0.84766l7.7734-20.742h7.1719z"/>
  <path  d="m26.953 67.23c0 0.74609 0.60547 1.3516 1.3516 1.3516h4.0547c0.74609 0 1.3516-0.60547 1.3516-1.3516 0-0.74609-0.60547-1.3516-1.3516-1.3516h-4.0547c-0.75 0-1.3516 0.60547-1.3516 1.3516z"/>
  <path   d="m32.355 73.984h-4.0547c-0.74609 0-1.3516 0.60547-1.3516 1.3516 0 0.74609 0.60547 1.3516 1.3516 1.3516h4.0547c0.74609 0 1.3516-0.60547 1.3516-1.3516 0-0.74609-0.60156-1.3516-1.3516-1.3516z"/>
  <path  d="m32.355 82.094h-9.4609c-0.74609 0-1.3516 0.60547-1.3516 1.3516 0 0.74609 0.60547 1.3516 1.3516 1.3516h9.4609c0.74609 0 1.3516-0.60547 1.3516-1.3516 0-0.74609-0.60156-1.3516-1.3516-1.3516z"/>
  <path   d="m91.617 81.582-1.4297-5.1328c-0.96094-3.4766-3.2305-6.3633-6.3242-8.1172l3.7227-6.5156c0.27734-0.48828 0.22656-1.0938-0.12891-1.5273-0.35547-0.43359-0.9375-0.60547-1.4727-0.42578l-6.9961 2.332-2.1797-4.3594c-0.46094-0.91406-1.957-0.91406-2.418 0l-2.1797 4.3594-6.9961-2.332c-0.53516-0.18359-1.1172-0.007812-1.4727 0.42578-0.35547 0.43359-0.40625 1.0391-0.12891 1.5273l3.7227 6.5156c-3.0938 1.75-5.3633 4.6406-6.3242 8.1133l-1.4336 5.1367c-0.79688 2.875-0.21875 5.8867 1.5898 8.2656 1.8047 2.3711 4.5469 3.7305 7.5234 3.7305h13.812c2.9766 0 5.7188-1.3594 7.5234-3.7305 1.8086-2.375 2.3867-5.3867 1.5898-8.2656zm-3.7383 6.6289c-1.2891 1.6953-3.2461 2.6641-5.3711 2.6641l-13.812 0.003906c-2.125 0-4.082-0.97266-5.3711-2.6641-1.2891-1.6953-1.7031-3.8477-1.1367-5.9023l1.4336-5.1367c0.875-3.168 3.1133-5.7266 6.1367-7.0234 0.023438-0.011719 0.039063-0.03125 0.0625-0.042969 0.023438-0.011719 0.050782-0.011719 0.074219-0.023437 0.058594-0.03125 0.09375-0.085938 0.14453-0.125 0.074219-0.054688 0.14453-0.10938 0.20313-0.17578 0.054687-0.066406 0.09375-0.13672 0.13672-0.21484 0.042969-0.074218 0.085938-0.14844 0.11328-0.23047 0.027343-0.082032 0.035156-0.16797 0.046874-0.25391 0.011719-0.085938 0.023438-0.16406 0.019532-0.25391-0.003906-0.089843-0.03125-0.17969-0.054688-0.26953-0.015625-0.0625-0.011718-0.125-0.039062-0.18359-0.011719-0.023437-0.03125-0.039062-0.042969-0.0625-0.011719-0.023437-0.011719-0.050781-0.023437-0.074218l-2.6758-4.6875 4.7539 1.582c0.64063 0.21484 1.3359-0.074219 1.6367-0.67578l1.4922-2.9883 1.4922 2.9883c0.30078 0.60156 1 0.89062 1.6367 0.67578l4.7539-1.582-2.6758 4.6875c-0.015625 0.023437-0.011719 0.050781-0.023438 0.074218-0.011718 0.023438-0.03125 0.039063-0.042968 0.0625-0.027344 0.058594-0.023438 0.12109-0.039063 0.18359-0.023437 0.089844-0.050781 0.17578-0.054687 0.26953-0.003906 0.085938 0.007812 0.16797 0.019531 0.25391 0.011719 0.085937 0.019531 0.17187 0.046875 0.25391 0.027344 0.082031 0.070312 0.15625 0.11328 0.23047 0.042969 0.074219 0.082031 0.14844 0.13672 0.21484 0.058594 0.070313 0.12891 0.12109 0.20312 0.17578 0.050781 0.039062 0.085937 0.09375 0.14453 0.125 0.03125 0.019531 0.0625 0.023437 0.097656 0.039062 0.015626 0.007812 0.027344 0.023438 0.042969 0.027344 3.0234 1.2969 5.2617 3.8555 6.1367 7.0273l1.4297 5.1328c0.55859 2.0508 0.14453 4.2031-1.1445 5.8984z"/>
  <path  d="m79.652 78.715c0.74609 0 1.3516-0.60547 1.3516-1.3516 0-0.74609-0.60547-1.3516-1.3516-1.3516h-2.7031v-1.3516c0-0.74609-0.60547-1.3516-1.3516-1.3516s-1.3516 0.60547-1.3516 1.3516v1.3516h-0.67578c-1.8633 0-3.3789 1.5156-3.3789 3.3789s1.5156 3.3789 3.3789 3.3789h0.67578v1.3516h-2.7031c-0.74609 0-1.3516 0.60547-1.3516 1.3516s0.60547 1.3516 1.3516 1.3516h2.7031v1.3516c0 0.74609 0.60547 1.3516 1.3516 1.3516s1.3516-0.60547 1.3516-1.3516v-1.3516h0.67578c1.8633 0 3.3789-1.5156 3.3789-3.3789 0-1.8633-1.5156-3.3789-3.3789-3.3789h-0.67578v-1.3516zm-2.0234 4.0547c0.37109 0 0.67578 0.30469 0.67578 0.67578 0 0.37109-0.30469 0.67578-0.67578 0.67578h-0.67578v-1.3516zm-3.3789-2.7031h-0.67578c-0.37109 0-0.67578-0.30469-0.67578-0.67578s0.30469-0.67578 0.67578-0.67578h0.67578z"/>
  <path   d="m63.438 36.148v-4.0547c0-0.74609-0.60547-1.3516-1.3516-1.3516v-13.512h1.3516c0.60547 0 1.1406-0.40625 1.3008-0.99219 0.16406-0.58594-0.085937-1.207-0.60547-1.5195l-13.512-8.1094c-0.42578-0.25781-0.96484-0.25781-1.3906 0l-13.512 8.1094c-0.51953 0.3125-0.76953 0.93359-0.60547 1.5195 0.16406 0.58594 0.69531 0.99219 1.3008 0.99219h1.3516v13.512c-0.74609 0-1.3516 0.60547-1.3516 1.3516v4.0547c0 0.74609 0.60547 1.3516 1.3516 1.3516h24.324c0.74219 0 1.3477-0.60547 1.3477-1.3516zm-4.0547-5.4062h-2.7031v-13.512h2.7031zm-8.1055 0v-13.512h2.7031v13.512zm-5.4062 0v-13.512h2.7031v13.512zm4.0547-21.398 8.6328 5.1797-17.27 0.003906zm-9.4609 7.8867h2.7031v13.512h-2.7031zm20.27 17.566h-21.621v-1.3516h21.621z"/>
  <path  d="m51.277 80.742h-2.7031c-0.74609 0-1.3516 0.60547-1.3516 1.3516s0.60547 1.3516 1.3516 1.3516h2.7031c0.74609 0 1.3516-0.60547 1.3516-1.3516s-0.60547-1.3516-1.3516-1.3516z"/>
  <path  d="m81.004 48.309v2.7031c0 0.74609 0.60547 1.3516 1.3516 1.3516 0.74609 0 1.3516-0.60547 1.3516-1.3516v-2.7031c0-0.74609-0.60547-1.3516-1.3516-1.3516-0.74609 0.003907-1.3516 0.60547-1.3516 1.3516z"/>
  <path   d="m79.598 40.312 0.69922 2.6094c0.16016 0.60547 0.70703 1 1.3047 1 0.11719 0 0.23438-0.015625 0.35156-0.046875 0.71875-0.19141 1.1484-0.93359 0.95703-1.6562l-0.69922-2.6094c-0.19141-0.72266-0.93359-1.1484-1.6562-0.95703-0.72266 0.19922-1.1484 0.9375-0.95703 1.6602z"/>
  <path d="m77.516 35.293c0.25 0.43359 0.70312 0.67578 1.1719 0.67578 0.23047 0 0.46094-0.058594 0.67578-0.17969 0.64844-0.375 0.86719-1.1992 0.49609-1.8477l-1.3516-2.3398c-0.375-0.64453-1.2031-0.87109-1.8477-0.49609-0.64844 0.375-0.86719 1.1992-0.49609 1.8477z"/>
  <path d="m72.859 28.641c0.26562 0.26562 0.60938 0.39453 0.95703 0.39453s0.69141-0.13281 0.95703-0.39453c0.52734-0.52734 0.52734-1.3828 0-1.9102l-1.9102-1.9102c-0.52734-0.52734-1.3828-0.52734-1.9102 0-0.52734 0.52734-0.52734 1.3828 0 1.9102z"/>
  <path d="m63.801 20.223c-0.375 0.64844-0.15234 1.4727 0.49609 1.8477l2.3398 1.3516c0.21094 0.12109 0.44531 0.17969 0.67578 0.17969 0.46875 0 0.92188-0.24219 1.1719-0.67578 0.375-0.64844 0.15234-1.4727-0.49609-1.8477l-2.3398-1.3516c-0.64844-0.37109-1.4766-0.14844-1.8477 0.49609z"/>
  <path  d="m26.035 29.035c0.34766 0 0.69141-0.13281 0.95703-0.39453l1.9102-1.9102c0.52734-0.52734 0.52734-1.3828 0-1.9102-0.52734-0.52734-1.3828-0.52734-1.9102 0l-1.9102 1.9102c-0.52734 0.52734-0.52734 1.3828 0 1.9102 0.26172 0.26172 0.60938 0.39453 0.95312 0.39453z"/>
  <path  d="m20.484 35.785c0.21094 0.12109 0.44531 0.17969 0.67578 0.17969 0.46875 0 0.92188-0.24219 1.1719-0.67578l1.3516-2.3398c0.375-0.64844 0.15234-1.4727-0.49609-1.8477s-1.4727-0.15234-1.8477 0.49609l-1.3516 2.3398c-0.37109 0.64844-0.14844 1.4766 0.49609 1.8477z"/>
  <path d="m17.898 43.879c0.11719 0.03125 0.23437 0.046875 0.35156 0.046875 0.59766 0 1.1445-0.39844 1.3047-1l0.69922-2.6094c0.19141-0.71875-0.23438-1.4609-0.95703-1.6562-0.71875-0.19141-1.4609 0.23438-1.6562 0.95703l-0.69922 2.6094c-0.19141 0.71484 0.23438 1.457 0.95703 1.6523z"/>
  <path  d="m17.492 52.363c0.74609 0 1.3516-0.60547 1.3516-1.3516v-2.7031c0-0.74609-0.60547-1.3516-1.3516-1.3516-0.74609 0-1.3516 0.60547-1.3516 1.3516v2.7031c0 0.75 0.60547 1.3516 1.3516 1.3516z"/>
  <path  d="m43.184 80.035-2.6094-0.69922c-0.71875-0.19531-1.4609 0.23437-1.6562 0.95703-0.19141 0.71875 0.23438 1.4609 0.95703 1.6562l2.6094 0.69922c0.11719 0.03125 0.23438 0.046874 0.35156 0.046874 0.59766 0 1.1445-0.39844 1.3047-1 0.19141-0.72656-0.23438-1.4688-0.95703-1.6602z"/>
  <path  d="m28.301 22.637h4.0547v4.0547c0 0.74609 0.60547 1.3516 1.3516 1.3516 0.74609 0 1.3516-0.60547 1.3516-1.3516v-5.4062c0-0.74609-0.60547-1.3516-1.3516-1.3516h-5.4062c-0.74609 0-1.3516 0.60547-1.3516 1.3516 0.003906 0.74609 0.60547 1.3516 1.3516 1.3516z"/>
  <path  d="m79.453 52.176c-0.39453-0.63672-1.2266-0.83594-1.8594-0.44531-0.63672 0.39062-0.83594 1.2227-0.44531 1.8594l3 4.8867c0.25781 0.41406 0.69922 0.64453 1.1523 0.64453 0.24219 0 0.48438-0.066406 0.70703-0.19922l4.8867-3c0.63672-0.39062 0.83594-1.2227 0.44531-1.8594s-1.2266-0.83203-1.8594-0.44531l-3.7344 2.293z"/>
 </g>
</svg>