<?xml version="1.0" encoding="utf-8"?>
<svg version="1.1" width="1300px" height="600px" xmlns="http://www.w3.org/2000/svg">
  <defs/>
  <path d="M -7.229 30.901 C 435.674 30.901 878.587 30.901 1334.916 30.901 C 1334.916 192.493 1334.916 354.08 1334.916 520.577 C 892.009 520.577 449.092 520.577 -7.229 520.577 C -7.229 358.983 -7.229 197.39 -7.229 30.901 Z" fill="#FEFEFE" style=""/>
  <path d="M 349.189 115.666 C 361.25 127.154 361.272 143.121 362.986 160.151 C 363.355 169.768 363.258 179.122 362.986 188.752 C 354.843 191.486 347.819 192.191 339.362 191.929 C 331.241 191.675 326.71 192.08 318.842 195.103 C 320.66 188.813 322.483 182.523 324.36 176.04 C 322.539 178.134 320.715 180.232 318.842 182.395 C 317.93 182.395 317.019 182.395 316.081 182.395 C 314.739 159.594 314.739 159.594 320.562 148.235 C 327.118 141.085 327.118 141.085 335.739 134.531 C 343.457 128.537 346.129 125.539 349.189 115.666 Z" fill="#1F774E" style=""/>
  <path d="M 388.57 123.138 C 399.259 131.103 409.846 139.145 420.404 147.269 C 426.637 151.899 426.637 151.899 433.006 156.62 C 444.533 169.932 443.269 179.023 441.626 195.521 C 434.623 190.744 427.617 185.97 420.404 181.043 C 423.03 184.033 425.658 187.021 428.363 190.088 C 436.324 200.348 436.324 200.348 436.324 209.996 C 412.829 204.179 399.043 198.058 383.257 181.043 C 375.882 167.639 376.968 157.311 377.959 142.442 C 383.257 130.985 383.257 130.985 388.57 123.138 Z" fill="#8FC14F" style=""/>
  <text style="white-space: pre; fill: rgb(51, 51, 51); font-family: Arial, sans-serif; font-size: 28px;" x="70.189" y="146.239" transform="matrix(3.225891, 0, 0, 2.889222, -91.816301, 15.144552)">Registered Valuer Entity</text>
  <text style="white-space: pre; fill: rgb(51, 51, 51); font-family: Arial, sans-serif; font-size: 28px;" x="179.507" y="180.378" transform="matrix(5.692024, 0, 0, 3.158066, -682.244822, -157.305636)"> </text>
  <text style="white-space: pre; fill: rgb(51, 51, 51); font-family: Arial, sans-serif; font-size: 28px;" x="156.364" y="162.717" transform="matrix(5.692024, 0, 0, 3.158066, -682.244822, -157.305636)"> </text>
  <text style="white-space: pre; fill: rgb(51, 51, 51); font-family: Arial, sans-serif; font-size: 28px;" x="74.452" y="155.104" transform="matrix(2.959863, 0, 0, 3.09423, -145.915789, -171.278079)"> </text>
  <text style="fill: rgb(51, 51, 51); font-family: Arial, sans-serif; font-size: 28px; font-weight: 700; white-space: pre;" transform="matrix(11.361676, 0, 0, 10.342111, -603.107126, -1051.935807)" x="61.053" y="137.138">Futurity</text>
  <text style="white-space: pre; fill: rgb(51, 51, 51); font-family: Arial, sans-serif; font-size: 28px;" x="151.187" y="100.901" transform="matrix(7.715952, 0, 0, 7.189713, -968.515395, -459.118446)"> </text>
</svg>