<?xml version="1.0" encoding="utf-8"?>
<svg version="1.1" width="1300px" height="600px" xmlns="http://www.w3.org/2000/svg">
  <defs/>
  <path d="M -7.229 30.901 C 435.674 30.901 878.587 30.901 1334.916 30.901 C 1334.916 192.493 1334.916 354.08 1334.916 520.577 C 892.009 520.577 449.092 520.577 -7.229 520.577 C -7.229 358.983 -7.229 197.39 -7.229 30.901 Z" fill="#FEFEFE" style=""/>
  <path d="M 918.623 123.894 C 929.312 131.859 939.899 139.901 950.457 148.025 C 956.69 152.655 956.69 152.655 963.059 157.376 C 974.586 170.688 973.322 179.779 971.679 196.277 C 964.676 191.5 957.67 186.726 950.457 181.799 C 953.083 184.789 955.711 187.777 958.416 190.844 C 966.377 201.104 966.377 201.104 966.377 210.752 C 942.882 204.935 929.096 198.814 913.31 181.799 C 905.935 168.395 907.021 158.067 908.012 143.198 C 913.31 131.741 913.31 131.741 918.623 123.894 Z" fill="#8FC14F" style=""/>
  <text style="white-space: pre; fill: rgb(51, 51, 51); font-family: Arial, sans-serif; font-size: 28px;" x="70.189" y="146.239" transform="matrix(3.225891, 0, 0, 2.889222, -120.549517, 12.876115)">Registered Valuer Entity</text>
  <text style="white-space: pre; fill: rgb(51, 51, 51); font-family: Arial, sans-serif; font-size: 28px;" x="179.507" y="180.378" transform="matrix(5.692024, 0, 0, 3.158066, -682.244822, -157.305636)"> </text>
  <text style="white-space: pre; fill: rgb(51, 51, 51); font-family: Arial, sans-serif; font-size: 28px;" x="156.364" y="162.717" transform="matrix(5.692024, 0, 0, 3.158066, -682.244822, -157.305636)"> </text>
  <text style="white-space: pre; fill: rgb(51, 51, 51); font-family: Arial, sans-serif; font-size: 28px;" x="74.452" y="155.104" transform="matrix(2.959863, 0, 0, 3.09423, -145.915789, -171.278079)"> </text>
  <path d="M 63.117 137.138 L 63.117 117.095 L 76.858 117.095 L 76.858 120.486 L 67.164 120.486 L 67.164 125.23 L 75.532 125.23 L 75.532 128.62 L 67.164 128.62 L 67.164 137.138 L 63.117 137.138 Z M 89.723 137.138 L 89.723 134.964 C 89.194 135.739 88.499 136.349 87.638 136.796 C 86.777 137.243 85.867 137.466 84.91 137.466 C 83.935 137.466 83.06 137.252 82.285 136.824 C 81.51 136.395 80.95 135.794 80.604 135.019 C 80.257 134.244 80.084 133.173 80.084 131.806 L 80.084 122.618 L 83.926 122.618 L 83.926 129.29 C 83.926 131.332 83.997 132.583 84.138 133.043 C 84.279 133.504 84.537 133.868 84.91 134.137 C 85.284 134.406 85.758 134.54 86.332 134.54 C 86.989 134.54 87.577 134.36 88.096 134 C 88.615 133.64 88.971 133.193 89.162 132.66 C 89.353 132.127 89.449 130.822 89.449 128.743 L 89.449 122.618 L 93.291 122.618 L 93.291 137.138 L 89.723 137.138 Z M 103.928 122.618 L 103.928 125.681 L 101.303 125.681 L 101.303 131.533 C 101.303 132.718 101.328 133.408 101.378 133.604 C 101.428 133.8 101.542 133.962 101.72 134.089 C 101.897 134.217 102.114 134.281 102.369 134.281 C 102.724 134.281 103.239 134.158 103.914 133.911 L 104.242 136.892 C 103.349 137.275 102.337 137.466 101.207 137.466 C 100.514 137.466 99.89 137.35 99.334 137.117 C 98.778 136.885 98.37 136.584 98.11 136.215 C 97.851 135.846 97.671 135.347 97.57 134.718 C 97.488 134.271 97.447 133.369 97.447 132.011 L 97.447 125.681 L 95.684 125.681 L 95.684 122.618 L 97.447 122.618 L 97.447 119.734 L 101.303 117.492 L 101.303 122.618 L 103.928 122.618 Z M 116.15 137.138 L 116.15 134.964 C 115.621 135.739 114.926 136.349 114.065 136.796 C 113.204 137.243 112.294 137.466 111.337 137.466 C 110.362 137.466 109.487 137.252 108.712 136.824 C 107.937 136.395 107.377 135.794 107.03 135.019 C 106.684 134.244 106.511 133.173 106.511 131.806 L 106.511 122.618 L 110.353 122.618 L 110.353 129.29 C 110.353 131.332 110.424 132.583 110.565 133.043 C 110.706 133.504 110.963 133.868 111.337 134.137 C 111.711 134.406 112.185 134.54 112.759 134.54 C 113.415 134.54 114.003 134.36 114.523 134 C 115.042 133.64 115.398 133.193 115.589 132.66 C 115.78 132.127 115.876 130.822 115.876 128.743 L 115.876 122.618 L 119.718 122.618 L 119.718 137.138 L 116.15 137.138 Z M 127.374 137.138 L 123.532 137.138 L 123.532 122.618 L 127.101 122.618 L 127.101 124.683 C 127.712 123.708 128.261 123.065 128.748 122.755 C 129.236 122.445 129.79 122.29 130.409 122.29 C 131.284 122.29 132.128 122.532 132.939 123.015 L 131.749 126.365 C 131.102 125.946 130.5 125.736 129.944 125.736 C 129.407 125.736 128.951 125.884 128.577 126.18 C 128.204 126.476 127.91 127.011 127.695 127.786 C 127.481 128.561 127.374 130.184 127.374 132.654 L 127.374 137.138 Z M 134.593 137.138 L 134.593 122.618 L 138.435 122.618 L 138.435 137.138 L 134.593 137.138 Z M 149.03 122.618 L 149.03 125.681 L 146.405 125.681 L 146.405 131.533 C 146.405 132.718 146.43 133.408 146.481 133.604 C 146.531 133.8 146.645 133.962 146.822 134.089 C 147 134.217 147.217 134.281 147.472 134.281 C 147.827 134.281 148.342 134.158 149.017 133.911 L 149.345 136.892 C 148.452 137.275 147.44 137.466 146.31 137.466 C 145.617 137.466 144.993 137.35 144.437 137.117 C 143.881 136.885 143.473 136.584 143.213 136.215 C 142.953 135.846 142.773 135.347 142.673 134.718 C 142.591 134.271 142.55 133.369 142.55 132.011 L 142.55 125.681 L 140.786 125.681 L 140.786 122.618 L 142.55 122.618 L 142.55 119.734 L 146.405 117.492 L 146.405 122.618 L 149.03 122.618 Z M 149.878 122.618 L 153.966 122.618 L 157.439 132.927 L 160.829 122.618 L 164.808 122.618 L 159.681 136.591 L 158.765 139.12 C 158.428 139.968 158.106 140.615 157.801 141.062 C 157.496 141.509 157.145 141.871 156.748 142.149 C 156.352 142.427 155.865 142.643 155.286 142.798 C 154.707 142.953 154.053 143.031 153.324 143.031 C 152.585 143.031 151.861 142.953 151.15 142.798 L 150.808 139.79 C 151.409 139.909 151.952 139.968 152.435 139.968 C 153.328 139.968 153.989 139.706 154.417 139.182 C 154.846 138.658 155.174 137.99 155.402 137.179 L 149.878 122.618 Z" transform="matrix(11.361676, 0, 0, 10.342111, -603.107126, -1051.935807)" style="fill: rgb(51, 51, 51);"/>
  <text style="white-space: pre; fill: rgb(51, 51, 51); font-family: Arial, sans-serif; font-size: 28px;" x="151.187" y="100.901" transform="matrix(7.715952, 0, 0, 7.189713, -968.515395, -459.118446)"> </text>
</svg>