<svg xmlns="http://www.w3.org/2000/svg" xmlns:xlink="http://www.w3.org/1999/xlink" version="1.1" x="0px" y="0px" viewBox="0 0 96 120" enable-background="new 0 0 96 96" xml:space="preserve"><path fill-rule="evenodd" clip-rule="evenodd" d="M44.777,51.841h-3.943c-1.016,0-1.846,0.831-1.846,1.847v16.597  c0,1.178,0.723,1.645,1.729,1.797c0.857,0.131,1.385,0.438,2.029,0.98c4.238,3.575,8.789,7.027,13.67,9.411  c1.268,0.619,2.215-0.041,2.607-1.308l-2.381-1.677c-0.416-0.292-0.516-0.864-0.223-1.279c0.291-0.414,0.863-0.514,1.277-0.223  l2.994,2.121c0.881,0.789,2.752,1.938,3.744,1.617c0.668-0.216,0.877-1.201,0.938-1.958l-4.686-3.316  c-0.412-0.292-0.51-0.862-0.219-1.275c0.291-0.412,0.863-0.511,1.275-0.22l5.182,3.675v-0.002c1.893,1.705,4.244,2.164,4.557-1.068  l-4.43-3.83c-0.383-0.331-0.424-0.91-0.092-1.293c0.33-0.384,0.91-0.425,1.293-0.094l4.666,4.035  c0.904,0.376,1.729,0.556,2.424,0.529c0.83-0.031,1.463-0.358,1.795-1.128c0.164-0.381,0.258-0.863,0.264-1.452  c-2.494-2.77-5.043-5.945-7.596-9.123c-3.174-3.952-6.352-7.909-9.416-11.068c-2.721-2.808-6.387,5.056-14.18,4.73v-0.001  c-1.533-0.044-3.578-0.633-4.191-2.156C41.293,54.906,42.961,53.166,44.777,51.841L44.777,51.841z M50.008,80.893  c0.996,0.658,1.977,1.265,2.949,1.822h-2.949V80.893L50.008,80.893z M49.174,84.547h-9.586l-8.889,0.001h-0.004l-0.07,0.003H3.859  c-0.508,0-0.92-0.412-0.92-0.92v-56.01c0-0.508,0.412-0.92,0.92-0.92h25.846V7.795c0-0.508,0.412-0.92,0.92-0.92h26.766  c0.508,0,0.92,0.412,0.92,0.92v36.531c6.988-0.662,14.156,4.025,22.402,4.983c0.246,0.028,0.477,0.092,0.693,0.186v-1.768  c0-0.508,0.412-0.92,0.92-0.92h9.814c0.508,0,0.92,0.412,0.92,0.92V75.68c0,0.508-0.412,0.92-0.92,0.92h-9.814  c-0.508,0-0.92-0.412-0.92-0.92v-1.966c-0.658,0.521-1.434,0.898-2.188,1.069c-0.25,3.417-2.869,4.578-6.01,3.641  c-0.633,3.313-3.402,4.188-6.176,2.557c-0.529,2.196-2.182,3.09-4.32,2.413c-0.684-0.217-1.414-0.593-2.156-1.098  c-0.629,1.385-1.813,2.284-3.363,2.251H49.174L49.174,84.547z M38.752,82.715v-6.42c-0.168,0.188-0.412,0.305-0.684,0.305h-6.523  v6.115H38.752L38.752,82.715z M40.59,73.925c0.404,0.085,0.629,0.249,0.971,0.538c2.33,1.966,4.508,3.679,6.609,5.169v3.079h-7.58  V73.925L40.59,73.925z M45.574,50.002c-0.299-0.152-0.502-0.462-0.502-0.819v-6.444c0-0.508,0.41-0.919,0.918-0.919h6.443  c0.508,0,0.92,0.411,0.92,0.919v3.023c1.051-0.525,2.088-0.895,3.117-1.136V8.714H31.545v38.094h3.117v-4.069  c0-0.508,0.412-0.919,0.92-0.919h6.443c0.508,0,0.92,0.411,0.92,0.919v6.444c0,0.357-0.205,0.667-0.502,0.819H45.574L45.574,50.002z   M51.516,46.837v-3.179H46.91v4.604h2.65L51.516,46.837L51.516,46.837z M39.98,50.102h-0.992V50.5  C39.293,50.322,39.627,50.187,39.98,50.102L39.98,50.102z M37.148,49.187v-0.54h-7.975V74.76h7.975V49.187L37.148,49.187z   M38.988,48.263h2.117v-4.604h-4.604v3.149h1.566c0.508,0,0.92,0.412,0.92,0.92V48.263L38.988,48.263z M28.254,46.808h1.451V28.542  H4.779v54.17h24.926V76.6h-1.451c-0.508,0-0.92-0.412-0.92-0.92V47.728C27.334,47.22,27.746,46.808,28.254,46.808L28.254,46.808z   M81.406,70.399c-0.08,1.271-1.533,2.422-2.713,2.618c-5.512-6.133-11.402-14.398-16.986-20.159  c-4.43-4.567-7.879,4.492-15.424,4.177l0,0c-0.783-0.028-2.285-0.322-2.561-1.008c-0.277-0.688,1.023-1.896,2.072-2.661  c2.473-1.8,3.883-2.916,6.09-4.547c5.83-4.308,11.254-2.647,17.941-0.41c3.307,1.106,6.803,2.275,10.678,2.726  c0.662,0.077,0.902,1.08,0.902,1.633V70.399L81.406,70.399z M91.221,48.647h-7.975V74.76h7.975V48.647L91.221,48.647z M45.99,31.907  c-0.508,0-0.918,0.411-0.918,0.919v6.443c0,0.509,0.41,0.92,0.918,0.92h6.443c0.508,0,0.92-0.411,0.92-0.92v-6.443  c0-0.508-0.412-0.919-0.92-0.919H45.99L45.99,31.907z M51.516,33.746H46.91v4.604h4.605V33.746L51.516,33.746z M35.582,31.907  c-0.508,0-0.92,0.411-0.92,0.919v6.443c0,0.509,0.412,0.92,0.92,0.92h6.443c0.508,0,0.92-0.411,0.92-0.92v-6.443  c0-0.508-0.412-0.919-0.92-0.919H35.582L35.582,31.907z M41.105,33.746h-4.604v4.604h4.604V33.746L41.105,33.746z M45.99,21.994  c-0.508,0-0.918,0.411-0.918,0.919v6.444c0,0.507,0.41,0.919,0.918,0.919h6.443c0.508,0,0.92-0.412,0.92-0.919v-6.444  c0-0.508-0.412-0.919-0.92-0.919H45.99L45.99,21.994z M51.516,23.833H46.91v4.604h4.605V23.833L51.516,23.833z M35.582,21.994  c-0.508,0-0.92,0.411-0.92,0.919v6.444c0,0.507,0.412,0.919,0.92,0.919h6.443c0.508,0,0.92-0.412,0.92-0.919v-6.444  c0-0.508-0.412-0.919-0.92-0.919H35.582L35.582,21.994z M41.105,23.833h-4.604v4.604h4.604V23.833L41.105,23.833z M45.99,12.08  c-0.508,0-0.918,0.412-0.918,0.92v6.443c0,0.508,0.41,0.92,0.918,0.92h6.443c0.508,0,0.92-0.412,0.92-0.92V13  c0-0.508-0.412-0.92-0.92-0.92H45.99L45.99,12.08z M51.516,13.919H46.91v4.604h4.605V13.919L51.516,13.919z M35.582,12.08  c-0.508,0-0.92,0.412-0.92,0.92v6.443c0,0.508,0.412,0.92,0.92,0.92h6.443c0.508,0,0.92-0.412,0.92-0.92V13  c0-0.508-0.412-0.92-0.92-0.92H35.582L35.582,12.08z M41.105,13.919h-4.604v4.604h4.604V13.919L41.105,13.919z M19.225,61.646  c-0.508,0-0.92,0.412-0.92,0.92v6.443c0,0.508,0.412,0.92,0.92,0.92h6.443c0.508,0,0.92-0.412,0.92-0.92v-6.443  c0-0.508-0.412-0.92-0.92-0.92H19.225L19.225,61.646z M24.75,63.485h-4.605v4.605h4.605V63.485L24.75,63.485z M8.816,61.646  c-0.508,0-0.92,0.412-0.92,0.92v6.443c0,0.508,0.412,0.92,0.92,0.92h6.443c0.508,0,0.92-0.412,0.92-0.92v-6.443  c0-0.508-0.412-0.92-0.92-0.92H8.816L8.816,61.646z M14.34,63.485H9.736v4.605h4.604V63.485L14.34,63.485z M19.225,51.733  c-0.508,0-0.92,0.412-0.92,0.92v6.443c0,0.508,0.412,0.92,0.92,0.92h6.443c0.508,0,0.92-0.412,0.92-0.92v-6.443  c0-0.508-0.412-0.92-0.92-0.92H19.225L19.225,51.733z M24.75,53.572h-4.605v4.604h4.605V53.572L24.75,53.572z M8.816,51.733  c-0.508,0-0.92,0.412-0.92,0.92v6.443c0,0.508,0.412,0.92,0.92,0.92h6.443c0.508,0,0.92-0.412,0.92-0.92v-6.443  c0-0.508-0.412-0.92-0.92-0.92H8.816L8.816,51.733z M14.34,53.572H9.736v4.604h4.604V53.572L14.34,53.572z M19.225,41.82  c-0.508,0-0.92,0.411-0.92,0.919v6.444c0,0.508,0.412,0.919,0.92,0.919h6.443c0.508,0,0.92-0.411,0.92-0.919v-6.444  c0-0.508-0.412-0.919-0.92-0.919H19.225L19.225,41.82z M24.75,43.659h-4.605v4.604h4.605V43.659L24.75,43.659z M8.816,41.82  c-0.508,0-0.92,0.411-0.92,0.919v6.444c0,0.508,0.412,0.919,0.92,0.919h6.443c0.508,0,0.92-0.411,0.92-0.919v-6.444  c0-0.508-0.412-0.919-0.92-0.919H8.816L8.816,41.82z M14.34,43.659H9.736v4.604h4.604V43.659L14.34,43.659z M19.225,31.907  c-0.508,0-0.92,0.411-0.92,0.919v6.443c0,0.509,0.412,0.92,0.92,0.92h6.443c0.508,0,0.92-0.411,0.92-0.92v-6.443  c0-0.508-0.412-0.919-0.92-0.919H19.225L19.225,31.907z M24.75,33.746h-4.605v4.604h4.605V33.746L24.75,33.746z M8.816,31.907  c-0.508,0-0.92,0.411-0.92,0.919v6.443c0,0.509,0.412,0.92,0.92,0.92h6.443c0.508,0,0.92-0.411,0.92-0.92v-6.443  c0-0.508-0.412-0.919-0.92-0.919H8.816L8.816,31.907z M14.34,33.746H9.736v4.604h4.604V33.746z"/><text x="0" y="111" fill="#000000" font-size="5px" font-weight="bold" font-family="'Helvetica Neue', Helvetica, Arial-Unicode, Arial, Sans-serif">Created by Wartina Anggraeni</text><text x="0" y="116" fill="#000000" font-size="5px" font-weight="bold" font-family="'Helvetica Neue', Helvetica, Arial-Unicode, Arial, Sans-serif">from the Noun Project</text></svg>