<?xml version="1.0" encoding="utf-8"?>
<!-- Generator: Adobe Illustrator 25.3.1, SVG Export Plug-In . SVG Version: 6.00 Build 0)  -->
<svg version="1.1" id="Layer_1" xmlns="http://www.w3.org/2000/svg" xmlns:xlink="http://www.w3.org/1999/xlink" x="0px" y="0px"
	 viewBox="0 0 122 28" style="enable-background:new 0 0 122 28;" xml:space="preserve">
<style type="text/css">
	.st0{fill-rule:evenodd;clip-rule:evenodd;fill:#2D8CFF;}
</style>
<path class="st0" d="M99.3,8.4c0.5,0.8,0.6,1.8,0.7,2.8l0.1,1.4v9.8l0.1,1.4c0.1,2.3,1.8,4,4,4.1l1.4,0.1V12.6l0.1-1.4
	c0.1-1,0.2-2,0.7-2.8c0.5-0.8,1.2-1.6,2-2c0.8-0.5,1.8-0.7,2.7-0.7c1,0,1.9,0.3,2.7,0.8c0.8,0.5,1.5,1.2,2,2
	c0.5,0.8,0.6,1.8,0.7,2.8l0.1,1.4v9.8l0.1,1.4c0.1,2.3,1.8,4,4,4.1L122,28V11.2c0-3-1.2-5.8-3.2-7.9S113.9,0,111,0
	c-1.6,0-3.1,0.3-4.5,1c-1.4,0.7-2.7,1.6-3.7,2.8c-1-1.2-2.3-2.1-3.7-2.8c-1.4-0.7-3-1-4.5-1c-2.3,0-4.4,0.7-6.1,1.9
	C87.4,0.7,85,0,83.6,0v28l1.4-0.1c2.3-0.2,4-1.8,4-4.1l0.1-1.4v-9.8l0.1-1.4c0.1-1.1,0.2-2,0.7-2.8c0.5-0.8,1.2-1.6,2-2
	c0.8-0.5,1.8-0.7,2.7-0.7c1,0,1.9,0.3,2.7,0.7C98.2,6.8,98.8,7.5,99.3,8.4z M5.5,27.9L6.9,28h20.6l-0.1-1.4c-0.2-2.3-1.8-4-4-4.1
	l-1.4-0.1H9.6L26,5.6L26,4.2c-0.1-2.3-1.8-4-4-4.1L20.6,0L0,0l0.1,1.4c0.2,2.3,1.8,4,4,4.1l1.4,0.1h12.3L1.4,22.4l0.1,1.4
	C1.6,26.1,3.2,27.8,5.5,27.9L5.5,27.9z M78.2,4.1c1.3,1.3,2.3,2.8,3,4.5c0.7,1.7,1,3.5,1,5.4c0,1.8-0.4,3.7-1,5.4
	c-0.7,1.7-1.7,3.2-3,4.5c-2.6,2.6-6.1,4.1-9.7,4.1s-7.1-1.5-9.7-4.1c-5.4-5.5-5.4-14.3,0-19.8c1.3-1.3,2.8-2.3,4.4-3
	C64.9,0.4,66.7,0,68.5,0c1.8,0,3.6,0.4,5.3,1.1C75.4,1.8,77,2.8,78.2,4.1L78.2,4.1z M74.4,8.1c1.5,1.6,2.4,3.7,2.4,5.9
	s-0.9,4.4-2.4,5.9c-1.5,1.6-3.6,2.5-5.8,2.5s-4.3-0.9-5.8-2.5c-1.5-1.6-2.4-3.7-2.4-5.9s0.9-4.4,2.4-5.9c1.5-1.6,3.6-2.5,5.8-2.5
	S72.8,6.5,74.4,8.1z M39.8,0c1.8,0,3.6,0.4,5.2,1.1c1.7,0.7,3.2,1.7,4.4,3c5.4,5.5,5.4,14.3,0,19.8c-2.6,2.6-6.1,4.1-9.7,4.1
	c-3.6,0-7.1-1.5-9.7-4.1c-5.4-5.5-5.4-14.3,0-19.8c1.3-1.3,2.8-2.3,4.4-3C36.2,0.4,37.9,0,39.8,0L39.8,0z M45.6,8.1
	C47.1,9.6,48,11.8,48,14s-0.9,4.4-2.4,5.9c-1.5,1.6-3.6,2.5-5.8,2.5c-2.2,0-4.3-0.9-5.8-2.5c-1.5-1.6-2.4-3.7-2.4-5.9
	c0-2.2,0.9-4.4,2.4-5.9c1.5-1.6,3.6-2.5,5.8-2.5C41.9,5.6,44,6.5,45.6,8.1L45.6,8.1z"/>
</svg>
